<?xml version="1.0" standalone="no"?>
<!DOCTYPE svg PUBLIC "-//W3C//DTD SVG 1.1//EN" "http://www.w3.org/Graphics/SVG/1.1/DTD/svg11.dtd" >
<svg xmlns="http://www.w3.org/2000/svg" xmlns:xlink="http://www.w3.org/1999/xlink" version="1.1">
<metadata>
Created by FontForge 20201107 at Sun Sep  7 07:33:07 2025
 By 
Amenti (c) Igor Ovsyannykov 2023  All Rights Reserved
</metadata>
<defs>
<font id="Amenti-Regular" horiz-adv-x="1292" >
  <font-face 
    font-family="Amenti"
    font-weight="400"
    font-stretch="normal"
    units-per-em="2048"
    panose-1="0 0 0 0 0 0 0 0 0 0"
    ascent="1567"
    descent="-481"
    x-height="1051"
    cap-height="1460"
    bbox="-152 -502 2644 1898"
    underline-thickness="102"
    underline-position="-255"
    unicode-range="U+000D-FB02"
  />
<missing-glyph horiz-adv-x="512" 
 />
    <glyph glyph-name="fi" unicode="fi" horiz-adv-x="1120" 
d="M94 1237q0 135 74 217t197 82h307v-145h-266q-73 0 -112.5 -46t-39.5 -120v-174h745v-1051h-159v907h-586v-907h-160v1237zM811 1325q0 48 30 77.5t79 29.5t78.5 -29.5t29.5 -77.5q0 -49 -29 -77.5t-79 -28.5t-79.5 28.5t-29.5 77.5z" />
    <glyph glyph-name="fl" unicode="fl" horiz-adv-x="1271" 
d="M94 1237q0 135 74 217t197 82h608v-1212q0 -80 43 -124t114 -44h76v-156h-119q-123 0 -198.5 81t-75.5 214v1096h-407q-73 0 -112.5 -46t-39.5 -120v-174h334v-144h-334v-907h-160v1237z" />
    <glyph glyph-name=".notdef" horiz-adv-x="512" 
 />
    <glyph glyph-name="uni0000" horiz-adv-x="0" 
 />
    <glyph glyph-name="uni0000" horiz-adv-x="0" 
 />
    <glyph glyph-name="uni000D" unicode="&#xd;" horiz-adv-x="512" 
 />
    <glyph glyph-name="space" unicode=" " horiz-adv-x="616" 
 />
    <glyph glyph-name="exclam" unicode="!" horiz-adv-x="405" 
d="M154 330l-41 1130h180l-45 -1130h-94zM94 80q0 45 30 74.5t79 29.5q47 0 77.5 -29.5t30.5 -74.5q0 -49 -30 -79t-78 -30q-49 0 -79 29.5t-30 79.5z" />
    <glyph glyph-name="quotedbl" unicode="&#x22;" horiz-adv-x="741" 
d="M92 702v734h164v-734h-164zM485 702v734h162v-734h-162z" />
    <glyph glyph-name="numbersign" unicode="#" horiz-adv-x="1572" 
d="M598 866l-76 -321h465l76 321h-465zM496 426l-101 -426h-137l100 426h-266l29 119h266l74 321h-268l28 117h268l105 451h135l-104 -451h465l106 451h137l-106 -451h254l-29 -117h-252l-78 -321h258l-30 -119h-252l-101 -426h-137l101 426h-465z" />
    <glyph glyph-name="dollar" unicode="$" horiz-adv-x="1300" 
d="M92 377h168q12 -121 130.5 -202t264.5 -81q73 0 138.5 15t123 47t91.5 90t34 135q0 69 -32.5 119t-87 79t-125.5 49t-149.5 35.5t-157 32.5t-149.5 45.5t-125.5 69.5t-87 109t-32.5 159q0 127 67 222.5t175.5 145t241.5 54.5v203h145v-205q187 -12 318.5 -131t152.5 -285
h-166q-20 128 -129.5 207.5t-253.5 79.5q-97 0 -183 -29t-145 -93.5t-59 -151.5q0 -70 32.5 -120.5t87 -79.5t125 -49.5t149 -36t157 -32.5t149 -44.5t125 -67t87 -105.5t32.5 -155q0 -108 -37.5 -193.5t-104 -139.5t-152 -83t-185.5 -31v-238h-145v238
q-197 12 -327.5 125.5t-160.5 292.5z" />
    <glyph glyph-name="percent" unicode="%" horiz-adv-x="1859" 
d="M463 1434q166 0 268.5 -102.5t102.5 -266.5q0 -167 -102.5 -269t-268.5 -102t-268.5 102t-102.5 269q0 164 102.5 266.5t268.5 102.5zM391 0l879 1339h121l-879 -1339h-121zM463 1319q-116 0 -186 -69.5t-70 -184.5q0 -117 70 -187.5t186 -70.5q115 0 184.5 70.5
t69.5 187.5q0 115 -69.5 184.5t-184.5 69.5zM1395 768q166 0 268 -103t102 -268q0 -166 -101.5 -268t-268.5 -102q-164 0 -265.5 102t-101.5 268q0 165 101.5 268t265.5 103zM1395 653q-113 0 -183.5 -70.5t-70.5 -185.5t70.5 -185.5t183.5 -70.5q117 0 187.5 70t70.5 186
t-70.5 186t-187.5 70z" />
    <glyph glyph-name="ampersand" unicode="&#x26;" horiz-adv-x="1560" 
d="M1165 272l303 -272h-208l-193 170q-224 -221 -487 -221q-94 0 -181 28t-156 79t-110 130.5t-41 175.5q0 82 25.5 149t73 116t99.5 83t122 66q-160 172 -160 334q0 164 120 266.5t310 102.5q187 0 300.5 -93.5t113.5 -244.5q0 -49 -13 -91.5t-34.5 -75t-55 -62t-68 -50.5
t-81 -42.5t-86 -37.5t-91.5 -35q-15 -5 -22 -8l416 -377q101 134 164 334h135q-39 -143 -85.5 -240.5t-109.5 -183.5zM399 1116q0 -135 154 -289q179 64 241 97q140 74 154 182q2 14 2 29q0 89 -76 154t-192 65q-121 0 -200 -65t-83 -173zM600 90q194 0 367 166l-463 428
q-57 -27 -99.5 -55t-79.5 -66t-56 -87.5t-19 -108.5q0 -83 53 -148t132 -97t165 -32z" />
    <glyph glyph-name="quotesingle" unicode="'" horiz-adv-x="348" 
d="M92 702v734h164v-734h-164z" />
    <glyph glyph-name="parenleft" unicode="(" horiz-adv-x="622" 
d="M92 573q0 280 89 537.5t237 405.5l110 -80q-129 -149 -205.5 -384t-76.5 -479q0 -250 76.5 -484t205.5 -380l-110 -78q-148 148 -237 405t-89 537z" />
    <glyph glyph-name="parenright" unicode=")" horiz-adv-x="622" 
d="M528 573q0 -277 -89.5 -535t-233.5 -407l-113 78q129 141 206 377.5t77 486.5q0 244 -77 480t-206 383l113 80q144 -149 233.5 -407.5t89.5 -535.5z" />
    <glyph glyph-name="asterisk" unicode="*" horiz-adv-x="1026" 
d="M573 543h-120l4 354l-303 -180l-62 102l307 174l-307 174l62 103l303 -180l-4 354h120l-4 -354l303 180l62 -103l-309 -174l309 -174l-62 -102l-303 180z" />
    <glyph glyph-name="plus" unicode="+" horiz-adv-x="1026" 
d="M92 662v137h350v352h142v-352h348v-137h-348v-351h-142v351h-350z" />
    <glyph glyph-name="comma" unicode="," horiz-adv-x="413" 
d="M94 82q0 47 29.5 75.5t77.5 28.5q54 0 86 -39.5t32 -105.5q0 -92 -45.5 -171.5t-109.5 -121.5l-39 43q78 78 78 174v10h-13q-42 0 -69 29t-27 78z" />
    <glyph glyph-name="hyphen" unicode="-" horiz-adv-x="1026" 
d="M92 659v142h840v-142h-840z" />
    <glyph glyph-name="period" unicode="." horiz-adv-x="401" 
d="M92 82q0 49 29.5 77.5t79.5 28.5t79 -28.5t29 -77.5q0 -48 -29.5 -78.5t-78.5 -30.5t-79 30.5t-30 78.5z" />
    <glyph glyph-name="slash" unicode="/" horiz-adv-x="1155" 
d="M94 -186l840 1646h127l-840 -1646h-127z" />
    <glyph glyph-name="zero" unicode="0" horiz-adv-x="1406" 
d="M94 721q0 366 167.5 569t443.5 203t443 -203t167 -569q0 -356 -164.5 -564t-445.5 -208q-273 0 -442 209.5t-169 562.5zM264 721q0 -289 120 -455t321 -166q209 0 324.5 164t115.5 457q0 297 -123 461t-317 164q-94 0 -174.5 -41t-140 -118t-93 -196.5t-33.5 -269.5z" />
    <glyph glyph-name="one" unicode="1" horiz-adv-x="665" 
d="M92 1133l340 327h139v-1460h-161v1260l-318 -302v175z" />
    <glyph glyph-name="two" unicode="2" horiz-adv-x="1128" 
d="M569 1495q212 0 328.5 -128.5t116.5 -336.5q0 -372 -602 -885h624v-145h-923v92q85 67 154 125.5t161.5 142.5t162 162t132.5 164t97 171t34 161q0 149 -76.5 242.5t-220.5 93.5q-138 0 -220 -99t-87 -256h-156q0 221 128 358.5t347 137.5z" />
    <glyph glyph-name="three" unicode="3" horiz-adv-x="1222" 
d="M610 1493q129 0 235.5 -44t173 -134.5t66.5 -212.5q0 -127 -91 -216.5t-244 -117.5q176 -27 277 -130.5t101 -268.5q0 -119 -67 -215.5t-183.5 -150.5t-259.5 -54q-151 0 -268.5 52t-186.5 157t-69 250h150q0 -141 100 -229.5t266 -88.5q152 0 252.5 87.5t100.5 217.5
q0 82 -33.5 144t-94 97.5t-136 53t-167.5 17.5v122q192 0 295 73.5t103 199.5q0 106 -90.5 178t-229.5 72q-142 0 -235.5 -68t-93.5 -186h-154q0 126 67 217t174.5 134.5t241.5 43.5z" />
    <glyph glyph-name="four" unicode="4" horiz-adv-x="1267" 
d="M256 494v-15h569v817zM825 332h-731v188l676 940h217v-981h189v-147h-189v-332h-162v332z" />
    <glyph glyph-name="five" unicode="5" horiz-adv-x="1245" 
d="M287 616h-156l86 844h827v-137h-692l-59 -500q57 75 157.5 119.5t215.5 44.5q227 0 356 -140t129 -380q0 -228 -151.5 -365t-395.5 -137q-134 0 -252 61t-189 166.5t-71 227.5h154q12 -132 114.5 -226t241.5 -94q112 0 200.5 41t141.5 124.5t53 199.5q0 189 -99 292
t-269 103q-133 0 -228.5 -71.5t-113.5 -172.5z" />
    <glyph glyph-name="six" unicode="6" horiz-adv-x="1230" 
d="M731 1460h193l-406 -530q79 28 174 28q195 0 321 -137.5t126 -345.5q0 -224 -146 -368t-375 -144t-377.5 140.5t-148.5 355.5q0 82 30 171.5t77 151.5zM625 823q-154 0 -256.5 -100.5t-102.5 -253.5q0 -159 102.5 -263t256.5 -104q149 0 243.5 103.5t94.5 263.5
q0 154 -94.5 254t-243.5 100z" />
    <glyph glyph-name="seven" unicode="7" horiz-adv-x="1089" 
d="M805 1323h-711v137h901v-104l-563 -1356h-180z" />
    <glyph glyph-name="eight" unicode="8" horiz-adv-x="1243" 
d="M621 1497q205 0 335.5 -107.5t130.5 -267.5v-10q0 -121 -70 -214t-183 -122q138 -29 225 -137t92 -252q0 -189 -144.5 -307.5t-385.5 -118.5q-240 0 -384.5 120t-144.5 306q0 142 89 251.5t227 137.5q-113 28 -184.5 120.5t-71.5 213.5q0 170 131.5 278.5t337.5 108.5z
M621 1356q-139 0 -229.5 -74.5t-90.5 -187.5q0 -112 90 -185t230 -73q141 0 229 72.5t88 185.5t-88.5 187.5t-228.5 74.5zM621 700q-162 0 -263.5 -83t-101.5 -211q0 -132 101.5 -216t263.5 -84q161 0 263.5 84t102.5 216q0 128 -103 211t-263 83z" />
    <glyph glyph-name="nine" unicode="9" horiz-adv-x="1230" 
d="M512 0h-209l416 537q-76 -29 -174 -29q-196 0 -324.5 134.5t-128.5 340.5q0 224 147 368t373 144q231 0 379 -141t148 -357q0 -80 -30 -170t-77 -151zM608 633q154 0 255.5 100.5t101.5 255.5q0 159 -101.5 263t-255.5 104q-149 0 -244.5 -103.5t-95.5 -263.5
q0 -155 95.5 -255.5t244.5 -100.5z" />
    <glyph glyph-name="colon" unicode=":" horiz-adv-x="401" 
d="M92 696q0 47 30 76t79 29t78.5 -29t29.5 -76q0 -50 -29.5 -79t-78.5 -29q-50 0 -79.5 29.5t-29.5 78.5zM92 82q0 49 29.5 77.5t79.5 28.5t79 -28.5t29 -77.5q0 -48 -29.5 -78.5t-78.5 -30.5t-79 30.5t-30 78.5z" />
    <glyph glyph-name="semicolon" unicode=";" horiz-adv-x="413" 
d="M98 696q0 47 30 76t79 29t78.5 -29t29.5 -76q0 -50 -29.5 -79t-78.5 -29q-50 0 -79.5 29.5t-29.5 78.5zM94 82q0 47 29.5 75.5t77.5 28.5q54 0 86 -39.5t32 -105.5q0 -92 -45.5 -171.5t-109.5 -121.5l-39 43q78 78 78 168v16h-13q-42 0 -69 29t-27 78z" />
    <glyph glyph-name="less" unicode="&#x3c;" horiz-adv-x="987" 
d="M92 731l801 512v-147l-580 -365l580 -366v-148z" />
    <glyph glyph-name="equal" unicode="=" horiz-adv-x="1148" 
d="M94 389v129h963v-129h-963zM94 911v127h963v-127h-963z" />
    <glyph glyph-name="greater" unicode="&#x3e;" horiz-adv-x="987" 
d="M893 731l-801 -514v148l582 366l-582 365v147z" />
    <glyph glyph-name="question" unicode="?" horiz-adv-x="1243" 
d="M516 330v370h94q167 0 267 87.5t100 230.5v10q0 136 -109 231t-264 95q-143 0 -245 -93.5t-119 -246.5h-148q16 154 91.5 264.5t185 162.5t241.5 52q243 0 392 -136.5t149 -336.5q0 -194 -136.5 -318t-355.5 -124v-248h-143zM479 80q0 44 31 74t78 30q49 0 78.5 -29.5
t29.5 -74.5q0 -50 -29.5 -79.5t-78.5 -29.5q-48 0 -78.5 30t-30.5 79z" />
    <glyph glyph-name="at" unicode="@" horiz-adv-x="2035" 
d="M256 532q0 -213 86.5 -381.5t245.5 -264t364 -95.5h607v-147h-607q-184 0 -344 67t-273 184t-178 282t-65 355q0 192 65.5 356.5t183 282.5t290 185t377.5 67q207 0 382 -67t296 -185t188.5 -282.5t67.5 -356.5q0 -235 -98.5 -390.5t-252.5 -155.5q-120 0 -189 74
t-69 212q-39 -83 -145.5 -135.5t-229.5 -52.5q-180 0 -296.5 127.5t-116.5 320.5q0 196 131 323.5t332 127.5q203 0 332.5 -123.5t129.5 -314.5v-223q0 -91 35 -140t92 -49q84 0 134.5 111.5t50.5 287.5q0 161 -55.5 300t-155.5 239t-245 156.5t-316 56.5
q-228 0 -400.5 -97.5t-263 -267.5t-90.5 -387zM1008 831q-127 0 -209 -85t-82 -214t81.5 -211.5t209.5 -82.5q129 0 210.5 82.5t81.5 211.5q0 130 -82 214.5t-210 84.5z" />
    <glyph glyph-name="A" unicode="A" horiz-adv-x="1669" 
d="M834 1130l-363 -722h725zM272 0h-180l742 1477l743 -1477h-180l-140 281h-847z" />
    <glyph glyph-name="B" unicode="B" horiz-adv-x="1196" 
d="M92 0v1460h520q203 0 323 -101t120 -269q0 -110 -60 -191t-168 -113q125 -35 200 -128.5t75 -254.5q0 -86 -30 -157.5t-90 -127t-159 -87t-227 -31.5h-504zM252 834h344q135 0 217 63.5t82 181.5q0 103 -84.5 169.5t-214.5 66.5h-344v-481zM252 145h336q96 0 165 21
t107.5 59t56 84t17.5 103q0 132 -93.5 214.5t-252.5 82.5h-336v-564z" />
    <glyph glyph-name="C" unicode="C" horiz-adv-x="1671" 
d="M1417 473h158q-52 -240 -249 -378t-466 -138q-166 0 -307 53.5t-243.5 151.5t-160 244t-57.5 325q0 233 99.5 410t273 270.5t395.5 93.5q172 0 320.5 -60t254 -179t140.5 -279h-158q-52 167 -209 271t-342 104q-178 0 -317.5 -79t-217 -223t-77.5 -329q0 -143 47 -261.5
t129 -198t194.5 -123.5t241.5 -44q186 0 340.5 100t210.5 269z" />
    <glyph glyph-name="D" unicode="D" horiz-adv-x="1150" 
d="M92 -2v1460l232 2h12q332 0 527.5 -200t195.5 -529q0 -216 -86.5 -379.5t-253.5 -256t-395 -95.5zM256 145h82q256 0 409.5 161.5t153.5 424.5q0 260 -153.5 422t-409.5 162h-82v-1170z" />
    <glyph glyph-name="E" unicode="E" horiz-adv-x="1183" 
d="M92 0v1460h977v-145h-817v-518h735v-142h-735v-510h838v-145h-998z" />
    <glyph glyph-name="F" unicode="F" horiz-adv-x="1024" 
d="M94 8v1452h838v-145h-678v-510h557v-150h-557v-647h-160z" />
    <glyph glyph-name="G" unicode="G" horiz-adv-x="1697" 
d="M858 662v133h748v-37q0 -232 -88.5 -412.5t-259.5 -284.5t-400 -104q-166 0 -309 58t-243 160t-157 245.5t-57 308.5q0 223 98 399.5t273.5 275.5t398.5 99q267 0 457 -131.5t262 -384.5h-164q-37 124 -123.5 209t-196.5 123.5t-239 38.5q-175 0 -314.5 -81
t-216.5 -223.5t-77 -320.5q0 -180 76 -323.5t216.5 -225.5t321.5 -82q252 0 410 157.5t176 402.5h-592z" />
    <glyph glyph-name="H" unicode="H" horiz-adv-x="1318" 
d="M92 0v1460h162v-663h811v663h162v-1460h-162v655h-811v-655h-162z" />
    <glyph glyph-name="I" unicode="I" horiz-adv-x="348" 
d="M94 0v1460h160v-1460h-160z" />
    <glyph glyph-name="J" unicode="J" horiz-adv-x="866" 
d="M94 0v145h223q134 0 213.5 93.5t79.5 273.5v948h162v-979q0 -116 -33.5 -208.5t-92.5 -151.5t-137.5 -90t-170.5 -31h-244z" />
    <glyph glyph-name="K" unicode="K" horiz-adv-x="1005" 
d="M92 0v1460h160v-667l500 667h192l-555 -739l557 -721h-196l-498 637v-637h-160z" />
    <glyph glyph-name="L" unicode="L" horiz-adv-x="1095" 
d="M92 0v1460h160v-1304h752v-156h-912z" />
    <glyph glyph-name="M" unicode="M" horiz-adv-x="1722" 
d="M94 0v1470l764 -1157l768 1157v-1470h-162v993l-604 -923l-604 923v-993h-162z" />
    <glyph glyph-name="N" unicode="N" horiz-adv-x="1429" 
d="M92 0v1475l1082 -1139v1124h161v-1474l-1077 1122l-6 -1108h-160z" />
    <glyph glyph-name="O" unicode="O" horiz-adv-x="1722" 
d="M92 729q0 171 58.5 316t160.5 245t244.5 156.5t306.5 56.5q218 0 392.5 -96t275 -273t100.5 -403q0 -172 -59 -317.5t-161.5 -245t-244 -155.5t-303.5 -56q-217 0 -392 95t-276.5 272t-101.5 405zM862 102h10q88 0 173.5 25.5t162 78t134.5 126t92 176.5t34 223
q0 89 -22.5 177t-71.5 169.5t-119 143.5t-172 99.5t-223 37.5q-89 0 -175.5 -25t-164.5 -76.5t-137 -124.5t-94 -176.5t-35 -224.5q0 -149 52 -271t138.5 -198.5t194 -118t223.5 -41.5z" />
    <glyph glyph-name="P" unicode="P" horiz-adv-x="1239" 
d="M92 0v1460h494q245 0 402 -140t157 -357q0 -221 -151.5 -357.5t-409.5 -136.5h-318v-469h-174zM266 625h303q188 0 297 92.5t109 232.5v11q0 150 -113.5 246t-292.5 96h-303v-678z" />
    <glyph glyph-name="Q" unicode="Q" horiz-adv-x="1722" 
d="M92 729q0 171 58.5 316t160.5 245t244.5 156.5t306.5 56.5q218 0 392.5 -96t275 -273t100.5 -403q0 -194 -72 -349t-202 -257l168 -203l-119 -98l-180 217q-162 -84 -363 -84q-218 0 -393 95.5t-276 272.5t-101 404zM862 102h17q125 0 243 62l-176 211l121 94l186 -221
q98 80 156.5 202.5t58.5 280.5q0 91 -23 180t-72.5 170t-120 142.5t-171.5 98t-221 36.5q-88 0 -173.5 -24t-164 -75t-138 -124t-95 -177.5t-35.5 -228.5q0 -121 34.5 -224.5t94 -176.5t137.5 -124.5t165 -76.5t177 -25z" />
    <glyph glyph-name="R" unicode="R" horiz-adv-x="1245" 
d="M92 0v1460h522q244 0 382.5 -117t138.5 -329q0 -156 -98 -271.5t-257 -152.5l371 -590h-201l-346 561h-344v-561h-168zM260 709h352q160 0 257.5 84.5t97.5 216.5q0 145 -92.5 225t-262.5 80h-352v-606z" />
    <glyph glyph-name="S" unicode="S" horiz-adv-x="1300" 
d="M92 377h168q12 -121 130.5 -202t264.5 -81q74 0 139.5 15t122 47t90 90t33.5 135q0 69 -32.5 119t-87 79t-125 49t-149 35.5t-157 32.5t-149 45.5t-125 69.5t-87 109t-32.5 159q0 103 45 186t121 134.5t173 78.5t206 27q226 0 378 -118t177 -304h-166
q-20 128 -129.5 207.5t-253.5 79.5q-97 0 -183 -29t-145 -93.5t-59 -151.5q0 -70 32.5 -120.5t87 -79.5t125 -49.5t149 -36t157 -32.5t149 -44.5t125 -67t87 -105.5t32.5 -155q0 -115 -44 -204t-120 -142t-171.5 -80t-206.5 -27q-233 0 -385 115.5t-185 308.5z" />
    <glyph glyph-name="T" unicode="T" horiz-adv-x="1220" 
d="M530 0v1315h-438v145h1036v-145h-436v-1315h-162z" />
    <glyph glyph-name="U" unicode="U" horiz-adv-x="1359" 
d="M92 1460h160v-870q0 -214 119.5 -350t308.5 -136q188 0 307 133t119 353v870h160v-866q0 -184 -73.5 -329t-207 -226.5t-305.5 -81.5q-260 0 -424 179t-164 458v866z" />
    <glyph glyph-name="V" unicode="V" horiz-adv-x="1681" 
d="M840 -20l-748 1480h187l561 -1120l563 1120h184z" />
    <glyph glyph-name="W" unicode="W" horiz-adv-x="2191" 
d="M733 -16l-641 1476h176l465 -1120l363 809l362 -809l463 1120h178l-641 -1476l-362 809z" />
    <glyph glyph-name="X" unicode="X" horiz-adv-x="1540" 
d="M94 0l576 729l-576 731h201l475 -596l475 596h201l-574 -731l574 -729h-203l-473 596l-475 -596h-201z" />
    <glyph glyph-name="Y" unicode="Y" horiz-adv-x="1515" 
d="M678 0v449l-584 1011h178l488 -856l485 856h176l-583 -1011v-449h-160z" />
    <glyph glyph-name="Z" unicode="Z" horiz-adv-x="1355" 
d="M92 0l907 1315h-862v145h1127l-895 -1315h819v-145h-1096z" />
    <glyph glyph-name="bracketleft" unicode="[" horiz-adv-x="856" 
d="M764 -369h-672v1885h672v-121h-516v-1643h516v-121z" />
    <glyph glyph-name="backslash" unicode="\" horiz-adv-x="1155" 
d="M1061 -186h-127l-840 1646h127z" />
    <glyph glyph-name="bracketright" unicode="]" horiz-adv-x="856" 
d="M764 -369h-672v121h514v1643h-514v121h672v-1885z" />
    <glyph glyph-name="asciicircum" unicode="^" horiz-adv-x="944" 
d="M94 997l379 463l377 -463h-160l-217 279l-217 -279h-162z" />
    <glyph glyph-name="underscore" unicode="_" horiz-adv-x="1208" 
d="M92 -131v131h1024v-131h-1024z" />
    <glyph glyph-name="grave" unicode="`" horiz-adv-x="509" 
d="M418 1167h-72l-256 322h135z" />
    <glyph glyph-name="a" unicode="a" horiz-adv-x="1290" 
d="M643 1083q250 0 402.5 -156t152.5 -401v-526h-156v186q-64 -104 -169.5 -161.5t-239.5 -57.5q-239 0 -390 155.5t-151 403.5q0 242 155 399.5t396 157.5zM645 938q-170 0 -281.5 -117t-111.5 -295q0 -180 111.5 -296.5t281.5 -116.5t278.5 114t108.5 287v12v13
q0 170 -105.5 284.5t-281.5 114.5z" />
    <glyph glyph-name="b" unicode="b" horiz-adv-x="1286" 
d="M92 1460h160v-567q68 86 172.5 137t224.5 51q235 0 389 -158t154 -399q0 -242 -157 -400.5t-398 -158.5q-240 0 -392.5 148.5t-152.5 396.5v950zM1032 524q0 179 -111.5 295.5t-279.5 116.5q-171 0 -282 -116t-111 -296q0 -192 109.5 -302.5t283.5 -110.5
q168 0 279.5 117t111.5 296z" />
    <glyph glyph-name="c" unicode="c" horiz-adv-x="1243" 
d="M645 1083q176 0 314 -99t190 -271h-160q-40 109 -135 170t-209 61q-176 0 -286.5 -120.5t-110.5 -293.5q0 -174 109.5 -299t287.5 -125q113 0 212 63t134 171h158q-40 -173 -184.5 -273t-323.5 -100q-242 0 -395.5 157.5t-153.5 401.5t154.5 400.5t398.5 156.5z" />
    <glyph glyph-name="d" unicode="d" horiz-adv-x="1286" 
d="M1032 1460h160v-950q0 -244 -152.5 -394.5t-392.5 -150.5q-239 0 -397 159t-158 400q0 243 149 400t384 157q128 0 232.5 -54t174.5 -153v586zM252 524q5 -182 113 -297.5t280 -115.5t281.5 113t109.5 300v13q0 169 -110.5 284t-280.5 115q-171 0 -282 -116t-111 -296z
" />
    <glyph glyph-name="e" unicode="e" horiz-adv-x="1275" 
d="M993 270h154q-149 -303 -488 -303q-253 0 -410 158t-157 403q0 244 152 399.5t393 155.5q243 0 395 -153.5t152 -394.5q0 -68 -6 -82h-936q18 -152 135 -252.5t289 -100.5q103 0 190 45.5t137 124.5zM242 563h805q-8 163 -117 274t-287 111q-76 0 -141.5 -22.5
t-112.5 -60t-80.5 -87t-50 -104.5t-16.5 -111z" />
    <glyph glyph-name="f" unicode="f" horiz-adv-x="718" 
d="M94 1237q0 135 74 217t197 82h307v-145h-266q-73 0 -112.5 -46t-39.5 -120v-174h334v-146h-334v-905h-160v1237z" />
    <glyph glyph-name="g" unicode="g" horiz-adv-x="1288" 
d="M213 -461v142h442q171 0 274 94t103 272v141q-59 -101 -162.5 -159t-240.5 -58q-237 0 -387 155.5t-150 395.5q0 243 155.5 399t397.5 156q237 0 393 -156.5t156 -398.5v-479q0 -235 -144.5 -369.5t-379.5 -134.5h-457zM647 111q172 0 279.5 114.5t107.5 294.5
q0 181 -108.5 297.5t-282.5 116.5q-168 0 -279.5 -117.5t-111.5 -296.5q0 -177 112.5 -293t282.5 -116z" />
    <glyph glyph-name="h" unicode="h" horiz-adv-x="1294" 
d="M92 0v1460h162v-608q133 229 414 229q248 0 390 -168t142 -448v-465h-158v463q0 211 -100.5 341t-282.5 130q-188 0 -296.5 -136t-108.5 -356v-442h-162z" />
    <glyph glyph-name="i" unicode="i" horiz-adv-x="401" 
d="M92 1325q0 48 30 77.5t79 29.5t78.5 -29.5t29.5 -77.5q0 -49 -29 -77.5t-79 -28.5t-79.5 28.5t-29.5 77.5zM121 0v1051h160v-1051h-160z" />
    <glyph glyph-name="j" unicode="j" horiz-adv-x="403" 
d="M94 1325q0 48 30 77.5t79 29.5q47 0 76.5 -30t29.5 -77q0 -49 -29 -77.5t-77 -28.5q-50 0 -79.5 28.5t-29.5 77.5zM123 1051h160v-1217q0 -131 -74 -213t-201 -82h-160v146h117q73 0 115.5 46t42.5 124v1196z" />
    <glyph glyph-name="k" unicode="k" horiz-adv-x="839" 
d="M92 0v1460h160v-846l354 437h176l-420 -527l424 -524h-184l-350 436v-436h-160z" />
    <glyph glyph-name="l" unicode="l" horiz-adv-x="552" 
d="M487 0h-118q-123 0 -199 81t-76 214v1165h160v-1136q0 -80 43.5 -124t114.5 -44h75v-156z" />
    <glyph glyph-name="m" unicode="m" horiz-adv-x="1849" 
d="M92 0v1051h160v-123q52 69 133.5 111t177.5 42q257 0 363 -204q144 204 393 204q218 0 327 -136.5t109 -373.5v-571h-158v575q0 186 -78.5 273.5t-197.5 87.5h-10q-139 0 -222 -95t-83 -255v-586h-160v586q0 170 -81 260t-206 90q-141 0 -224 -95t-83 -255v-586h-160z
" />
    <glyph glyph-name="n" unicode="n" horiz-adv-x="1294" 
d="M92 0v1051h162v-207q62 111 172.5 175t243.5 64q122 0 223 -48.5t167.5 -133t103 -197.5t36.5 -241v-463h-156v457q0 220 -108 346.5t-277 126.5q-181 0 -293 -134.5t-112 -365.5v-430h-162z" />
    <glyph glyph-name="o" unicode="o" 
d="M1198 526q0 -246 -155.5 -402.5t-397.5 -156.5q-244 0 -398.5 156.5t-154.5 402.5t154.5 401.5t398.5 155.5q242 0 397.5 -156t155.5 -401zM1047 526q0 184 -113 303t-291 119q-173 0 -286 -119.5t-113 -302.5q0 -184 113 -304t286 -120q178 0 291 119.5t113 304.5z" />
    <glyph glyph-name="p" unicode="p" horiz-adv-x="1286" 
d="M92 -461v998q0 156 70 281t195 196t280 71q241 0 398 -158.5t157 -400.5t-154 -399.5t-389 -157.5q-120 0 -224.5 52.5t-172.5 140.5v-623h-160zM641 115q168 0 279.5 116t111.5 295t-111.5 296.5t-279.5 117.5q-170 0 -281.5 -117t-111.5 -297t111 -295.5t282 -115.5z
" />
    <glyph glyph-name="q" unicode="q" horiz-adv-x="1286" 
d="M1194 -459h-160v643q-150 -215 -397 -215q-236 0 -389.5 157t-153.5 400q0 242 157 400.5t398 158.5q237 0 391 -153.5t154 -390.5v-1000zM254 526q0 -179 111 -295t280 -116q172 0 282.5 115.5t110.5 295.5t-110.5 297t-282.5 117q-168 0 -279.5 -117.5t-111.5 -296.5z
" />
    <glyph glyph-name="r" unicode="r" horiz-adv-x="782" 
d="M92 0v1051h158v-146q83 146 305 146h160v-148h-207q-114 0 -185 -78t-71 -241v-584h-160z" />
    <glyph glyph-name="s" unicode="s" horiz-adv-x="1021" 
d="M74 319l153 -2q17 -103 96.5 -162.5t190.5 -64.5h16q108 0 189.5 49.5t81.5 143.5v8q-1 35 -21 62.5t-50.5 45t-77.5 32.5t-90.5 25t-101.5 21q-15 3 -22 4q-348 64 -348 291v8q0 64 26 116.5t68 86.5t97.5 57t112 33t114.5 10q172 -5 286 -78t146 -208h-154
q-17 58 -65 96t-100 51.5t-109 13.5h-16q-37 0 -77 -8.5t-82 -26.5t-69.5 -54.5t-29.5 -84.5v-4q0 -50 38.5 -84.5t100 -53.5t136 -35t149.5 -36.5t138 -50.5t104 -85t44 -132v-10q0 -107 -61 -182.5t-158 -109.5t-221 -34q-179 8 -298 99t-136 253z" />
    <glyph glyph-name="t" unicode="t" horiz-adv-x="669" 
d="M94 299v1161h160v-409h348v-146h-348v-594q0 -72 40 -119t112 -47h196v-145h-237q-122 0 -196.5 83t-74.5 216z" />
    <glyph glyph-name="u" unicode="u" horiz-adv-x="1294" 
d="M1202 1051v-1051h-160v201q-62 -110 -172.5 -175t-242.5 -65q-163 0 -285.5 82.5t-185 222.5t-62.5 316v469h160v-463q0 -227 102 -358.5t279 -131.5q187 0 297 140.5t110 377.5v435h160z" />
    <glyph glyph-name="v" unicode="v" horiz-adv-x="1304" 
d="M651 -16l-557 1067h178l377 -756l383 756h180z" />
    <glyph glyph-name="w" unicode="w" horiz-adv-x="1910" 
d="M649 -16l-555 1067h176l381 -766l301 549l301 -549l385 766h179l-560 -1067l-303 563z" />
    <glyph glyph-name="x" unicode="x" horiz-adv-x="1236" 
d="M94 0l424 524l-424 527h199l325 -396l324 396h201l-424 -527l424 -524h-203l-322 393l-321 -393h-203z" />
    <glyph glyph-name="y" unicode="y" horiz-adv-x="1277" 
d="M193 -315h129q88 0 153 78t131 239l-514 1049h176l412 -852l338 852h168l-426 -1065q-30 -76 -59 -135.5t-67.5 -120t-78.5 -100.5t-91 -65.5t-106 -25.5h-165v146z" />
    <glyph glyph-name="z" unicode="z" horiz-adv-x="1118" 
d="M115 1051h889v-105l-664 -805h684v-141h-930v106l674 803h-653v142z" />
    <glyph glyph-name="braceleft" unicode="{" horiz-adv-x="755" 
d="M662 -371h-193q-103 0 -166 63.5t-63 166.5v514q0 57 -35 92t-92 35h-21v162h21q57 0 92 35t35 91v496q0 104 63 166.5t166 62.5h193v-120h-123q-64 0 -104 -39.5t-40 -104.5v-477q0 -79 -49 -131t-127 -57l-20 -2l20 -2q78 -5 127 -57.5t49 -131.5v-497q0 -65 40 -104.5
t104 -39.5h123v-121z" />
    <glyph glyph-name="bar" unicode="|" horiz-adv-x="329" 
d="M92 -371v1884h146v-1884h-146z" />
    <glyph glyph-name="braceright" unicode="}" horiz-adv-x="755" 
d="M285 -371h-193v121h123q66 0 104.5 39t38.5 105v497q0 80 49 132.5t130 56.5l20 2l-20 2q-81 4 -130 56t-49 132v477q0 66 -38.5 105t-104.5 39h-123v120h193q104 0 166.5 -62.5t62.5 -166.5v-496q0 -56 35 -91t92 -35h21v-162h-21q-57 0 -92 -35t-35 -92v-514
q0 -103 -62.5 -166.5t-166.5 -63.5z" />
    <glyph glyph-name="asciitilde" unicode="~" horiz-adv-x="1443" 
d="M440 801q66 0 147.5 -33.5t145 -73t138 -73t128.5 -33.5q67 0 131 45t101 119h119q-109 -306 -359 -306q-64 0 -144.5 33.5t-144.5 73t-140 73t-132 33.5q-71 0 -125 -37t-90 -126h-121q35 144 132 224.5t214 80.5z" />
    <glyph glyph-name="exclamdown" unicode="&#xa1;" horiz-adv-x="405" 
d="M311 1135q0 -49 -30 -78t-78 -29q-50 0 -79.5 29t-29.5 78q0 47 30 76.5t79 29.5q47 0 77.5 -29.5t30.5 -76.5zM252 883l41 -1133h-180l43 1133h96z" />
    <glyph glyph-name="cent" unicode="&#xa2;" horiz-adv-x="1243" 
d="M555 -236v211q-207 25 -335 178t-128 373q0 219 128.5 369t334.5 180v189h145v-185q157 -12 278.5 -110t170.5 -256h-158q-40 109 -136 170t-210 61q-116 0 -207.5 -56.5t-140.5 -150.5t-49 -207q0 -174 109.5 -299t287.5 -125q113 0 212 63t134 171h158
q-40 -159 -164 -255t-285 -114v-207h-145z" />
    <glyph glyph-name="sterling" unicode="&#xa3;" horiz-adv-x="1216" 
d="M729 1354q-106 0 -177 -80.5t-71 -204.5v-285h514v-108h-518q-12 -241 -68 -369.5t-153 -171.5h866v-135h-1030v176q49 9 86.5 38t68 85t47.5 150.5t21 226.5h-202v108h204v287q0 188 112 306t288 118q184 0 294.5 -114.5t110.5 -286.5v-13h-143q0 118 -71 195.5
t-179 77.5z" />
    <glyph glyph-name="currency" unicode="&#xa4;" horiz-adv-x="1015" 
d="M94 324l150 151q-49 81 -49 176q0 86 49 176l-150 154l88 70l146 -144q85 54 178 54q95 0 180 -54l148 144l86 -70l-150 -154q51 -85 51 -176q0 -96 -51 -176l150 -153l-86 -70l-148 143q-86 -55 -176 -55q-96 0 -182 55l-146 -143zM508 866q-94 0 -145.5 -63t-51.5 -152
q0 -90 51.5 -153.5t145.5 -63.5t144 64t50 151q0 93 -49.5 155t-144.5 62z" />
    <glyph glyph-name="yen" unicode="&#xa5;" horiz-adv-x="1517" 
d="M678 0v178h-399v127h399v123h-399v127h344l-529 905h178l488 -842l485 842h176l-528 -905h346v-127h-401v-123h401v-127h-401v-178h-160z" />
    <glyph glyph-name="brokenbar" unicode="&#xa6;" horiz-adv-x="348" 
d="M92 889v715h162v-715h-162zM92 -143v714h162v-714h-162z" />
    <glyph glyph-name="section" unicode="&#xa7;" horiz-adv-x="1169" 
d="M582 1444q97 0 183 -34t149.5 -107.5t74.5 -174.5h-131q0 80 -80.5 141.5t-195.5 61.5q-135 0 -206 -58t-71 -163q0 -56 26.5 -95.5t71 -61.5t102.5 -37t122 -25.5t128 -21.5t122 -30.5t102.5 -48t71 -78t26.5 -116.5q0 -98 -70.5 -169.5t-170.5 -98.5
q85 -32 138.5 -100.5t53.5 -172.5q0 -165 -124.5 -268.5t-323.5 -103.5q-114 0 -207.5 37t-153.5 114.5t-63 183.5h133q5 -91 85.5 -155t211.5 -64q127 0 209 66.5t82 169.5q-1 38 -13.5 68.5t-31 52.5t-50.5 39.5t-61.5 28t-74 20t-78 14t-83.5 10.5q-66 7 -116.5 16.5
t-104.5 30.5t-89 51t-58 78t-23 111q0 101 69 172.5t179 97.5q-83 34 -134.5 104.5t-51.5 166.5q0 153 115.5 250.5t310.5 97.5zM508 778q-128 -6 -199 -59t-71 -135q1 -34 13.5 -61.5t30 -46.5t47.5 -34.5t56 -24t66 -16.5t66.5 -11.5t69 -8.5t62.5 -8q122 4 200.5 61
t78.5 137q0 32 -12.5 58.5t-30.5 45t-49.5 33.5t-58.5 24t-68.5 17t-68.5 11.5t-70 9t-62 8.5z" />
    <glyph glyph-name="dieresis" unicode="&#xa8;" horiz-adv-x="806" 
d="M94 1272q0 43 29 70.5t76 27.5q44 0 73 -27.5t29 -70.5q0 -47 -28.5 -76t-73.5 -29q-47 0 -76 29t-29 76zM506 1272q0 43 28.5 70.5t75.5 27.5q44 0 73.5 -27.5t29.5 -70.5q0 -47 -29 -76t-74 -29q-47 0 -75.5 29t-28.5 76z" />
    <glyph glyph-name="copyright" unicode="&#xa9;" horiz-adv-x="1857" 
d="M92 500q0 176 62.5 329t172.5 262t266 171.5t337 62.5q243 0 433.5 -105.5t296 -293.5t105.5 -426q0 -179 -61.5 -333t-171 -262.5t-265 -170.5t-337.5 -62q-181 0 -337 62t-266 170.5t-172.5 262.5t-62.5 333zM213 500q0 -206 91.5 -370t255.5 -255.5t370 -91.5
q155 0 288.5 53.5t227 148t146.5 227.5t53 288q0 153 -53 285t-146.5 226t-227 147.5t-288.5 53.5q-206 0 -370 -91.5t-255.5 -254t-91.5 -366.5zM1313 307h139q-40 -176 -186 -276.5t-340 -100.5q-120 0 -224.5 43t-178.5 118t-116 180t-42 225q0 243 159 404t402 161
q193 0 340 -102t186 -279h-139q-31 121 -141.5 189.5t-241.5 68.5q-185 0 -305.5 -124t-120.5 -318q0 -192 120.5 -315.5t305.5 -123.5q132 0 242 65.5t141 184.5z" />
    <glyph glyph-name="ordfeminine" unicode="&#xaa;" horiz-adv-x="968" 
d="M485 1456q173 0 281 -109.5t108 -281.5v-369h-124v117q-45 -67 -117.5 -104t-163.5 -37q-166 0 -270.5 110t-104.5 283q0 171 108.5 281t282.5 110zM483 1337q-112 0 -185 -76.5t-73 -195.5q0 -121 72.5 -197.5t185.5 -76.5q115 0 185.5 75.5t70.5 198.5q0 121 -69 196.5
t-187 75.5z" />
    <glyph glyph-name="guillemotleft" unicode="&#xab;" horiz-adv-x="1538" 
d="M92 731l733 469v-149l-512 -320l512 -321v-150zM713 731l733 469v-149l-514 -320l514 -321v-150z" />
    <glyph glyph-name="logicalnot" unicode="&#xac;" horiz-adv-x="1275" 
d="M92 727h1090v-584h-125l2 447h-967v137z" />
    <glyph glyph-name="registered" unicode="&#xae;" horiz-adv-x="1851" 
d="M926 1343q243 0 433 -105t295 -293t105 -427t-105 -427.5t-295 -294t-433 -105.5q-241 0 -431.5 105.5t-296.5 294t-106 427.5q0 175 62 328t171 262.5t265 172t336 62.5zM926 1231q-206 0 -369 -93t-253.5 -255.5t-90.5 -364.5q0 -207 90.5 -370.5t253.5 -255t369 -91.5
q207 0 369.5 91.5t252.5 255t90 370.5q0 202 -89.5 364.5t-253 255.5t-369.5 93zM592 4v1026h371q170 0 264 -80.5t94 -234.5q0 -109 -67.5 -190t-182.5 -107l258 -414h-131l-248 395h-241v-395h-117zM709 502h252q114 0 181.5 58.5t67.5 152.5q0 106 -63.5 160.5
t-185.5 54.5h-252v-426z" />
    <glyph glyph-name="macron" unicode="&#xaf;" horiz-adv-x="821" 
d="M94 1380h635v-110h-635v110z" />
    <glyph glyph-name="degree" unicode="&#xb0;" horiz-adv-x="960" 
d="M866 1065q0 -172 -108.5 -281.5t-278.5 -109.5t-278.5 109.5t-108.5 281.5q0 170 108.5 279.5t278.5 109.5t278.5 -109.5t108.5 -279.5zM760 1065q0 128 -79 211.5t-202 83.5t-201.5 -83.5t-78.5 -211.5q0 -129 78.5 -213t201.5 -84t202 84t79 213z" />
    <glyph glyph-name="plusminus" unicode="&#xb1;" horiz-adv-x="1026" 
d="M92 739v138h350v352h142v-352h348v-138h-348v-350h-142v350h-350zM92 207v125h840v-125h-840z" />
    <glyph glyph-name="twosuperior" unicode="&#xb2;" horiz-adv-x="669" 
d="M336 1438q112 0 169.5 -65.5t57.5 -174.5q0 -188 -278 -430h293v-86h-474v55q56 45 92.5 76t93.5 86t91.5 98.5t61 96t26.5 96.5q0 73 -35 117.5t-104 44.5q-67 0 -104.5 -47.5t-39.5 -124.5h-92q0 118 64 188t178 70z" />
    <glyph glyph-name="threesuperior" unicode="&#xb3;" horiz-adv-x="718" 
d="M360 1436q105 0 174.5 -52.5t69.5 -146.5q0 -61 -44.5 -105.5t-117.5 -58.5q86 -14 135.5 -65t49.5 -131q0 -92 -74.5 -150.5t-187.5 -58.5q-120 0 -195.5 62.5t-75.5 170.5h90q0 -66 47.5 -107.5t126.5 -41.5q73 0 120.5 39.5t47.5 101.5q0 78 -55.5 112.5t-144.5 34.5
v68q91 0 137.5 35t46.5 94q0 50 -42.5 83.5t-109.5 33.5q-65 0 -110 -32t-45 -89h-94q0 96 70.5 149.5t180.5 53.5z" />
    <glyph glyph-name="acute" unicode="&#xb4;" horiz-adv-x="509" 
d="M90 1167l195 322h133l-254 -322h-74z" />
    <glyph glyph-name="paragraph" unicode="&#xb6;" horiz-adv-x="1355" 
d="M1075 -459h-135v1786h-258v-1786h-135v1129q-203 0 -328 106.5t-125 270.5v10q0 173 125 279t328 106h715v-115h-187v-1786z" />
    <glyph glyph-name="periodcentered" unicode="&#xb7;" horiz-adv-x="405" 
d="M94 692q0 47 30 76t79 29q48 0 78 -29t30 -76t-30.5 -77.5t-77.5 -30.5q-49 0 -79 30t-30 78z" />
    <glyph glyph-name="cedilla" unicode="&#xb8;" horiz-adv-x="563" 
d="M375 -291q0 53 -35.5 82t-97.5 29h-121v205h88v-113h37q107 0 165 -54t58 -149q0 -96 -57.5 -150.5t-165.5 -54.5h-152v90h148q63 0 98 29.5t35 85.5z" />
    <glyph glyph-name="onesuperior" unicode="&#xb9;" horiz-adv-x="446" 
d="M94 1255l178 175h82v-748h-98v621l-162 -152v104z" />
    <glyph glyph-name="ordmasculine" unicode="&#xba;" horiz-adv-x="808" 
d="M92 1057q0 167 88 277t223 110q139 0 226.5 -109.5t87.5 -277.5q0 -171 -87 -279t-227 -108q-135 0 -223 108.5t-88 278.5zM199 1057q0 -131 56 -214t148 -83q98 0 153.5 82.5t55.5 214.5q0 128 -58.5 212.5t-150.5 84.5q-88 0 -146 -84.5t-58 -212.5z" />
    <glyph glyph-name="guillemotright" unicode="&#xbb;" horiz-adv-x="1538" 
d="M1446 731l-733 -471v150l512 321l-512 320v149zM825 731l-733 -471v150l514 321l-514 320v149z" />
    <glyph glyph-name="onequarter" unicode="&#xbc;" horiz-adv-x="1210" 
d="M659 260v-6h265v387zM119 1161v103l178 174h82v-748h-100v621zM213 0h-121l881 1339h119zM924 164h-365v110l332 474h131v-494h94v-90h-94v-164h-98v164z" />
    <glyph glyph-name="onehalf" unicode="&#xbd;" horiz-adv-x="1318" 
d="M117 1264l178 174h80v-748h-99v621l-159 -150v103zM94 0l879 1339h121l-879 -1339h-121zM987 756q109 0 167 -66t58 -174q0 -48 -18.5 -99t-43 -90.5t-67.5 -89.5t-71 -78t-76 -73h291v-86h-473v55q67 53 117.5 97.5t113.5 109.5t98 128.5t35 117.5q0 73 -35 117.5
t-104 44.5q-66 0 -103.5 -47.5t-39.5 -124.5h-91q0 119 63.5 188.5t178.5 69.5z" />
    <glyph glyph-name="threequarters" unicode="&#xbe;" horiz-adv-x="1331" 
d="M360 1452q103 0 173.5 -52.5t70.5 -144.5q0 -62 -44.5 -105.5t-119.5 -57.5q89 -18 137 -68t48 -131q0 -92 -73.5 -150.5t-186.5 -58.5q-121 0 -196 62t-75 172h90q0 -67 47.5 -108.5t126.5 -41.5q73 0 120.5 39.5t47.5 101.5q0 75 -56.5 111.5t-143.5 36.5v67
q91 0 138.5 35t47.5 94q0 50 -43 83.5t-109 33.5q-68 0 -112.5 -32t-44.5 -87h-92q0 94 70.5 147.5t178.5 53.5zM213 0l881 1339h118l-878 -1339h-121zM680 164v110l332 474h131v-494h94v-90h-94v-164h-99v164h-364zM780 254h264v387l-264 -381v-6z" />
    <glyph glyph-name="questiondown" unicode="&#xbf;" horiz-adv-x="1243" 
d="M764 1112q0 -47 -29.5 -75.5t-79.5 -28.5q-47 0 -76.5 28.5t-29.5 75.5q0 49 29.5 79t76.5 30q49 0 79 -29.5t30 -79.5zM729 862v-370h-96q-165 0 -266 -88t-101 -232v-8q0 -137 109 -232.5t264 -95.5q144 0 246 94t119 246h147q-16 -154 -91.5 -264t-185 -161.5
t-241.5 -51.5q-242 0 -391.5 135.5t-149.5 335.5q0 195 137 318.5t355 123.5v250h145z" />
    <glyph glyph-name="Agrave" unicode="&#xc0;" horiz-adv-x="1671" 
d="M1198 408l-362 722l-363 -722h725zM412 281l-138 -281h-180l742 1477l743 -1477h-180l-139 281h-848zM678 1898l192 -321h-71l-256 321h135z" />
    <glyph glyph-name="Aacute" unicode="&#xc1;" horiz-adv-x="1671" 
d="M1198 408l-362 722l-363 -722h725zM412 281l-138 -281h-180l742 1477l743 -1477h-180l-139 281h-848zM868 1577h-73l194 321h133z" />
    <glyph glyph-name="Acircumflex" unicode="&#xc2;" horiz-adv-x="1671" 
d="M1198 408l-362 722l-363 -722h725zM412 281l-138 -281h-180l742 1477l743 -1477h-180l-139 281h-848zM788 1579l29 115l-16 135h67l-16 -133l29 -117h-93z" />
    <glyph glyph-name="Atilde" unicode="&#xc3;" horiz-adv-x="1671" 
d="M557 1561h-113q13 90 69.5 144t162.5 54q45 0 87 -15.5t69 -34.5t66 -34.5t79 -15.5q51 0 89 29t44 73h117q-16 -95 -74.5 -150t-163.5 -55q-57 0 -104.5 16t-74.5 34.5t-62 34.5t-70 16q-53 0 -84 -26t-37 -70zM274 0h-180l742 1477l743 -1477h-180l-139 281h-848z
M836 1130l-363 -722h725z" />
    <glyph glyph-name="Adieresis" unicode="&#xc4;" horiz-adv-x="1671" 
d="M526 1681q0 43 29 71t76 28q44 0 73 -28t29 -71q0 -47 -28.5 -75.5t-73.5 -28.5q-47 0 -76 28.5t-29 75.5zM938 1681q0 43 28.5 71t75.5 28q44 0 73.5 -28t29.5 -71q0 -47 -29 -75.5t-74 -28.5q-47 0 -75.5 28.5t-28.5 75.5zM274 0h-180l742 1477l743 -1477h-180
l-139 281h-848zM836 1130l-363 -722h725z" />
    <glyph glyph-name="Aring" unicode="&#xc5;" horiz-adv-x="1671" 
d="M274 0h-180l707 1409q-72 9 -119 59q-59 59 -59 154q0 94 59.5 153.5t153.5 59.5t153.5 -59.5t59.5 -153.5t-60 -154q-50 -50 -119 -59l709 -1409h-180l-139 281h-848zM702 1622q0 -59 38 -97t96 -38t95.5 37.5t37.5 97.5q0 57 -38 95t-95 38t-95.5 -38t-38.5 -95z
M836 1130l-363 -722h725z" />
    <glyph glyph-name="AE" unicode="&#xc6;" horiz-adv-x="2183" 
d="M930 1315l-453 -903h615v903h-162zM272 0h-180l746 1460h1230v-145h-817v-518h736v-142h-736v-510h838v-145h-997v281h-680z" />
    <glyph glyph-name="Ccedilla" unicode="&#xc7;" horiz-adv-x="1671" 
d="M1417 473h158q-32 -148 -130 -262t-232.5 -176t-290.5 -74v-49h36q109 0 166.5 -53t57.5 -148q0 -96 -58 -150.5t-166 -54.5h-151v91h147q63 0 98 28.5t35 83.5t-35.5 84t-97.5 29h-120v135q-162 6 -298 61t-235 152.5t-154 241t-55 319.5q0 233 99.5 410t273 270.5
t395.5 93.5q172 0 320.5 -60t254 -179t140.5 -279h-158q-52 167 -209 271t-342 104q-178 0 -317.5 -79t-217 -223t-77.5 -329q0 -143 47 -261.5t129 -198t194.5 -123.5t241.5 -44q185 0 341.5 102.5t209.5 266.5z" />
    <glyph glyph-name="Egrave" unicode="&#xc8;" horiz-adv-x="1185" 
d="M92 0v1460h977v-145h-817v-518h735v-142h-735v-510h838v-145h-998zM627 1577h-72l-256 321h135z" />
    <glyph glyph-name="Eacute" unicode="&#xc9;" horiz-adv-x="1185" 
d="M92 0v1460h977v-145h-817v-518h735v-142h-735v-510h838v-145h-998zM553 1577l195 321h133l-254 -321h-74z" />
    <glyph glyph-name="Ecircumflex" unicode="&#xca;" horiz-adv-x="1185" 
d="M92 0v1460h977v-145h-817v-518h735v-142h-735v-510h838v-145h-998zM575 1694l-16 135h68l-17 -133l29 -117h-92z" />
    <glyph glyph-name="Edieresis" unicode="&#xcb;" horiz-adv-x="1185" 
d="M283 1681q0 43 28.5 71t75.5 28q44 0 73 -28t29 -71q0 -47 -28.5 -75.5t-73.5 -28.5q-47 0 -75.5 28.5t-28.5 75.5zM694 1681q0 43 29 71t76 28q44 0 73 -28t29 -71q0 -47 -28.5 -75.5t-73.5 -28.5q-47 0 -76 28.5t-29 75.5zM92 0v1460h977v-145h-817v-518h735v-142h-735
v-510h838v-145h-998z" />
    <glyph glyph-name="Igrave" unicode="&#xcc;" horiz-adv-x="348" 
d="M94 0v1460h160v-1460h-160zM207 1577h-72l-256 321h135z" />
    <glyph glyph-name="Iacute" unicode="&#xcd;" horiz-adv-x="348" 
d="M94 0v1460h160v-1460h-160zM135 1577l195 321h133l-254 -321h-74z" />
    <glyph glyph-name="Icircumflex" unicode="&#xce;" horiz-adv-x="348" 
d="M94 0v1460h160v-1460h-160zM156 1694l-17 135h68l-17 -133l29 -117h-92z" />
    <glyph glyph-name="Idieresis" unicode="&#xcf;" horiz-adv-x="348" 
d="M-137 1681q0 43 28.5 71t75.5 28q44 0 73.5 -28t29.5 -71q0 -47 -29 -75.5t-74 -28.5q-47 0 -75.5 28.5t-28.5 75.5zM274 1681q0 43 29 71t76 28q44 0 73 -28t29 -71q0 -47 -28.5 -75.5t-73.5 -28.5q-47 0 -76 28.5t-29 75.5zM94 0v1460h160v-1460h-160z" />
    <glyph glyph-name="Eth" unicode="&#xd0;" horiz-adv-x="1347" 
d="M289 -2v659h-209v138h209v663l231 2h12q218 0 382.5 -91t252.5 -256t88 -382q0 -216 -87 -379.5t-254 -256t-394 -95.5zM453 145h82q256 0 409.5 161.5t153.5 424.5q0 260 -153.5 422t-409.5 162h-82v-520h239v-138h-239v-512z" />
    <glyph glyph-name="Ntilde" unicode="&#xd1;" horiz-adv-x="1429" 
d="M436 1561h-112q13 90 69 144t162 54q45 0 87 -15.5t69 -34.5t66 -34.5t79 -15.5q51 0 89 29t44 73h117q-16 -95 -74.5 -150t-163.5 -55q-57 0 -104.5 16t-74.5 34.5t-62 34.5t-70 16q-53 0 -84 -26t-37 -70zM92 0v1475l1082 -1139v1124h161v-1474l-1077 1122l-6 -1108
h-160z" />
    <glyph glyph-name="Ograve" unicode="&#xd2;" horiz-adv-x="1724" 
d="M897 1577h-72l-256 321h136zM92 729q0 171 58.5 316t160.5 245t244.5 156.5t306.5 56.5q218 0 392.5 -96t275 -273t100.5 -403q0 -172 -59 -317.5t-161.5 -245t-244 -155.5t-303.5 -56q-217 0 -392 95t-276.5 272t-101.5 405zM862 102h6v0h2h2q88 0 173.5 25.5t162 78
t134.5 126t92 176.5t34 223q0 89 -22.5 177t-71.5 169.5t-119 143.5t-172 99.5t-223 37.5q-89 0 -175.5 -25t-164.5 -76.5t-137 -124.5t-94 -176.5t-35 -224.5q0 -149 52 -271t138.5 -198.5t194 -118t223.5 -41.5z" />
    <glyph glyph-name="Oacute" unicode="&#xd3;" horiz-adv-x="1724" 
d="M823 1577l195 321h133l-254 -321h-74zM92 729q0 171 58.5 316t160.5 245t244.5 156.5t306.5 56.5q218 0 392.5 -96t275 -273t100.5 -403q0 -172 -59 -317.5t-161.5 -245t-244 -155.5t-303.5 -56q-217 0 -392 95t-276.5 272t-101.5 405zM862 102h6v0h2h2q88 0 173.5 25.5
t162 78t134.5 126t92 176.5t34 223q0 89 -22.5 177t-71.5 169.5t-119 143.5t-172 99.5t-223 37.5q-89 0 -175.5 -25t-164.5 -76.5t-137 -124.5t-94 -176.5t-35 -224.5q0 -149 52 -271t138.5 -198.5t194 -118t223.5 -41.5z" />
    <glyph glyph-name="Ocircumflex" unicode="&#xd4;" horiz-adv-x="1724" 
d="M846 1694l-17 135h68l-16 -133l28 -117h-92zM92 729q0 171 58.5 316t160.5 245t244.5 156.5t306.5 56.5q218 0 392.5 -96t275 -273t100.5 -403q0 -172 -59 -317.5t-161.5 -245t-244 -155.5t-303.5 -56q-217 0 -392 95t-276.5 272t-101.5 405zM862 102h6v0h2h2
q88 0 173.5 25.5t162 78t134.5 126t92 176.5t34 223q0 89 -22.5 177t-71.5 169.5t-119 143.5t-172 99.5t-223 37.5q-89 0 -175.5 -25t-164.5 -76.5t-137 -124.5t-94 -176.5t-35 -224.5q0 -149 52 -271t138.5 -198.5t194 -118t223.5 -41.5z" />
    <glyph glyph-name="Otilde" unicode="&#xd5;" horiz-adv-x="1724" 
d="M584 1561h-113q13 90 69 144t162 54q45 0 87 -15.5t69.5 -34.5t66.5 -34.5t79 -15.5q51 0 89 29t44 73h116q-16 -95 -74 -150t-163 -55q-57 0 -104.5 16t-74.5 34.5t-62 34.5t-70 16q-53 0 -84 -26t-37 -70zM92 729q0 171 58.5 316t160.5 245t244.5 156.5t306.5 56.5
q218 0 392.5 -96t275 -273t100.5 -403q0 -172 -59 -317.5t-161.5 -245t-244 -155.5t-303.5 -56q-217 0 -392 95t-276.5 272t-101.5 405zM862 102h6v0h2h2q88 0 173.5 25.5t162 78t134.5 126t92 176.5t34 223q0 89 -22.5 177t-71.5 169.5t-119 143.5t-172 99.5t-223 37.5
q-89 0 -175.5 -25t-164.5 -76.5t-137 -124.5t-94 -176.5t-35 -224.5q0 -149 52 -271t138.5 -198.5t194 -118t223.5 -41.5z" />
    <glyph glyph-name="Odieresis" unicode="&#xd6;" horiz-adv-x="1724" 
d="M553 1681q0 43 28.5 71t75.5 28q44 0 73.5 -28t29.5 -71q0 -47 -29 -75.5t-74 -28.5q-47 0 -75.5 28.5t-28.5 75.5zM965 1681q0 43 28.5 71t75.5 28q44 0 73 -28t29 -71q0 -47 -28.5 -75.5t-73.5 -28.5q-47 0 -75.5 28.5t-28.5 75.5zM92 729q0 171 58.5 316t160.5 245
t244.5 156.5t306.5 56.5q218 0 392.5 -96t275 -273t100.5 -403q0 -172 -59 -317.5t-161.5 -245t-244 -155.5t-303.5 -56q-217 0 -392 95t-276.5 272t-101.5 405zM862 102h6v0h2h2q88 0 173.5 25.5t162 78t134.5 126t92 176.5t34 223q0 89 -22.5 177t-71.5 169.5t-119 143.5
t-172 99.5t-223 37.5q-89 0 -175.5 -25t-164.5 -76.5t-137 -124.5t-94 -176.5t-35 -224.5q0 -149 52 -271t138.5 -198.5t194 -118t223.5 -41.5z" />
    <glyph glyph-name="multiply" unicode="&#xd7;" horiz-adv-x="882" 
d="M193 387l-97 96l248 246l-250 250l101 100l247 -248l248 246l96 -96l-247 -246l249 -250l-100 -100l-248 250z" />
    <glyph glyph-name="Oslash" unicode="&#xd8;" horiz-adv-x="1722" 
d="M92 729q0 171 58.5 316t160.5 245t244.5 156.5t306.5 56.5q194 0 375 -88l61 115h125l-92 -172q142 -105 220.5 -265.5t78.5 -361.5q0 -172 -58.5 -317.5t-161 -245t-244.5 -155.5t-306 -56q-135 0 -256 41l-74 -135h-124l94 176q-188 92 -298 272t-110 418zM571 174
l596 1110q-132 74 -307 74q-89 0 -175.5 -25t-164.5 -76.5t-137 -124.5t-94 -176.5t-35 -224.5q0 -196 87.5 -340t229.5 -217zM862 102q116 0 223 41t193 118t138 199t52 271q0 132 -55 265t-158 218l-581 -1081q78 -31 188 -31z" />
    <glyph glyph-name="Ugrave" unicode="&#xd9;" horiz-adv-x="1361" 
d="M717 1577h-72l-256 321h135zM92 1460h160v-870q0 -214 119.5 -350t308.5 -136q188 0 307 133t119 353v870h160v-866q0 -184 -73.5 -329t-207 -226.5t-305.5 -81.5q-260 0 -424 179t-164 458v866z" />
    <glyph glyph-name="Uacute" unicode="&#xda;" horiz-adv-x="1361" 
d="M641 1577l195 321h133l-254 -321h-74zM92 1460h160v-870q0 -214 119.5 -350t308.5 -136q188 0 307 133t119 353v870h160v-866q0 -184 -73.5 -329t-207 -226.5t-305.5 -81.5q-260 0 -424 179t-164 458v866z" />
    <glyph glyph-name="Ucircumflex" unicode="&#xdb;" horiz-adv-x="1361" 
d="M664 1694l-17 135h68l-17 -133l29 -117h-92zM92 1460h160v-870q0 -214 119.5 -350t308.5 -136q188 0 307 133t119 353v870h160v-866q0 -184 -73.5 -329t-207 -226.5t-305.5 -81.5q-260 0 -424 179t-164 458v866z" />
    <glyph glyph-name="Udieresis" unicode="&#xdc;" horiz-adv-x="1361" 
d="M373 1681q0 43 28.5 71t75.5 28q44 0 73.5 -28t29.5 -71q0 -47 -29 -75.5t-74 -28.5q-47 0 -75.5 28.5t-28.5 75.5zM784 1681q0 43 29 71t76 28q44 0 73 -28t29 -71q0 -47 -28.5 -75.5t-73.5 -28.5q-47 0 -76 28.5t-29 75.5zM92 1460h160v-870q0 -214 119.5 -350
t308.5 -136q188 0 307 133t119 353v870h160v-866q0 -184 -73.5 -329t-207 -226.5t-305.5 -81.5q-260 0 -424 179t-164 458v866z" />
    <glyph glyph-name="Yacute" unicode="&#xdd;" horiz-adv-x="1515" 
d="M678 0v449l-584 1011h178l488 -856l485 856h176l-583 -1011v-449h-160zM643 1577l195 321h133l-254 -321h-74z" />
    <glyph glyph-name="Thorn" unicode="&#xde;" horiz-adv-x="1161" 
d="M92 -276v1566h160v-305h274q86 0 163.5 -16t147 -51.5t120.5 -87.5t80.5 -129.5t29.5 -172.5q0 -92 -26.5 -168t-74 -129.5t-114 -90.5t-145 -54.5t-168.5 -17.5h-287v-344h-160zM528 213q75 0 142 16.5t124.5 52t91.5 98t34 146.5q0 68 -23 123t-60.5 90t-89.5 58.5
t-106 33t-113 9.5h-276v-627h276z" />
    <glyph glyph-name="germandbls" unicode="&#xdf;" horiz-adv-x="1318" 
d="M256 0h-162v999q0 521 488 521q79 0 147.5 -10.5t134.5 -37t113 -67.5t75.5 -106.5t28.5 -149.5q0 -116 -83.5 -206.5t-202.5 -119.5q115 -14 210 -64t156.5 -141t61.5 -206q0 -126 -60.5 -220.5t-161.5 -143t-227 -48.5h-393v133h356q132 0 222 82t90 213
q0 72 -33 130.5t-84.5 95t-119.5 60.5t-133.5 34t-131.5 10h-82v119h88q61 0 121.5 13.5t116 41t90 78t34.5 116.5q0 258 -337 258q-90 0 -153.5 -27t-100 -79t-52.5 -119t-16 -155v-1004z" />
    <glyph glyph-name="agrave" unicode="&#xe0;" 
d="M680 1167h-72l-256 322h135zM643 1083q250 0 402.5 -156t152.5 -401v-526h-156v186q-64 -104 -169.5 -161.5t-239.5 -57.5q-239 0 -390 155.5t-151 403.5q0 242 155 399.5t396 157.5zM645 938q-170 0 -281.5 -117t-111.5 -295q0 -180 111.5 -296.5t281.5 -116.5
t278.5 114t108.5 287v2v4v2v4v2v4v3v4q0 170 -105.5 284.5t-281.5 114.5z" />
    <glyph glyph-name="aacute" unicode="&#xe1;" 
d="M606 1167l195 322h133l-254 -322h-74zM643 1083q250 0 402.5 -156t152.5 -401v-526h-156v186q-64 -104 -169.5 -161.5t-239.5 -57.5q-239 0 -390 155.5t-151 403.5q0 242 155 399.5t396 157.5zM645 938q-170 0 -281.5 -117t-111.5 -295q0 -180 111.5 -296.5t281.5 -116.5
t278.5 114t108.5 287v2v4v2v4v2v4v3v4q0 170 -105.5 284.5t-281.5 114.5z" />
    <glyph glyph-name="acircumflex" unicode="&#xe2;" 
d="M629 1284l-17 135h68l-16 -133l28 -117h-92zM643 1083q250 0 402.5 -156t152.5 -401v-526h-156v186q-64 -104 -169.5 -161.5t-239.5 -57.5q-239 0 -390 155.5t-151 403.5q0 242 155 399.5t396 157.5zM645 938q-170 0 -281.5 -117t-111.5 -295q0 -180 111.5 -296.5
t281.5 -116.5t278.5 114t108.5 287v2v4v2v4v2v4v3v4q0 170 -105.5 284.5t-281.5 114.5z" />
    <glyph glyph-name="atilde" unicode="&#xe3;" 
d="M369 1151h-113q13 91 69 145t162 54q45 0 87 -16t69 -34.5t66 -34.5t79 -16q51 0 89.5 29.5t44.5 73.5h116q-16 -95 -74 -150t-163 -55q-57 0 -104.5 15.5t-75 34.5t-62.5 34.5t-70 15.5q-52 0 -83 -26t-37 -70zM643 1083q250 0 402.5 -156t152.5 -401v-526h-156v186
q-64 -104 -169.5 -161.5t-239.5 -57.5q-239 0 -390 155.5t-151 403.5q0 242 155 399.5t396 157.5zM645 938q-170 0 -281.5 -117t-111.5 -295q0 -180 111.5 -296.5t281.5 -116.5t278.5 114t108.5 287v2v4v2v4v2v4v3v4q0 170 -105.5 284.5t-281.5 114.5z" />
    <glyph glyph-name="adieresis" unicode="&#xe4;" 
d="M336 1272q0 43 28.5 70.5t75.5 27.5q44 0 73.5 -27.5t29.5 -70.5q0 -47 -29 -76t-74 -29q-47 0 -75.5 29t-28.5 76zM748 1272q0 43 28.5 70.5t75.5 27.5q44 0 73 -27.5t29 -70.5q0 -47 -28.5 -76t-73.5 -29q-47 0 -75.5 29t-28.5 76zM643 1083q250 0 402.5 -156
t152.5 -401v-526h-156v186q-64 -104 -169.5 -161.5t-239.5 -57.5q-239 0 -390 155.5t-151 403.5q0 242 155 399.5t396 157.5zM645 938q-170 0 -281.5 -117t-111.5 -295q0 -180 111.5 -296.5t281.5 -116.5t278.5 114t108.5 287v2v4v2v4v2v4v3v4q0 170 -105.5 284.5
t-281.5 114.5z" />
    <glyph glyph-name="aring" unicode="&#xe5;" 
d="M434 1237q0 94 59.5 153.5t153.5 59.5t153.5 -59.5t59.5 -153.5q0 -95 -59 -154l-15 -14q27 -5 86 -27q155 -65 240.5 -199t85.5 -317v-526h-156v186q-64 -104 -169.5 -161.5t-239.5 -57.5q-239 0 -390 155.5t-151 403.5q0 181 88.5 316.5t241.5 199.5q59 22 86 27
q-8 6 -14 14q-60 60 -60 154zM514 1237q0 -59 38 -97t95 -38t95 38t38 97q0 57 -38 95t-95 38t-95 -38t-38 -95zM645 938q-170 0 -281.5 -117t-111.5 -295q0 -180 111.5 -296.5t281.5 -116.5t278.5 114t108.5 287v2v4v2v4v2v4v3v4q0 170 -105.5 284.5t-281.5 114.5z" />
    <glyph glyph-name="ae" unicode="&#xe6;" horiz-adv-x="2220" 
d="M643 1083q245 0 399 -157q46 -49 70 -99q37 59 76 101q152 155 393 155q242 0 394.5 -154t152.5 -394q0 -28 -6 -76h-936q12 -145 133 -252t289 -107q103 0 190 45.5t137 124.5h156q-149 -303 -487 -303q-252 0 -412 160l-6 6v-133h-144v186q-64 -104 -169.5 -161.5
t-239.5 -57.5q-240 0 -390.5 155t-150.5 404q0 242 155 399.5t396 157.5zM1186 563h803q-8 163 -116.5 274t-285.5 111q-76 0 -141.5 -22.5t-112.5 -60t-80.5 -87t-50 -104.5t-16.5 -111zM645 938q-171 0 -282 -116.5t-111 -295.5q0 -180 110.5 -296.5t282.5 -116.5
t279.5 113.5t107.5 287.5v12v13q0 170 -104.5 284.5t-282.5 114.5z" />
    <glyph glyph-name="ccedilla" unicode="&#xe7;" horiz-adv-x="1243" 
d="M645 1083q176 0 314 -99t190 -271h-160q-40 109 -135 170t-209 61q-176 0 -286.5 -120.5t-110.5 -293.5q0 -174 109.5 -299t287.5 -125q113 0 212 63t134 171h158q-39 -165 -175.5 -265.5t-303.5 -105.5v-37h37q109 0 166 -52.5t57 -147.5q0 -96 -57.5 -150.5
t-165.5 -54.5h-152v90h145q63 0 98.5 29t35.5 84t-35.5 83.5t-98.5 28.5h-118v127q-219 25 -354.5 177t-135.5 380q0 244 154.5 400.5t398.5 156.5z" />
    <glyph glyph-name="egrave" unicode="&#xe8;" horiz-adv-x="1277" 
d="M674 1167h-72l-256 322h135zM993 270h154q-149 -303 -488 -303q-253 0 -410 158t-157 403q0 244 152 399.5t393 155.5q243 0 395 -153.5t152 -394.5q0 -68 -6 -82h-936q18 -152 135 -252.5t289 -100.5q103 0 190 45.5t137 124.5zM242 563h805q-8 163 -117 274t-287 111
q-76 0 -141.5 -22.5t-112.5 -60t-80.5 -87t-50 -104.5t-16.5 -111z" />
    <glyph glyph-name="eacute" unicode="&#xe9;" horiz-adv-x="1277" 
d="M600 1167l195 322h133l-254 -322h-74zM993 270h154q-149 -303 -488 -303q-253 0 -410 158t-157 403q0 244 152 399.5t393 155.5q243 0 395 -153.5t152 -394.5q0 -68 -6 -82h-936q18 -152 135 -252.5t289 -100.5q103 0 190 45.5t137 124.5zM242 563h805q-8 163 -117 274
t-287 111q-76 0 -141.5 -22.5t-112.5 -60t-80.5 -87t-50 -104.5t-16.5 -111z" />
    <glyph glyph-name="ecircumflex" unicode="&#xea;" horiz-adv-x="1277" 
d="M623 1284l-17 135h68l-17 -133l29 -117h-92zM993 270h154q-149 -303 -488 -303q-253 0 -410 158t-157 403q0 244 152 399.5t393 155.5q243 0 395 -153.5t152 -394.5q0 -68 -6 -82h-936q18 -152 135 -252.5t289 -100.5q103 0 190 45.5t137 124.5zM242 563h805
q-8 163 -117 274t-287 111q-76 0 -141.5 -22.5t-112.5 -60t-80.5 -87t-50 -104.5t-16.5 -111z" />
    <glyph glyph-name="edieresis" unicode="&#xeb;" horiz-adv-x="1277" 
d="M330 1272q0 43 28.5 70.5t75.5 27.5q44 0 73.5 -27.5t29.5 -70.5q0 -47 -29 -76t-74 -29q-47 0 -75.5 29t-28.5 76zM741 1272q0 43 29 70.5t76 27.5q44 0 73 -27.5t29 -70.5q0 -47 -28.5 -76t-73.5 -29q-47 0 -76 29t-29 76zM993 270h154q-149 -303 -488 -303
q-253 0 -410 158t-157 403q0 244 152 399.5t393 155.5q243 0 395 -153.5t152 -394.5q0 -68 -6 -82h-936q18 -152 135 -252.5t289 -100.5q103 0 190 45.5t137 124.5zM242 563h805q-8 163 -117 274t-287 111q-76 0 -141.5 -22.5t-112.5 -60t-80.5 -87t-50 -104.5t-16.5 -111z
" />
    <glyph glyph-name="igrave" unicode="&#xec;" horiz-adv-x="401" 
d="M121 0v1051h160v-1051h-160zM233 1167h-71l-256 322h135z" />
    <glyph glyph-name="iacute" unicode="&#xed;" horiz-adv-x="401" 
d="M121 0v1051h160v-1051h-160zM162 1167l194 322h133l-253 -322h-74z" />
    <glyph glyph-name="icircumflex" unicode="&#xee;" horiz-adv-x="401" 
d="M121 0v1051h160v-1051h-160zM182 1284l-16 135h67l-16 -133l29 -117h-92z" />
    <glyph glyph-name="idieresis" unicode="&#xef;" horiz-adv-x="399" 
d="M-111 1272q0 43 29 70.5t76 27.5q44 0 73 -27.5t29 -70.5q0 -47 -28.5 -76t-73.5 -29q-47 0 -76 29t-29 76zM301 1272q0 43 29 70.5t76 27.5q44 0 73 -27.5t29 -70.5q0 -47 -28.5 -76t-73.5 -29q-47 0 -76 29t-29 76zM121 0v1051h160v-1051h-160z" />
    <glyph glyph-name="eth" unicode="&#xf0;" horiz-adv-x="1144" 
d="M371 1477l47 79q155 -68 248 -143l219 137l51 -82l-195 -118q161 -161 235.5 -355.5t74.5 -431.5q0 -117 -28.5 -219.5t-85 -185t-151.5 -130.5t-217 -48q-222 0 -349.5 132t-127.5 355q0 219 124 360.5t339 141.5q232 0 336 -135q-30 129 -94.5 249t-155.5 205
l-244 -147l-51 80l223 135q-81 68 -198 121zM578 856q-83 0 -148 -30.5t-105.5 -84t-61.5 -123t-21 -149.5q0 -110 34 -193t109 -133.5t184 -50.5q78 0 138.5 29.5t97 76t59 111.5t31 128.5t8.5 135.5q0 91 -46 156.5t-118 96t-161 30.5z" />
    <glyph glyph-name="ntilde" unicode="&#xf1;" horiz-adv-x="1296" 
d="M371 1151h-113q13 91 69 145t162 54q45 0 87 -16t69.5 -34.5t66.5 -34.5t79 -16q51 0 89 29.5t44 73.5h116q-16 -95 -74 -150t-163 -55q-57 0 -104.5 15.5t-74.5 34.5t-62 34.5t-70 15.5q-53 0 -84 -26t-37 -70zM92 0v1051h162v-207q62 111 172.5 175t243.5 64
q122 0 223 -48.5t167.5 -133t103 -197.5t36.5 -241v-463h-156v457q0 220 -108 346.5t-277 126.5q-181 0 -293 -134.5t-112 -365.5v-430h-162z" />
    <glyph glyph-name="ograve" unicode="&#xf2;" 
d="M682 1167h-72l-256 322h135zM1198 526q0 -246 -155.5 -402.5t-397.5 -156.5q-244 0 -398.5 156.5t-154.5 402.5t154.5 401.5t398.5 155.5q242 0 397.5 -156t155.5 -401zM1047 526q0 184 -113 303t-291 119q-173 0 -286 -119.5t-113 -302.5q0 -184 113 -304t286 -120
q178 0 291 119.5t113 304.5z" />
    <glyph glyph-name="oacute" unicode="&#xf3;" 
d="M606 1167l195 322h133l-254 -322h-74zM1198 526q0 -246 -155.5 -402.5t-397.5 -156.5q-244 0 -398.5 156.5t-154.5 402.5t154.5 401.5t398.5 155.5q242 0 397.5 -156t155.5 -401zM1047 526q0 184 -113 303t-291 119q-173 0 -286 -119.5t-113 -302.5q0 -184 113 -304
t286 -120q178 0 291 119.5t113 304.5z" />
    <glyph glyph-name="ocircumflex" unicode="&#xf4;" 
d="M629 1284l-17 135h68l-16 -133l28 -117h-92zM1198 526q0 -246 -155.5 -402.5t-397.5 -156.5q-244 0 -398.5 156.5t-154.5 402.5t154.5 401.5t398.5 155.5q242 0 397.5 -156t155.5 -401zM1047 526q0 184 -113 303t-291 119q-173 0 -286 -119.5t-113 -302.5
q0 -184 113 -304t286 -120q178 0 291 119.5t113 304.5z" />
    <glyph glyph-name="otilde" unicode="&#xf5;" 
d="M369 1151h-113q13 91 69 145t162 54q45 0 87 -16t69 -34.5t66 -34.5t79 -16q51 0 89.5 29.5t44.5 73.5h116q-16 -95 -74 -150t-163 -55q-57 0 -104.5 15.5t-75 34.5t-62.5 34.5t-70 15.5q-52 0 -83 -26t-37 -70zM1198 526q0 -246 -155.5 -402.5t-397.5 -156.5
q-244 0 -398.5 156.5t-154.5 402.5t154.5 401.5t398.5 155.5q242 0 397.5 -156t155.5 -401zM1047 526q0 184 -113 303t-291 119q-173 0 -286 -119.5t-113 -302.5q0 -184 113 -304t286 -120q178 0 291 119.5t113 304.5z" />
    <glyph glyph-name="odieresis" unicode="&#xf6;" 
d="M338 1272q0 43 28.5 70.5t75.5 27.5q44 0 73.5 -27.5t29.5 -70.5q0 -47 -29 -76t-74 -29q-47 0 -75.5 29t-28.5 76zM750 1272q0 43 28.5 70.5t75.5 27.5q44 0 73 -27.5t29 -70.5q0 -47 -28.5 -76t-73.5 -29q-47 0 -75.5 29t-28.5 76zM1198 526q0 -246 -155.5 -402.5
t-397.5 -156.5q-244 0 -398.5 156.5t-154.5 402.5t154.5 401.5t398.5 155.5q242 0 397.5 -156t155.5 -401zM1047 526q0 184 -113 303t-291 119q-173 0 -286 -119.5t-113 -302.5q0 -184 113 -304t286 -120q178 0 291 119.5t113 304.5z" />
    <glyph glyph-name="divide" unicode="&#xf7;" horiz-adv-x="1107" 
d="M457 1139q0 42 27 68t71 26q43 0 70.5 -26.5t27.5 -67.5q0 -44 -27.5 -70.5t-70.5 -26.5q-44 0 -71 26.5t-27 70.5zM94 684v125h922v-125h-922zM457 324q0 43 27 69.5t71 26.5q43 0 70.5 -26.5t27.5 -69.5t-27.5 -70t-70.5 -27q-44 0 -71 27t-27 70z" />
    <glyph glyph-name="oslash" unicode="&#xf8;" 
d="M1198 526q0 -246 -155.5 -402.5t-399.5 -156.5q-110 0 -203 37l-67 -131h-109l88 170q-123 70 -191.5 195.5t-68.5 287.5q0 246 154.5 401.5t396.5 155.5q119 0 219 -41l78 156h111l-101 -199q117 -70 182.5 -193t65.5 -280zM418 172l381 746q-64 30 -156 30
q-173 0 -286 -119.5t-113 -302.5q0 -116 45.5 -207.5t128.5 -146.5zM1047 526q0 108 -43.5 196.5t-120.5 145.5l-377 -739q69 -27 137 -27q178 0 291 119.5t113 304.5z" />
    <glyph glyph-name="ugrave" unicode="&#xf9;" horiz-adv-x="1294" 
d="M684 1167h-72l-256 322h136zM1202 1051v-1051h-160v201q-62 -110 -172.5 -175t-242.5 -65q-163 0 -285.5 82.5t-185 222.5t-62.5 316v469h160v-463q0 -227 102 -358.5t279 -131.5q187 0 297 140.5t110 377.5v435h160z" />
    <glyph glyph-name="uacute" unicode="&#xfa;" horiz-adv-x="1294" 
d="M608 1167l195 322h133l-254 -322h-74zM1202 1051v-1051h-160v201q-62 -110 -172.5 -175t-242.5 -65q-163 0 -285.5 82.5t-185 222.5t-62.5 316v469h160v-463q0 -227 102 -358.5t279 -131.5q187 0 297 140.5t110 377.5v435h160z" />
    <glyph glyph-name="ucircumflex" unicode="&#xfb;" horiz-adv-x="1294" 
d="M631 1284l-17 135h68l-16 -133l28 -117h-92zM1202 1051v-1051h-160v201q-62 -110 -172.5 -175t-242.5 -65q-163 0 -285.5 82.5t-185 222.5t-62.5 316v469h160v-463q0 -227 102 -358.5t279 -131.5q187 0 297 140.5t110 377.5v435h160z" />
    <glyph glyph-name="udieresis" unicode="&#xfc;" horiz-adv-x="1294" 
d="M340 1272q0 43 28.5 70.5t75.5 27.5q44 0 73.5 -27.5t29.5 -70.5q0 -47 -29 -76t-74 -29q-47 0 -75.5 29t-28.5 76zM752 1272q0 43 28.5 70.5t75.5 27.5q44 0 73 -27.5t29 -70.5q0 -47 -28.5 -76t-73.5 -29q-47 0 -75.5 29t-28.5 76zM1202 1051v-1051h-160v201
q-62 -110 -172.5 -175t-242.5 -65q-163 0 -285.5 82.5t-185 222.5t-62.5 316v469h160v-463q0 -227 102 -358.5t279 -131.5q187 0 297 140.5t110 377.5v435h160z" />
    <glyph glyph-name="yacute" unicode="&#xfd;" horiz-adv-x="1277" 
d="M541 1167l194 322h133l-254 -322h-73zM193 -315h129q88 0 153 78t131 239l-514 1049h176l412 -852l338 852h168l-426 -1065q-30 -76 -59 -135.5t-67.5 -120t-78.5 -100.5t-91 -65.5t-106 -25.5h-165v146z" />
    <glyph glyph-name="thorn" unicode="&#xfe;" horiz-adv-x="1286" 
d="M92 -272v1558h160v-391q64 90 163.5 140t221.5 50q241 0 398 -158.5t157 -400.5t-154 -399.5t-389 -157.5q-124 0 -227.5 50t-169.5 143v-434h-160zM641 115q168 0 279.5 116t111.5 295t-111.5 296.5t-279.5 117.5q-170 0 -279.5 -103.5t-113.5 -279.5v-55
q0 -178 111.5 -282.5t281.5 -104.5z" />
    <glyph glyph-name="ydieresis" unicode="&#xff;" horiz-adv-x="1277" 
d="M330 1272q0 43 28.5 70.5t75.5 27.5q44 0 73.5 -27.5t29.5 -70.5q0 -47 -29 -76t-74 -29q-47 0 -75.5 29t-28.5 76zM741 1272q0 43 29 70.5t76 27.5q44 0 73 -27.5t29 -70.5q0 -47 -28.5 -76t-73.5 -29q-47 0 -76 29t-29 76zM193 -315h129q88 0 153 78t131 239l-514 1049
h176l412 -852l338 852h168l-426 -1065q-30 -76 -59 -135.5t-67.5 -120t-78.5 -100.5t-91 -65.5t-106 -25.5h-165v146z" />
    <glyph glyph-name="Dcroat" unicode="&#x110;" horiz-adv-x="1349" 
d="M289 -2v659h-209v138h209v663l231 2h2h4h2h2h2q218 0 382.5 -91t252.5 -256t88 -382q0 -216 -87 -379.5t-254 -256t-394 -95.5zM453 145h82q256 0 409.5 161.5t153.5 424.5q0 260 -153.5 422t-409.5 162h-82v-520h239v-138h-239v-512z" />
    <glyph glyph-name="dcroat" unicode="&#x111;" horiz-adv-x="1286" 
d="M1032 1460h160v-209h188v-110h-188v-631q0 -244 -152 -394.5t-393 -150.5q-239 0 -397 159t-158 400q0 243 149 400t384 157q128 0 232.5 -54t174.5 -153v267h-188v110h188v209zM252 524q5 -182 113 -297.5t280 -115.5t281.5 113t109.5 300v13q0 169 -110.5 284
t-280.5 115q-171 0 -282 -116t-111 -296z" />
    <glyph glyph-name="dotlessi" unicode="&#x131;" horiz-adv-x="401" 
d="M121 0v1051h160v-1051h-160z" />
    <glyph glyph-name="Lslash" unicode="&#x141;" horiz-adv-x="1347" 
d="M344 0v457l-188 -189l-101 101l289 288v803h160v-643l231 230l101 -99l-332 -332v-460h751v-156h-911z" />
    <glyph glyph-name="lslash" unicode="&#x142;" horiz-adv-x="755" 
d="M688 0h-119q-123 0 -198.5 81t-75.5 214v227l-129 -129l-98 99l227 227v741h162v-581l145 145l98 -98l-243 -242v-360q0 -80 42 -124t113 -44h76v-156z" />
    <glyph glyph-name="OE" unicode="&#x152;" horiz-adv-x="2562" 
d="M92 729q0 171 58.5 316t160.5 245t244.5 156.5t306.5 56.5t305 -55t244 -158q30 -30 59 -67v237h977v-145h-817v-518h735v-142h-735v-510h838v-145h-998v238q-23 -32 -59 -68q-105 -103 -245.5 -158t-303.5 -55q-217 0 -392 95t-276.5 272t-101.5 405zM862 102h6v0h2h2
q88 0 173.5 25.5t162 78t134.5 126t92 176.5t34 223q0 89 -22.5 177t-71.5 169.5t-119 143.5t-172 99.5t-223 37.5q-89 0 -175.5 -25t-164.5 -76.5t-137 -124.5t-94 -176.5t-35 -224.5q0 -149 52 -271t138.5 -198.5t194 -118t223.5 -41.5z" />
    <glyph glyph-name="oe" unicode="&#x153;" horiz-adv-x="2232" 
d="M1950 270h153q-149 -303 -487 -303q-250 0 -410 160q-46 44 -82 104q-35 -59 -82 -106q-155 -158 -397 -158q-244 0 -398.5 156.5t-154.5 402.5t154.5 401.5t398.5 155.5q242 0 397 -155q41 -41 80 -107q39 66 80 107q146 155 391 155q243 0 395 -153.5t152 -394.5
q0 -68 -6 -82h-936q18 -152 135 -252.5t289 -100.5q103 0 190.5 45.5t137.5 124.5zM1047 526q0 184 -113 303t-291 119q-173 0 -286 -119.5t-113 -302.5q0 -184 113 -304t286 -120q178 0 291 119.5t113 304.5zM1198 563h805q-8 163 -117 274t-287 111q-76 0 -141.5 -22.5
t-112.5 -60t-80.5 -87t-50 -104.5t-16.5 -111z" />
    <glyph glyph-name="Scaron" unicode="&#x160;" horiz-adv-x="1300" 
d="M684 1579h-68l17 135l-29 115h92l-28 -117zM92 377h168q12 -121 130.5 -202t264.5 -81q74 0 139.5 15t122 47t90 90t33.5 135q0 69 -32.5 119t-87 79t-125 49t-149 35.5t-157 32.5t-149 45.5t-125 69.5t-87 109t-32.5 159q0 103 45 186t121 134.5t173 78.5t206 27
q226 0 378 -118t177 -304h-166q-20 128 -129.5 207.5t-253.5 79.5q-97 0 -183 -29t-145 -93.5t-59 -151.5q0 -70 32.5 -120.5t87 -79.5t125 -49.5t149 -36t157 -32.5t149 -44.5t125 -67t87 -105.5t32.5 -155q0 -115 -44 -204t-120 -142t-171.5 -80t-206.5 -27
q-233 0 -385 115.5t-185 308.5z" />
    <glyph glyph-name="scaron" unicode="&#x161;" horiz-adv-x="1019" 
d="M545 1169h-68l17 136l-29 114h92l-29 -116zM74 319l153 -2q17 -103 96.5 -162.5t190.5 -64.5h2h6h2h2h2h2q108 0 189.5 49.5t81.5 143.5v2v2v2v2v0q-1 35 -21 62.5t-50.5 45t-77.5 32.5t-90.5 25t-101.5 21q-15 3 -22 4q-348 64 -348 291v2v2v0v2v2q0 64 26 116.5
t68 86.5t97.5 57t112 33t114.5 10q172 -5 286 -78t146 -208h-154q-17 58 -65 96t-100 51.5t-109 13.5h-2h-6h-2h-2h-2h-2q-37 0 -77 -8.5t-82 -26.5t-69.5 -54.5t-29.5 -84.5v-2v0v0v-2q0 -50 38.5 -84.5t100 -53.5t136 -35t149.5 -36.5t138 -50.5t104 -85t44 -132v-2v-2v-2
v-2v0v-2q0 -107 -61 -182.5t-158 -109.5t-221 -34q-179 8 -298 99t-136 253z" />
    <glyph glyph-name="Ydieresis" unicode="&#x178;" horiz-adv-x="1515" 
d="M449 1681q0 43 28.5 71t75.5 28q44 0 73 -28t29 -71q0 -47 -28.5 -75.5t-73.5 -28.5q-47 0 -75.5 28.5t-28.5 75.5zM860 1681q0 43 29 71t76 28q44 0 73 -28t29 -71q0 -47 -28.5 -75.5t-73.5 -28.5q-47 0 -76 28.5t-29 75.5zM678 0v449l-584 1011h178l488 -856l485 856
h176l-583 -1011v-449h-160z" />
    <glyph glyph-name="Zcaron" unicode="&#x17d;" horiz-adv-x="1357" 
d="M92 0l907 1315h-862v145h1127l-895 -1315h819v-145h-1096zM713 1579h-68l17 135l-29 115h92l-29 -117z" />
    <glyph glyph-name="zcaron" unicode="&#x17e;" horiz-adv-x="1118" 
d="M115 1051h889v-105l-664 -805h684v-141h-930v106l674 803h-653v142zM594 1169h-68l17 136l-29 114h92l-28 -116z" />
    <glyph glyph-name="florin" unicode="&#x192;" horiz-adv-x="1067" 
d="M219 -215h-127l43 135h88q69 0 99 37t45 117l133 768h-191l21 114h188l43 242q24 128 89.5 195t185.5 67h137l-43 -129h-84q-69 0 -102 -38t-48 -113l-41 -224h230l-23 -114h-223l-139 -791q-22 -129 -86.5 -197.5t-194.5 -68.5z" />
    <glyph glyph-name="circumflex" unicode="&#x2c6;" horiz-adv-x="673" 
d="M319 1284l-16 135h68l-17 -133l29 -117h-92z" />
    <glyph glyph-name="caron" unicode="&#x2c7;" horiz-adv-x="673" 
d="M371 1169h-68l16 136l-28 114h92l-29 -116z" />
    <glyph glyph-name="breve" unicode="&#x2d8;" horiz-adv-x="718" 
d="M92 1421h107q13 -74 55 -113.5t104 -39.5q63 0 106 39.5t56 113.5h107q-17 -119 -88 -186.5t-181 -67.5q-108 0 -178.5 67.5t-87.5 186.5z" />
    <glyph glyph-name="dotaccent" unicode="&#x2d9;" horiz-adv-x="393" 
d="M92 1268q0 43 29 70.5t76 27.5t74.5 -27.5t27.5 -70.5q0 -47 -27.5 -75t-74.5 -28t-76 28t-29 75z" />
    <glyph glyph-name="ring" unicode="&#x2da;" horiz-adv-x="614" 
d="M94 1233q0 94 59.5 153.5t153.5 59.5t153.5 -59.5t59.5 -153.5t-59.5 -154.5t-153.5 -60.5t-153.5 60.5t-59.5 154.5zM174 1233q0 -59 38 -97t95 -38t95 38t38 97q0 57 -38 95t-95 38t-95 -38t-38 -95z" />
    <glyph glyph-name="ogonek" unicode="&#x2db;" horiz-adv-x="604" 
d="M442 29v-29q-243 -65 -243 -215q0 -167 311 -205v-82q-418 0 -418 250q0 112 80 183.5t213 97.5h57z" />
    <glyph glyph-name="tilde" unicode="&#x2dc;" horiz-adv-x="1044" 
d="M244 1151h-113q13 91 69 145t162 54q45 0 87 -16t69.5 -34.5t66.5 -34.5t79 -16q51 0 89 29.5t44 73.5h116q-16 -95 -74 -150t-163 -55q-57 0 -104.5 15.5t-74.5 34.5t-62 34.5t-70 15.5q-53 0 -84 -26t-37 -70z" />
    <glyph glyph-name="hungarumlaut" unicode="&#x2dd;" horiz-adv-x="741" 
d="M92 1167l193 322h133l-256 -322h-70zM326 1167l192 322h131l-256 -322h-67z" />
    <glyph glyph-name="uni03BC" unicode="&#x3bc;" horiz-adv-x="1128" 
d="M606 -2q-110 0 -203 51t-145 135v-460h-160v1327h160v-582q0 -145 86 -235.5t223 -90.5t223.5 95.5t86.5 246.5v566h161v-602q0 -200 -118 -325.5t-314 -125.5z" />
    <glyph glyph-name="endash" unicode="&#x2013;" horiz-adv-x="1353" 
d="M94 711h1168v-142h-1168v142z" />
    <glyph glyph-name="emdash" unicode="&#x2014;" horiz-adv-x="1763" 
d="M94 569v142h1577v-142h-1577z" />
    <glyph glyph-name="quoteleft" unicode="&#x2018;" horiz-adv-x="413" 
d="M319 985q0 -45 -29.5 -74.5t-78.5 -29.5q-54 0 -85.5 39t-31.5 106q0 94 45 170.5t111 122.5l39 -45q-78 -75 -78 -172v-10h10q42 0 70 -29.5t28 -77.5z" />
    <glyph glyph-name="quoteright" unicode="&#x2019;" horiz-adv-x="413" 
d="M94 1214q0 47 30 76t77 29q54 0 86 -39.5t32 -105.5q0 -92 -45.5 -171.5t-109.5 -121.5l-39 43q78 78 78 174v10h-13q-42 0 -69 28.5t-27 77.5z" />
    <glyph glyph-name="quotesinglbase" unicode="&#x201a;" horiz-adv-x="413" 
d="M94 -27q0 47 30 77t77 30q54 0 86 -40t32 -106q0 -92 -45.5 -171t-109.5 -121l-39 43q78 78 78 174v10h-13q-42 0 -69 28.5t-27 75.5z" />
    <glyph glyph-name="quotedblleft" unicode="&#x201c;" horiz-adv-x="749" 
d="M653 985q0 -45 -29.5 -74.5t-76.5 -29.5q-54 0 -86.5 39t-32.5 106q0 94 46 172.5t110 120.5l39 -45q-78 -72 -78 -172v-10h12q42 0 69 -29t27 -78zM319 985q0 -45 -29.5 -74.5t-78.5 -29.5q-54 0 -85.5 39t-31.5 106q0 94 45 170.5t111 122.5l39 -45q-78 -75 -78 -172
v-10h10q42 0 70 -29.5t28 -77.5z" />
    <glyph glyph-name="quotedblright" unicode="&#x201d;" horiz-adv-x="749" 
d="M94 1214q0 47 30 76t77 29q54 0 86 -39.5t32 -105.5q0 -92 -45.5 -171.5t-109.5 -121.5l-39 43q78 78 78 174v10h-13q-42 0 -69 28.5t-27 77.5zM428 1214q0 46 31 75.5t76 29.5q55 0 86.5 -39t31.5 -106q0 -93 -45.5 -173.5t-109.5 -119.5l-37 43q76 76 76 174v10h-11
q-42 0 -70 29t-28 77z" />
    <glyph glyph-name="quotedblbase" unicode="&#x201e;" horiz-adv-x="749" 
d="M94 -23q0 47 30 77t77 30q54 0 86 -39.5t32 -105.5q0 -92 -45.5 -171.5t-109.5 -121.5l-39 43q78 78 78 174v10h-13q-42 0 -69 28.5t-27 75.5zM428 -23q0 47 31 77t76 30q55 0 86.5 -39t31.5 -106q0 -93 -45.5 -173.5t-109.5 -119.5l-37 43q76 76 76 174v10h-11
q-42 0 -70 29t-28 75z" />
    <glyph glyph-name="dagger" unicode="&#x2020;" horiz-adv-x="991" 
d="M94 700v140h320v377h166v-377h317v-140h-317v-1034h-166v1034h-320z" />
    <glyph glyph-name="daggerdbl" unicode="&#x2021;" horiz-adv-x="991" 
d="M94 700v140h320v377h166v-377h317v-140h-317v-346h317v-137h-317v-379h-166v379h-320v137h320v346h-320z" />
    <glyph glyph-name="bullet" unicode="&#x2022;" horiz-adv-x="497" 
d="M92 635q0 68 43.5 110.5t112.5 42.5t113.5 -43t44.5 -110t-44.5 -110.5t-113.5 -43.5t-112.5 43t-43.5 111z" />
    <glyph glyph-name="ellipsis" unicode="&#x2026;" horiz-adv-x="1269" 
d="M94 82q0 49 29.5 77.5t79.5 28.5t79 -28.5t29 -77.5q0 -48 -29.5 -78.5t-78.5 -30.5t-79 30.5t-30 78.5zM526 82q0 49 29.5 77.5t79.5 28.5t79 -28.5t29 -77.5q0 -48 -29.5 -78.5t-78.5 -30.5t-79 30.5t-30 78.5zM961 82q0 49 29 77.5t79 28.5t79.5 -28.5t29.5 -77.5
q0 -48 -30 -78.5t-79 -30.5t-78.5 30.5t-29.5 78.5z" />
    <glyph glyph-name="perthousand" unicode="&#x2030;" horiz-adv-x="2738" 
d="M465 1434q166 0 268.5 -102.5t102.5 -266.5q0 -167 -102.5 -269t-268.5 -102q-165 0 -268 102t-103 269q0 164 103.5 266.5t267.5 102.5zM391 0l881 1339h121l-879 -1339h-123zM465 1319q-116 0 -186 -69.5t-70 -184.5q0 -117 70 -187.5t186 -70.5t186 70.5t70 187.5
q0 115 -70 184.5t-186 69.5zM1397 768q167 0 269.5 -103t102.5 -268q0 -166 -102.5 -268t-269.5 -102q-165 0 -267 102.5t-102 267.5q0 164 102.5 267.5t266.5 103.5zM2271 768q167 0 270 -103t103 -268q0 -166 -103 -268t-270 -102q-164 0 -265 102t-101 268q0 165 101 268
t265 103zM1397 653q-113 0 -183.5 -70.5t-70.5 -185.5t70.5 -185.5t183.5 -70.5q117 0 187.5 70t70.5 186t-70.5 186t-187.5 70zM2271 653q-113 0 -183.5 -70.5t-70.5 -185.5t70.5 -185.5t183.5 -70.5q117 0 187.5 70t70.5 186t-70.5 186t-187.5 70z" />
    <glyph glyph-name="guilsinglleft" unicode="&#x2039;" horiz-adv-x="919" 
d="M92 731l733 469v-149l-512 -320l512 -321v-150z" />
    <glyph glyph-name="guilsinglright" unicode="&#x203a;" horiz-adv-x="919" 
d="M825 731l-733 -471v150l514 321l-514 320v149z" />
    <glyph glyph-name="fraction" unicode="&#x2044;" horiz-adv-x="1259" 
d="M92 0l881 1339h119l-879 -1339h-121z" />
    <glyph glyph-name="uni2074" unicode="&#x2074;" horiz-adv-x="684" 
d="M158 942v-6h266v387zM424 846h-367v110l332 474h133v-494h92v-90h-92v-164h-98v164z" />
    <glyph glyph-name="Euro" unicode="&#x20ac;" horiz-adv-x="1896" 
d="M92 526v109h242q-6 43 -6 84q0 47 6 115h-236v106h254q61 263 260 414t478 151q175 0 320.5 -58.5t248.5 -176.5t143 -283h-153q-49 169 -200.5 272t-344.5 103q-216 0 -371.5 -113.5t-208.5 -308.5h674v-106h-702q-10 -108 2 -199h700v-109h-674q49 -197 204 -309.5
t368 -112.5q197 0 347.5 103.5t205.5 265.5h153q-63 -232 -254 -374t-458 -142q-288 0 -486 150.5t-252 418.5h-260z" />
    <glyph glyph-name="trademark" unicode="&#x2122;" horiz-adv-x="1658" 
d="M319 672v641h-227v106h574v-106h-230v-641h-117zM772 672v753l397 -553l398 553v-753h-117v434l-279 -387l-280 387v-434h-119z" />
    <glyph glyph-name="minus" unicode="&#x2212;" horiz-adv-x="1026" 
d="M92 659v142h840v-142h-840z" />
    <glyph glyph-name="B.alt" horiz-adv-x="1388" 
d="M92 0v1460h715q204 0 323 -101t119 -269q0 -110 -59 -191t-168 -113q125 -35 199.5 -128.5t74.5 -254.5q0 -178 -127 -290.5t-378 -112.5h-699zM252 834h539q137 0 218 63t81 182q0 103 -84.5 169.5t-214.5 66.5h-539v-481zM252 145h532q96 0 164.5 21t107 59t55.5 84
t17 103q0 132 -93.5 214.5t-250.5 82.5h-532v-564z" />
    <glyph glyph-name="D.alt" horiz-adv-x="1150" 
d="M92 -303v2044h254q126 0 238.5 -52t198.5 -146t148.5 -220t95 -277.5t32.5 -314.5q0 -219 -51.5 -409.5t-143.5 -328.5t-226 -217t-292 -79h-254zM256 -156h104q153 0 277 116t194 319t70 452q0 229 -69.5 427t-194.5 317.5t-277 119.5h-104v-1751z" />
    <glyph glyph-name="N.alt" horiz-adv-x="1429" 
d="M92 -303v1778l1082 -1137v1403h161v-1755l-1083 1118v-1407h-160z" />
    <glyph glyph-name="A.alt" horiz-adv-x="1669" 
d="M834 1130l-363 -722h725zM123 -303h-180l891 1780l743 -1477h-180l-140 281h-847z" />
    </font>
</defs>
</svg>
