<?xml version="1.0" standalone="no"?>
<!DOCTYPE svg PUBLIC "-//W3C//DTD SVG 1.1//EN" "http://www.w3.org/Graphics/SVG/1.1/DTD/svg11.dtd" >
<svg xmlns="http://www.w3.org/2000/svg" xmlns:xlink="http://www.w3.org/1999/xlink" version="1.1">
<metadata>
Created by FontForge 20201107 at Sun Sep  7 07:33:07 2025
 By 
Amenti (c) Igor Ovsyannykov 2023  All Rights Reserved
</metadata>
<defs>
<font id="Amenti-Thin" horiz-adv-x="1312" >
  <font-face 
    font-family="Amenti Thin"
    font-weight="100"
    font-stretch="normal"
    units-per-em="2048"
    panose-1="0 0 0 0 0 0 0 0 0 0"
    ascent="1567"
    descent="-481"
    x-height="1051"
    cap-height="1460"
    bbox="-150 -473 2658 1870"
    underline-thickness="102"
    underline-position="-255"
    unicode-range="U+000D-FB02"
  />
<missing-glyph horiz-adv-x="512" 
 />
    <glyph glyph-name="fi" unicode="fi" horiz-adv-x="1075" 
d="M125 1292q0 110 61.5 177t161.5 67h295v-59h-293q-81 0 -122.5 -55.5t-41.5 -135.5v-235h736v-1051h-62v989h-674v-989h-61v1292zM829 1313q0 27 16.5 44t45.5 17t45 -17t16 -44q0 -64 -61 -64q-29 0 -45.5 16.5t-16.5 47.5z" />
    <glyph glyph-name="fl" unicode="fl" horiz-adv-x="1185" 
d="M125 1292q0 110 61.5 177t161.5 67h545v-1311q0 -70 46 -118t118 -48h47v-59h-49q-103 0 -163.5 66.5t-60.5 179.5v1231h-481q-81 0 -122.5 -55.5t-41.5 -135.5v-235h357v-62h-357v-989h-61v1292z" />
    <glyph glyph-name=".notdef" horiz-adv-x="512" 
 />
    <glyph glyph-name="uni0000" horiz-adv-x="0" 
 />
    <glyph glyph-name="uni0000" horiz-adv-x="0" 
 />
    <glyph glyph-name="uni000D" unicode="&#xd;" horiz-adv-x="512" 
 />
    <glyph glyph-name="space" unicode=" " horiz-adv-x="716" 
 />
    <glyph glyph-name="exclam" unicode="!" horiz-adv-x="370" 
d="M160 330l-17 1130h84l-18 -1130h-49zM125 106q0 27 16 43.5t45 16.5q26 0 43 -17t17 -43q0 -30 -16.5 -46.5t-43.5 -16.5q-61 0 -61 63z" />
    <glyph glyph-name="quotedbl" unicode="&#x22;" horiz-adv-x="688" 
d="M123 702v734h63v-734h-63zM502 702v734h63v-734h-63z" />
    <glyph glyph-name="numbersign" unicode="#" horiz-adv-x="1619" 
d="M584 893l-92 -391h587l95 391h-590zM481 449l-108 -449h-56l107 449h-301l12 53h301l92 391h-301l13 53h301l112 488h56l-113 -488h588l114 488h56l-115 -488h258l-12 -53h-256l-94 -391h258l-13 -53h-256l-106 -449h-55l106 449h-588z" />
    <glyph glyph-name="dollar" unicode="$" horiz-adv-x="1269" 
d="M123 346h63q8 -86 75 -161.5t169.5 -120t210.5 -44.5q88 0 163 18t138.5 56.5t100 107t36.5 160.5q0 80 -32.5 139t-87.5 94t-126.5 59t-150.5 41.5t-158 35.5t-150.5 46.5t-126.5 68t-87.5 107t-32.5 157.5q0 120 64.5 208.5t170.5 133t242 49.5v193h62v-193
q190 -12 327 -126t154 -277h-60q-17 144 -146 246t-300 102q-89 0 -170.5 -22t-144.5 -62.5t-100.5 -104.5t-37.5 -141q0 -83 32.5 -143.5t88 -96.5t126.5 -61.5t150 -42.5t158.5 -35t150.5 -45t126.5 -65t88 -102.5t32.5 -151.5q0 -107 -36.5 -188t-102.5 -129t-150 -72.5
t-186 -26.5v-240h-62v242q-184 13 -317 113t-164 274z" />
    <glyph glyph-name="percent" unicode="%" horiz-adv-x="1890" 
d="M489 1419q167 0 268 -100.5t101 -265.5q0 -166 -101 -267.5t-268 -101.5q-164 0 -265 101.5t-101 267.5q0 164 101 265t265 101zM489 1360q-140 0 -224.5 -84t-84.5 -223q0 -141 84.5 -226.5t224.5 -85.5t225 85.5t85 226.5q0 139 -85 223t-225 84zM424 0l887 1339h65
l-887 -1339h-65zM1399 776q166 0 267 -101t101 -265q0 -166 -101 -267.5t-267 -101.5q-165 0 -265 101.5t-100 267.5q0 165 100 265.5t265 100.5zM1399 719q-139 0 -223 -84.5t-84 -224.5t84 -225t223 -85q141 0 226 85t85 225t-85 224.5t-226 84.5z" />
    <glyph glyph-name="ampersand" unicode="&#x26;" horiz-adv-x="1529" 
d="M1106 256l301 -256h-107l-233 203q-102 -120 -227 -187t-258 -67q-65 0 -129.5 16t-124 49t-105 79.5t-73 112t-27.5 140.5q0 83 27 151.5t77 118.5t105 85.5t127 66.5q-44 46 -69.5 77.5t-58 79t-48 98t-15.5 103.5q0 148 112 243t279 95q165 0 270 -87t105 -226
q0 -64 -27 -118.5t-55 -86.5t-101.5 -72t-105 -53t-127.5 -50q-35 -14 -53 -21l490 -451q68 92 112 181.5t80 215.5h64q-74 -257 -205 -440zM332 1124q0 -86 49.5 -166t140.5 -167q26 10 83 31.5t84.5 32.5t75.5 32.5t72 37t56.5 40.5t48.5 50t27.5 58t11.5 70
q0 108 -89 189t-226 81q-144 0 -237 -78t-97 -211zM582 16q234 0 436 228l-518 481q-74 -33 -126.5 -65t-100.5 -76.5t-72.5 -103.5t-24.5 -132q0 -78 37.5 -143t97 -105t130 -62t141.5 -22z" />
    <glyph glyph-name="quotesingle" unicode="'" horiz-adv-x="309" 
d="M123 702v734h63v-734h-63z" />
    <glyph glyph-name="parenleft" unicode="(" horiz-adv-x="620" 
d="M123 563q0 274 88.5 531t234.5 403l50 -49q-137 -149 -218 -389t-81 -496q0 -264 81 -505t218 -382l-50 -45q-146 146 -234.5 402t-88.5 530z" />
    <glyph glyph-name="parenright" unicode=")" horiz-adv-x="620" 
d="M496 563q0 -274 -88.5 -528t-233.5 -404l-51 45q137 137 219 380.5t82 506.5q0 256 -82 497.5t-219 387.5l51 49q145 -148 233.5 -403.5t88.5 -530.5z" />
    <glyph glyph-name="asterisk" unicode="*" horiz-adv-x="1058" 
d="M559 532h-61l-2 398l-340 -199l-33 51l342 201l-342 199l33 51l340 -197l2 398h61v-398l344 197l33 -51l-346 -199l346 -201l-33 -51l-344 199v-398z" />
    <glyph glyph-name="plus" unicode="+" horiz-adv-x="1087" 
d="M123 698v64h387v389h68v-389h385v-64h-385v-387h-68v387h-387z" />
    <glyph glyph-name="comma" unicode="," horiz-adv-x="382" 
d="M125 41q0 61 61 61q32 0 52 -22t20 -57q0 -145 -96 -216l-19 21q56 56 56 141v11q-9 -3 -15 -3q-24 0 -41.5 18t-17.5 46z" />
    <glyph glyph-name="hyphen" unicode="-" horiz-adv-x="1087" 
d="M123 696v68h840v-68h-840z" />
    <glyph glyph-name="period" unicode="." horiz-adv-x="368" 
d="M123 43q0 61 61 61q29 0 45.5 -16t16.5 -45q0 -30 -16.5 -48t-45.5 -18t-45 18t-16 48z" />
    <glyph glyph-name="slash" unicode="/" horiz-adv-x="1153" 
d="M125 -186l838 1646h65l-840 -1646h-63z" />
    <glyph glyph-name="zero" unicode="0" horiz-adv-x="1396" 
d="M125 717q0 365 156.5 565.5t416.5 200.5q261 0 418.5 -200.5t157.5 -565.5q0 -354 -153 -561t-423 -207q-256 0 -414.5 209.5t-158.5 558.5zM176 717q0 -328 143 -521.5t379 -193.5q248 0 385.5 191t137.5 524q0 170 -41 307.5t-112.5 226t-166 136t-203.5 47.5
q-108 0 -202.5 -47.5t-166 -136t-112.5 -226t-41 -307.5z" />
    <glyph glyph-name="one" unicode="1" horiz-adv-x="636" 
d="M123 1137l328 323h61v-1460h-61v1391l-328 -320v66z" />
    <glyph glyph-name="two" unicode="2" horiz-adv-x="1112" 
d="M561 1485q201 0 308.5 -120.5t107.5 -317.5q0 -391 -725 -988h737v-59h-848v41q70 60 102 87.5t108 95.5t118 109t111 111t109 120.5t90 119t76.5 124t45.5 117.5t19 117q0 173 -93 280.5t-266 107.5q-160 0 -267 -111.5t-114 -294.5h-55q0 193 122 327t314 134z" />
    <glyph glyph-name="three" unicode="3" horiz-adv-x="1206" 
d="M604 1483q116 0 213.5 -42t159 -127.5t61.5 -197.5q0 -133 -100.5 -224.5t-267.5 -121.5q189 -19 300 -123.5t111 -277.5q0 -180 -137.5 -300t-337.5 -120q-97 0 -183 27t-153 78t-106 132t-39 181h51q0 -161 119 -262t311 -101q182 0 302 104.5t120 260.5q0 96 -43 168
t-119 113.5t-170.5 62t-206.5 20.5v70q231 0 361.5 89t130.5 234q0 124 -107 212.5t-270 88.5q-166 0 -275.5 -81t-109.5 -218h-53q0 87 38 156.5t101.5 111.5t140 64.5t158.5 22.5z" />
    <glyph glyph-name="four" unicode="4" horiz-adv-x="1259" 
d="M182 442v-12h695v983zM877 371h-752v98l715 991h98v-1030h199v-59h-199v-371h-61v371z" />
    <glyph glyph-name="five" unicode="5" horiz-adv-x="1241" 
d="M244 631h-74l88 829h739v-61h-680l-73 -617q54 86 160 137.5t225 51.5q228 0 357.5 -139t129.5 -383q0 -147 -69 -258t-185.5 -168.5t-261.5 -57.5q-118 0 -228.5 62t-179.5 165.5t-69 217.5h57q12 -155 134 -269t286 -114q198 0 326.5 112.5t128.5 309.5
q0 219 -112 342.5t-312 123.5q-151 0 -263 -83t-124 -201z" />
    <glyph glyph-name="six" unicode="6" horiz-adv-x="1208" 
d="M766 1460h72l-432 -545q101 48 208 48q204 0 337.5 -138t133.5 -352q0 -217 -133.5 -359.5t-337.5 -142.5q-214 0 -352.5 141t-138.5 359q0 80 28 166t72 143zM614 903q-186 0 -309 -122.5t-123 -307.5q0 -191 122.5 -315.5t309.5 -124.5q179 0 294.5 124t115.5 316
q0 185 -116 307.5t-294 122.5z" />
    <glyph glyph-name="seven" unicode="7" horiz-adv-x="1103" 
d="M903 1399h-778v61h854v-39l-590 -1421h-67z" />
    <glyph glyph-name="eight" unicode="8" horiz-adv-x="1255" 
d="M627 1485q195 0 316.5 -103.5t121.5 -259.5v-10q0 -126 -77.5 -216t-203.5 -120q153 -25 248.5 -132.5t100.5 -258.5q0 -183 -142 -301.5t-364 -118.5q-219 0 -361.5 119.5t-142.5 300.5q0 150 96.5 258t249.5 133q-126 28 -205.5 119.5t-79.5 214.5q0 164 124 269.5
t319 105.5zM627 1432q-169 0 -278 -90.5t-109 -225.5q0 -132 108.5 -217.5t278.5 -85.5q171 0 278 85t107 218q-5 137 -110 226.5t-275 89.5zM627 739q-198 0 -323.5 -99.5t-125.5 -254.5q0 -158 125 -259t324 -101t325.5 101.5t126.5 258.5q0 154 -127 254t-325 100z" />
    <glyph glyph-name="nine" unicode="9" horiz-adv-x="1208" 
d="M461 0h-78l420 541q-95 -45 -209 -45q-204 0 -337.5 136.5t-133.5 350.5q0 217 134 359.5t337 142.5q214 0 352.5 -142t138.5 -360q0 -78 -28 -164t-72 -143zM594 553q188 0 310 121t122 309q0 192 -122 316t-310 124q-179 0 -294.5 -124t-115.5 -316
q0 -189 115.5 -309.5t294.5 -120.5z" />
    <glyph glyph-name="colon" unicode=":" horiz-adv-x="368" 
d="M123 649q0 27 16 43.5t45 16.5t45.5 -16.5t16.5 -43.5q0 -30 -16.5 -47.5t-45.5 -17.5t-45 17.5t-16 47.5zM123 43q0 61 61 61q29 0 45.5 -16t16.5 -45q0 -30 -16.5 -48t-45.5 -18t-45 18t-16 48z" />
    <glyph glyph-name="semicolon" unicode=";" horiz-adv-x="382" 
d="M131 649q0 27 16.5 43.5t45.5 16.5q26 0 42.5 -17t16.5 -43q0 -29 -16.5 -47t-42.5 -18q-29 0 -45.5 17.5t-16.5 47.5zM125 41q0 61 61 61q32 0 52 -22t20 -57q0 -145 -96 -216l-19 21q56 56 56 135v17q-9 -3 -15 -3q-24 0 -41.5 18t-17.5 46z" />
    <glyph glyph-name="less" unicode="&#x3c;" horiz-adv-x="1017" 
d="M123 731l770 475v-73l-645 -402l645 -403v-74z" />
    <glyph glyph-name="equal" unicode="=" horiz-adv-x="1210" 
d="M125 424v59h962v-59h-962zM125 946v58h962v-58h-962z" />
    <glyph glyph-name="greater" unicode="&#x3e;" horiz-adv-x="1017" 
d="M893 731l-770 -477v74l647 403l-647 402v73z" />
    <glyph glyph-name="question" unicode="?" horiz-adv-x="1251" 
d="M563 330v317h62q201 0 322.5 103.5t121.5 273.5v8q0 165 -134 281.5t-319 116.5q-173 0 -294.5 -111.5t-141.5 -294.5h-57q12 110 58 198.5t114 144t150 85t169 29.5q116 0 213.5 -37t163 -99.5t101.5 -145.5t36 -175q0 -194 -140 -317t-365 -123v-254h-60zM532 106
q0 27 16.5 43.5t45.5 16.5q26 0 42.5 -17t16.5 -43q0 -30 -16 -46.5t-43 -16.5q-62 0 -62 63z" />
    <glyph glyph-name="at" unicode="@" horiz-adv-x="2041" 
d="M197 532q0 -177 62 -330t171 -261.5t263 -170t333 -61.5h596v-65h-596q-191 0 -358.5 67t-287 184t-188.5 282t-69 355q0 258 107 459t312 316.5t478 115.5q274 0 479 -115.5t311.5 -316.5t106.5 -459q0 -154 -37 -277t-104.5 -193t-153.5 -70q-97 0 -149 73.5t-52 221.5
v22q-37 -97 -151 -161t-252 -64q-196 0 -321.5 127t-125.5 321q0 196 127 323.5t322 127.5t321.5 -128t126.5 -325v-235q0 -118 43 -182t111 -64q101 0 165 138t64 345q0 177 -57.5 328t-163 260.5t-262 171.5t-346.5 62t-346 -62t-260.5 -171.5t-161.5 -260.5t-57 -328z
M1020 924q-165 0 -274 -112t-109 -280q0 -167 108.5 -276t274.5 -109t274.5 109t108.5 276q0 168 -109 280t-274 112z" />
    <glyph glyph-name="A" unicode="A" horiz-adv-x="1726" 
d="M864 1329l-473 -936h944zM195 0h-72l741 1470l740 -1470h-72l-168 336h-1002z" />
    <glyph glyph-name="B" unicode="B" horiz-adv-x="1167" 
d="M123 0v1460h471q177 0 293.5 -100.5t116.5 -255.5q0 -123 -73.5 -210t-197.5 -112q140 -33 224.5 -136t84.5 -261q0 -179 -112 -282t-357 -103h-450zM184 811h412q158 0 253 77t95 224q0 123 -98 206t-250 83h-412v-590zM184 59h391q410 0 410 320q0 167 -115 271
t-295 104h-391v-695z" />
    <glyph glyph-name="C" unicode="C" horiz-adv-x="1701" 
d="M1518 442h59q-35 -147 -142.5 -258t-252 -166t-303.5 -55q-219 0 -389.5 90.5t-268.5 266t-98 411.5q0 235 98 411t268.5 267.5t389.5 91.5q159 0 303.5 -54.5t252.5 -166t142 -260.5h-59q-39 132 -145 231t-234 146t-258 47q-149 0 -277.5 -50.5t-220.5 -142
t-144.5 -225.5t-52.5 -295q0 -215 95 -377.5t251.5 -245.5t348.5 -83q97 0 195.5 27.5t187 78.5t156.5 132t98 179z" />
    <glyph glyph-name="D" unicode="D" horiz-adv-x="1120" 
d="M123 -2v1460l149 2h25q317 0 508.5 -200.5t191.5 -528.5q0 -215 -85 -377.5t-249.5 -255.5t-390.5 -98zM188 59h93q198 0 346.5 86t226.5 238t78 348q0 195 -78 346.5t-226.5 237.5t-346.5 86h-93v-1342z" />
    <glyph glyph-name="E" unicode="E" horiz-adv-x="1230" 
d="M123 0v1460h962v-59h-901v-639h820v-64h-820v-639h922v-59h-983z" />
    <glyph glyph-name="F" unicode="F" horiz-adv-x="1050" 
d="M125 14v1446h803v-59h-742v-639h621v-64h-621v-684h-61z" />
    <glyph glyph-name="G" unicode="G" horiz-adv-x="1751" 
d="M883 737v58h745v-29q0 -235 -88.5 -416t-259 -284t-399.5 -103q-131 0 -248.5 37.5t-209.5 107t-160 163.5t-104 212t-36 248q0 218 96.5 393t270 274t391.5 99q261 0 448 -118.5t268 -358.5h-69q-41 138 -142.5 234.5t-229.5 140t-273 43.5q-151 0 -281.5 -53.5
t-222 -147.5t-143.5 -225t-52 -281q0 -199 89 -360.5t248.5 -254.5t359.5 -93q155 0 285 56.5t216.5 153t134.5 224t48 268.5v12h-682z" />
    <glyph glyph-name="H" unicode="H" horiz-adv-x="1320" 
d="M123 0v1460h61v-698h951v698h63v-1460h-63v698h-951v-698h-61z" />
    <glyph glyph-name="I" unicode="I" horiz-adv-x="311" 
d="M125 0v1460h61v-1460h-61z" />
    <glyph glyph-name="J" unicode="J" horiz-adv-x="856" 
d="M125 0v59h217q328 0 328 406v995h61v-993q0 -124 -29 -215t-82.5 -145.5t-123.5 -80.5t-158 -26h-213z" />
    <glyph glyph-name="K" unicode="K" horiz-adv-x="890" 
d="M123 0v1460h61v-694l541 694h82l-578 -743l580 -717h-86l-539 657v-657h-61z" />
    <glyph glyph-name="L" unicode="L" horiz-adv-x="1128" 
d="M123 0v1460h61v-1401h822v-59h-883z" />
    <glyph glyph-name="M" unicode="M" horiz-adv-x="1755" 
d="M125 0v1473l747 -1283l758 1283v-1473h-63v1237l-690 -1167l-689 1167v-1237h-63z" />
    <glyph glyph-name="N" unicode="N" horiz-adv-x="1419" 
d="M123 0v1468l1110 -1314v1306h61v-1468l-1110 1298v-1290h-61z" />
    <glyph glyph-name="O" unicode="O" horiz-adv-x="1765" 
d="M123 729q0 227 100.5 403t273.5 270.5t386 94.5q214 0 386 -94t272.5 -269.5t100.5 -402.5q0 -228 -102 -404.5t-274 -270t-383 -93.5q-157 0 -296 55t-241.5 153t-162.5 243t-60 315zM883 23h10q95 0 189.5 25.5t184.5 82t159 137t111 200.5t42 263q0 94 -24 190
t-79 189.5t-133.5 166t-198 117t-263.5 44.5q-65 0 -132.5 -12.5t-136 -40.5t-130.5 -68t-116.5 -98t-94 -128.5t-62.5 -163t-23 -196.5q0 -143 42.5 -263t112.5 -200.5t161.5 -137t187.5 -82t193 -25.5z" />
    <glyph glyph-name="P" unicode="P" horiz-adv-x="1210" 
d="M123 0v1460h389q254 0 413.5 -137.5t159.5 -345.5q0 -212 -151 -342.5t-422 -130.5h-332v-504h-57zM180 569h316q247 0 387.5 111.5t140.5 288.5v10q0 184 -148.5 303t-379.5 119h-316v-832z" />
    <glyph glyph-name="Q" unicode="Q" horiz-adv-x="1765" 
d="M123 729q0 227 100.5 403t273.5 270.5t386 94.5q214 0 386 -94t272.5 -269.5t100.5 -402.5q0 -208 -82 -370t-229 -265l176 -207l-47 -39l-180 216q-174 -103 -397 -103q-157 0 -296 55t-241.5 153t-162.5 243t-60 315zM883 23h14q177 0 342 92l-186 219l45 37l192 -226
q132 91 210.5 238.5t78.5 347.5q0 94 -24 190t-79 189.5t-133.5 166t-198 117t-263.5 44.5q-77 0 -155.5 -18t-157.5 -54t-147 -95t-121 -135t-83.5 -181t-30.5 -226q0 -141 42.5 -260.5t112.5 -200t161.5 -137t187.5 -82.5t193 -26z" />
    <glyph glyph-name="R" unicode="R" horiz-adv-x="1214" 
d="M123 0v1460h455q248 0 375.5 -118t127.5 -326q0 -157 -112 -268t-287 -136l408 -612h-82l-400 600h-411v-600h-74zM197 664h362q209 0 332 97.5t123 262.5q0 377 -455 377h-362v-737z" />
    <glyph glyph-name="S" unicode="S" horiz-adv-x="1269" 
d="M123 346h63q8 -86 75 -161.5t169.5 -120t210.5 -44.5q88 0 163 18t138.5 56.5t100 107t36.5 160.5q0 80 -32.5 139t-87.5 94t-126.5 59t-150.5 41.5t-158 35.5t-150.5 46.5t-126.5 68t-87.5 107t-32.5 157.5q0 124 69.5 214t183 133.5t255.5 43.5q200 0 347.5 -117.5
t164.5 -285.5h-60q-17 144 -146 246t-300 102q-89 0 -170.5 -22t-144.5 -62.5t-100.5 -104.5t-37.5 -141q0 -83 32.5 -143.5t88 -96.5t126.5 -61.5t150 -42.5t158.5 -35t150.5 -45t126.5 -65t88 -102.5t32.5 -151.5q0 -109 -38 -190.5t-106.5 -130t-155.5 -72t-192 -23.5
q-128 0 -237 43t-187 132.5t-102 213.5z" />
    <glyph glyph-name="T" unicode="T" horiz-adv-x="1165" 
d="M553 0v1401h-430v59h919v-59h-428v-1401h-61z" />
    <glyph glyph-name="U" unicode="U" horiz-adv-x="1331" 
d="M123 1460h61v-874q0 -245 133.5 -403t348.5 -158q217 0 349 156t132 405v874h59v-872q0 -182 -67.5 -324t-190.5 -221.5t-282 -79.5q-239 0 -391 175t-152 450v872z" />
    <glyph glyph-name="V" unicode="V" horiz-adv-x="1728" 
d="M864 -10l-741 1470h72l669 -1329l670 1329h70z" />
    <glyph glyph-name="W" unicode="W" horiz-adv-x="2107" 
d="M692 -10l-569 1470h72l497 -1290l361 881l362 -881l498 1290h72l-570 -1470l-362 884z" />
    <glyph glyph-name="X" unicode="X" horiz-adv-x="1527" 
d="M125 0l596 729l-596 731h84l555 -678l555 678h84l-596 -731l596 -729h-86l-553 678l-555 -678h-84z" />
    <glyph glyph-name="Y" unicode="Y" horiz-adv-x="1460" 
d="M698 0v463l-573 997h72l530 -925l539 925h69l-575 -997v-463h-62z" />
    <glyph glyph-name="Z" unicode="Z" horiz-adv-x="1372" 
d="M123 0l1007 1401h-968v59h1087l-997 -1401h917v-59h-1046z" />
    <glyph glyph-name="bracketleft" unicode="[" horiz-adv-x="903" 
d="M780 -369h-657v1866h657v-63h-596v-1741h596v-62z" />
    <glyph glyph-name="backslash" unicode="\" horiz-adv-x="1153" 
d="M1028 -186h-63l-840 1646h65z" />
    <glyph glyph-name="bracketright" unicode="]" horiz-adv-x="903" 
d="M780 -369h-657v62h594v1741h-594v63h657v-1866z" />
    <glyph glyph-name="asciicircum" unicode="^" horiz-adv-x="862" 
d="M125 1065l307 395l305 -395h-71l-234 303l-235 -303h-72z" />
    <glyph glyph-name="underscore" unicode="_" horiz-adv-x="1269" 
d="M123 -72v72h1024v-72h-1024z" />
    <glyph glyph-name="grave" unicode="`" horiz-adv-x="522" 
d="M399 1167h-43l-233 293h82z" />
    <glyph glyph-name="a" unicode="a" 
d="M655 1077q248 0 390.5 -152.5t142.5 -398.5l2 -526h-72v244q-61 -124 -177.5 -197.5t-262.5 -73.5q-245 0 -400 154t-155 399q0 242 149.5 396.5t382.5 154.5zM655 1018q-205 0 -338 -139t-133 -353q0 -215 132.5 -354t338.5 -139q205 0 334 135t129 334v24v25
q0 95 -30.5 179t-87.5 148.5t-146 102t-199 37.5z" />
    <glyph glyph-name="b" unicode="b" 
d="M123 1460h61v-639q68 111 192 182.5t263 71.5q239 0 394 -156t155 -395q0 -240 -151 -397.5t-382 -157.5q-238 0 -385 147t-147 408v936zM1126 524q0 215 -132.5 352.5t-336.5 137.5q-207 0 -340 -137.5t-133 -352.5q0 -235 130 -364t343 -129q202 0 335.5 139.5
t133.5 353.5z" />
    <glyph glyph-name="c" unicode="c" horiz-adv-x="1267" 
d="M659 1077q105 0 201 -39t172 -116.5t111 -182.5h-76q-50 126 -165.5 201.5t-244.5 75.5q-138 0 -246 -68t-164.5 -179t-56.5 -243t56 -243t164.5 -179.5t248.5 -68.5q129 0 247.5 76.5t162.5 203.5l74 -2q-26 -100 -108 -179.5t-183 -120t-197 -40.5q-155 0 -277.5 73
t-188.5 198.5t-66 281.5t67.5 281.5t190.5 197.5t278 72z" />
    <glyph glyph-name="d" unicode="d" 
d="M1126 1460h62v-936q0 -253 -149 -404t-384 -151q-230 0 -381 158t-151 397q0 242 146.5 396.5t383.5 154.5q153 0 275 -68.5t198 -193.5v647zM184 524q5 -216 136 -354.5t335 -138.5q208 0 339.5 133.5t131.5 359.5v13q0 203 -133.5 340t-337.5 137q-206 0 -338.5 -137.5
t-132.5 -352.5z" />
    <glyph glyph-name="e" unicode="e" 
d="M1075 246h72q-79 -140 -191.5 -206.5t-267.5 -66.5q-250 0 -407.5 155.5t-157.5 403.5q0 239 151.5 392t380.5 153q236 0 385.5 -153.5t149.5 -388.5v-11v-2v-2v-2v-2v-2v-2v-2v-23v-2v-2v-2v-2h-1002q12 -188 155.5 -317t348.5 -129q133 0 232 58.5t151 154.5zM186 535
h942q-5 207 -134 344t-339 137q-107 0 -196.5 -39.5t-148.5 -106.5t-91.5 -153.5t-32.5 -181.5z" />
    <glyph glyph-name="f" unicode="f" horiz-adv-x="706" 
d="M125 1292q0 110 61.5 177t161.5 67h295v-59h-293q-81 0 -122.5 -55.5t-41.5 -135.5v-235h357v-64h-357v-987h-61v1292z" />
    <glyph glyph-name="g" unicode="g" horiz-adv-x="1314" 
d="M233 -451v60h443q201 0 326.5 125t125.5 342v184q-62 -135 -186 -216t-276 -81q-164 0 -288 72t-189.5 197.5t-65.5 283.5q0 243 150 398t382 155q231 0 383 -155.5t152 -397.5v-440q0 -168 -71 -289t-189.5 -179.5t-270.5 -58.5h-426zM659 27q205 0 335 138t130 353
t-131.5 353.5t-337.5 138.5q-204 0 -337.5 -139t-133.5 -353q0 -211 135.5 -351t339.5 -140z" />
    <glyph glyph-name="h" unicode="h" horiz-adv-x="1331" 
d="M123 0v1460h61v-698q67 148 192.5 231.5t289.5 83.5q241 0 390.5 -174t149.5 -450v-453h-59v455q0 249 -132 405t-349 156q-215 0 -348.5 -158t-133.5 -403v-455h-61z" />
    <glyph glyph-name="i" unicode="i" horiz-adv-x="368" 
d="M123 1313q0 27 16 44t45 17t45.5 -17t16.5 -44q0 -31 -16.5 -47.5t-45.5 -16.5q-61 0 -61 64zM154 0v1051h61v-1051h-61z" />
    <glyph glyph-name="j" unicode="j" horiz-adv-x="372" 
d="M127 1313q0 26 16.5 43.5t42.5 17.5q29 0 45.5 -17t16.5 -44q0 -31 -16.5 -47.5t-45.5 -16.5q-27 0 -43 17t-16 47zM156 1051h61v-1256q0 -116 -58 -181t-165 -65h-144v60h142q72 0 118 53.5t46 132.5v1256z" />
    <glyph glyph-name="k" unicode="k" horiz-adv-x="741" 
d="M123 0v1460h61v-885l396 476h79l-432 -527l430 -524h-79l-394 475v-475h-61z" />
    <glyph glyph-name="l" unicode="l" horiz-adv-x="479" 
d="M397 0h-49q-103 0 -163 66.5t-60 179.5v1214h61v-1235q0 -70 46 -118t118 -48h47v-59z" />
    <glyph glyph-name="m" unicode="m" horiz-adv-x="1781" 
d="M123 0v1051h61v-160q51 81 138 132.5t196 51.5q278 0 371 -217q119 217 381 217q184 0 285.5 -114t101.5 -338v-623h-62v627q0 196 -86 291.5t-227 95.5h-12q-154 0 -251 -102.5t-97 -266.5v-645h-62v645q0 167 -90 268t-238 101q-156 0 -252 -101t-96 -268v-645h-61z
" />
    <glyph glyph-name="n" unicode="n" horiz-adv-x="1331" 
d="M123 0v1051h61v-289q67 148 192.5 231.5t289.5 83.5q241 0 390.5 -174t149.5 -450v-453h-59v455q0 249 -132 405t-349 156q-215 0 -348.5 -158t-133.5 -403v-455h-61z" />
    <glyph glyph-name="o" unicode="o" 
d="M1188 526q0 -242 -150 -397.5t-383 -155.5q-232 0 -382 156t-150 397t150 396t382 155q233 0 383 -155t150 -396zM1126 526q0 214 -133 353t-338 139t-338 -139t-133 -353q0 -215 132.5 -354t338.5 -139t338.5 139t132.5 354z" />
    <glyph glyph-name="p" unicode="p" 
d="M123 -451v988q0 240 149.5 392t382.5 152q231 0 382 -157.5t151 -397.5q0 -239 -155 -395t-394 -156q-139 0 -261.5 70.5t-193.5 183.5v-680h-61zM657 35q204 0 336.5 138.5t132.5 352.5t-133.5 354t-335.5 140q-207 0 -340 -139.5t-133 -354.5q0 -214 133 -352.5
t340 -138.5z" />
    <glyph glyph-name="q" unicode="q" 
d="M1190 -451h-62v703q-160 -277 -456 -277q-238 0 -392.5 156t-154.5 395q0 240 150 397.5t382 157.5q231 0 382 -157.5t151 -397.5v-977zM186 526q0 -214 132.5 -352.5t336.5 -138.5t338.5 139t134.5 352q0 215 -133.5 354.5t-339.5 139.5q-202 0 -335.5 -140t-133.5 -354
z" />
    <glyph glyph-name="r" unicode="r" horiz-adv-x="757" 
d="M123 0v1051h65v-152q39 73 118 112.5t188 39.5h182v-66h-203q-59 0 -109 -19t-91.5 -59t-65 -111.5t-23.5 -168.5v-627h-61z" />
    <glyph glyph-name="s" unicode="s" horiz-adv-x="1003" 
d="M104 315l64 -2q17 -120 111 -198.5t223 -83.5h18q139 0 225 59q95 62 95 176v17q-2 35 -16.5 64t-44.5 51.5t-59 38.5t-78 31.5t-82.5 24t-90.5 21.5q-75 17 -133 38.5t-109.5 53.5t-79.5 79t-28 106v14q2 60 26.5 108t61.5 78t86 50t96.5 28t95.5 8h17
q92 -3 167.5 -27.5t136.5 -83t81 -147.5h-64q-61 187 -321 199q-10 2 -29 2q-41 0 -87.5 -11t-94.5 -34t-80.5 -68.5t-34.5 -105.5v-6q0 -41 20 -74.5t49.5 -56t80.5 -43.5t93.5 -33.5t108.5 -28.5q62 -15 107.5 -29t97.5 -37t85 -50t56 -67t25 -89v-19q0 -141 -108 -221
q-100 -74 -277 -74h-18q-72 4 -137 26.5t-120 63t-91 105.5t-44 147z" />
    <glyph glyph-name="t" unicode="t" horiz-adv-x="679" 
d="M125 244v1216h61v-409h412v-64h-412v-737q0 -80 41.5 -135.5t122.5 -55.5h248v-59h-250q-99 0 -161 68t-62 176z" />
    <glyph glyph-name="u" unicode="u" horiz-adv-x="1331" 
d="M1208 1051v-1051h-61v281q-67 -148 -192 -232t-289 -84q-239 0 -390 174.5t-151 450.5v461h59v-463q0 -249 133 -405t349 -156q215 0 348 158t133 403v463h61z" />
    <glyph glyph-name="v" unicode="v" horiz-adv-x="1310" 
d="M651 -12l-526 1063h70l454 -936l465 936h74z" />
    <glyph glyph-name="w" unicode="w" horiz-adv-x="1949" 
d="M651 -12l-526 1063h70l454 -936l322 649l317 -649l465 936h72l-535 -1063l-317 639z" />
    <glyph glyph-name="x" unicode="x" horiz-adv-x="1212" 
d="M125 0l442 524l-442 527h76l405 -482l406 482h75l-442 -527l442 -524h-77l-404 479l-403 -479h-78z" />
    <glyph glyph-name="y" unicode="y" horiz-adv-x="1267" 
d="M195 -391h131q32 0 60.5 12t55.5 40t48 57t48 82.5t46.5 95t50.5 114.5l-512 1041h72l479 -969l403 969h68l-438 -1051q-29 -74 -55.5 -131t-63.5 -120.5t-74 -104.5t-84.5 -68t-97.5 -27h-137v60z" />
    <glyph glyph-name="z" unicode="z" horiz-adv-x="1148" 
d="M145 1051h859v-39l-771 -944h791v-68h-899v41l768 942h-748v68z" />
    <glyph glyph-name="braceleft" unicode="{" horiz-adv-x="718" 
d="M594 -365h-117q-96 0 -154.5 58.5t-58.5 152.5v568q0 56 -33 89.5t-88 33.5h-20v81h20q55 0 88 33.5t33 87.5v551q0 94 58.5 152.5t154.5 58.5h117v-63h-123q-64 0 -103.5 -39.5t-39.5 -104.5v-563q0 -63 -40.5 -104.5t-103.5 -46.5l-20 -2l20 -3q63 -2 103.5 -43.5
t40.5 -107.5v-584q0 -65 39.5 -104t103.5 -39h123v-62z" />
    <glyph glyph-name="bar" unicode="|" horiz-adv-x="307" 
d="M123 -365v1866h61v-1866h-61z" />
    <glyph glyph-name="braceright" unicode="}" horiz-adv-x="718" 
d="M240 -365h-117v62h123q66 0 104.5 38.5t38.5 104.5v584q0 67 39 108.5t104 42.5l21 3l-21 2q-65 4 -104 45.5t-39 105.5v563q0 66 -38.5 105t-104.5 39h-123v63h117q96 0 153.5 -58.5t57.5 -152.5v-551q0 -54 33.5 -87.5t88.5 -33.5h21v-81h-21q-55 0 -88.5 -33.5
t-33.5 -89.5v-568q0 -94 -57.5 -152.5t-153.5 -58.5z" />
    <glyph glyph-name="asciitilde" unicode="~" horiz-adv-x="1454" 
d="M436 776q68 0 151.5 -35t149 -76.5t142.5 -76.5t133 -35q73 0 139.5 51t103.5 133h74q-131 -248 -319 -248q-55 0 -117.5 23t-119 56t-112.5 66t-115 56t-108 23q-78 0 -137.5 -42t-101.5 -141h-74q47 120 132.5 183t178.5 63z" />
    <glyph glyph-name="exclamdown" unicode="&#xa1;" horiz-adv-x="370" 
d="M246 1178q0 -29 -16.5 -45.5t-45.5 -16.5q-27 0 -43 16.5t-16 45.5t16 46t43 17q29 0 45.5 -17t16.5 -46zM213 954l14 -1132h-84l17 1132h53z" />
    <glyph glyph-name="cent" unicode="&#xa2;" horiz-adv-x="1267" 
d="M614 -236v209q-219 17 -355 171.5t-136 381.5q0 226 137 380t354 171v187h62v-187q157 -5 288 -95.5t179 -242.5h-76q-50 126 -165.5 201.5t-244.5 75.5q-138 0 -246 -68t-164.5 -179t-56.5 -243t56 -243t164.5 -179.5t248.5 -68.5q129 0 247.5 76.5t162.5 203.5l74 -2
q-26 -98 -103.5 -176t-172.5 -118.5t-191 -45.5v-209h-62z" />
    <glyph glyph-name="sterling" unicode="&#xa3;" horiz-adv-x="1187" 
d="M707 1423q-129 0 -214 -94.5t-85 -238.5v-338h553v-58h-551q-3 -198 -30 -332.5t-70 -202.5t-105 -98h858v-61h-940v102q51 6 89.5 37.5t70 97t48.5 181t17 276.5h-205v58h205v329q0 177 102.5 290.5t256.5 113.5q160 0 258 -107.5t98 -259.5v-12h-57q0 139 -84.5 228
t-214.5 89z" />
    <glyph glyph-name="currency" unicode="&#xa4;" horiz-adv-x="1032" 
d="M125 328l149 151q-59 83 -59 191q0 101 59 190l-149 154l47 37l147 -148q82 68 195 68q117 0 197 -68l149 148l47 -37l-149 -154q59 -86 59 -190q0 -106 -59 -191l149 -151l-47 -37l-149 147q-81 -69 -193 -69q-119 0 -199 69l-147 -147zM516 920q-113 0 -174 -72.5
t-61 -177.5q0 -104 61.5 -177t173.5 -73q113 0 174.5 72t61.5 176q0 105 -61.5 178.5t-174.5 73.5z" />
    <glyph glyph-name="yen" unicode="&#xa5;" horiz-adv-x="1460" 
d="M698 0v225h-448v64h448v139h-448v61h432l-557 971h72l530 -925l539 925h69l-561 -971h436v-61h-450v-139h450v-64h-450v-225h-62z" />
    <glyph glyph-name="brokenbar" unicode="&#xa6;" horiz-adv-x="309" 
d="M123 889v715h61v-715h-61zM123 -143v714h61v-714h-61z" />
    <glyph glyph-name="section" unicode="&#xa7;" horiz-adv-x="1157" 
d="M584 1444q62 0 122.5 -18.5t113 -53.5t87.5 -93t41 -130h-57q0 92 -89 167t-220 75q-166 0 -251 -73.5t-85 -211.5q0 -66 27 -112.5t72.5 -71.5t104.5 -41t124.5 -25t131 -18.5t124.5 -27t104.5 -45t72.5 -77t27 -119.5q0 -92 -77 -166t-171 -96q90 -29 150.5 -94.5
t60.5 -173.5q0 -155 -118 -255.5t-297 -100.5q-174 0 -281.5 82t-107.5 223v10h59q0 -103 86.5 -179.5t241.5 -76.5q152 0 253 85.5t101 205.5v8q-2 86 -47.5 138.5t-117 73t-157.5 31t-171.5 22.5t-156.5 36t-115 82t-44 151v7q0 97 74.5 167.5t193.5 94.5
q-93 31 -150 99.5t-57 166.5q0 146 106 240t292 94zM514 811q-163 -6 -250.5 -71t-87.5 -167q1 -48 20.5 -86t52 -61.5t74 -40t89 -25.5t93.5 -14t92 -9q27 -2 40 -3q150 4 246 72t96 167q0 38 -13.5 69t-34.5 52t-54.5 38t-64.5 27.5t-75.5 19t-76.5 13t-77.5 10t-68.5 9.5
z" />
    <glyph glyph-name="dieresis" unicode="&#xa8;" horiz-adv-x="763" 
d="M125 1231q0 27 16 43t45 16q26 0 43 -16.5t17 -42.5q0 -29 -16.5 -46.5t-43.5 -17.5q-29 0 -45 17t-16 47zM518 1231q0 27 16.5 43t45.5 16q26 0 42.5 -16.5t16.5 -42.5q0 -29 -16.5 -46.5t-42.5 -17.5q-29 0 -45.5 17.5t-16.5 46.5z" />
    <glyph glyph-name="copyright" unicode="&#xa9;" horiz-adv-x="1802" 
d="M123 481q0 163 58.5 307.5t160.5 248.5t247.5 164.5t311.5 60.5q222 0 400 -100.5t278 -279t100 -401.5t-100 -400.5t-277.5 -277.5t-400.5 -100t-400.5 100t-277.5 277.5t-100 400.5zM184 481q0 -204 92 -368t256 -256.5t369 -92.5q206 0 370 92.5t255.5 256t91.5 368.5
q0 202 -91.5 366t-256 258.5t-369.5 94.5q-153 0 -287 -55.5t-228 -151t-148 -228.5t-54 -284zM1348 266h61q-40 -162 -185 -256t-325 -94q-118 0 -220.5 42.5t-175 117t-114 178.5t-41.5 223q0 240 156.5 400.5t394.5 160.5q116 0 221.5 -40t184 -121.5t104.5 -190.5h-61
q-20 73 -67.5 131t-110 93t-131 53t-138.5 18q-211 0 -350 -142t-139 -360t138.5 -357.5t350.5 -139.5q70 0 139 16.5t131.5 49.5t110 89.5t66.5 128.5z" />
    <glyph glyph-name="ordfeminine" unicode="&#xaa;" horiz-adv-x="999" 
d="M500 1452q171 0 272.5 -108t101.5 -279v-369h-59v162q-44 -82 -124.5 -132t-180.5 -50q-171 0 -278 108.5t-107 280.5q0 169 105 278t270 109zM498 1397q-139 0 -228.5 -93.5t-89.5 -238.5q0 -147 89 -240.5t229 -93.5q142 0 228.5 91t86.5 243q0 148 -83.5 240
t-231.5 92z" />
    <glyph glyph-name="guillemotleft" unicode="&#xab;" horiz-adv-x="1533" 
d="M123 731l717 443v-76l-592 -367l592 -369v-75zM694 731l717 443v-76l-594 -367l594 -369v-75z" />
    <glyph glyph-name="logicalnot" unicode="&#xac;" 
d="M123 696h1065v-553h-62l2 490h-1005v63z" />
    <glyph glyph-name="registered" unicode="&#xae;" horiz-adv-x="1802" 
d="M901 1290q223 0 400.5 -100t277.5 -277.5t100 -400.5t-100 -401t-277.5 -277.5t-400.5 -99.5t-400.5 99.5t-277.5 277.5t-100 401q0 162 58.5 306t160.5 247.5t247.5 164t311.5 60.5zM901 1229q-204 0 -369 -95t-256.5 -258.5t-91.5 -363.5q0 -206 92 -370t255.5 -255.5
t369.5 -91.5t370 91.5t255.5 255.5t91.5 370q0 149 -53.5 281.5t-147.5 228.5t-228 151.5t-288 55.5zM582 -20v1064h331q182 0 274.5 -82t92.5 -241q0 -116 -81.5 -196t-209.5 -99l297 -446h-65l-289 436h-293v-436h-57zM639 467h260q153 0 240.5 69.5t87.5 188.5
q0 138 -81 204t-247 66h-260v-528z" />
    <glyph glyph-name="macron" unicode="&#xaf;" horiz-adv-x="841" 
d="M125 1354h594v-62h-594v62z" />
    <glyph glyph-name="degree" unicode="&#xb0;" horiz-adv-x="993" 
d="M868 1065q0 -169 -104 -278t-268 -109t-268.5 109t-104.5 278q0 168 104.5 276.5t268.5 108.5t268 -108.5t104 -276.5zM825 1065q0 148 -93.5 246t-235.5 98t-236 -98t-94 -246q0 -150 93.5 -248t236.5 -98t236 97.5t93 248.5z" />
    <glyph glyph-name="plusminus" unicode="&#xb1;" horiz-adv-x="1087" 
d="M123 754v65h387v387h68v-387h385v-65h-385v-387h-68v387h-387zM123 244v67h840v-67h-840z" />
    <glyph glyph-name="twosuperior" unicode="&#xb2;" horiz-adv-x="696" 
d="M350 1458q106 0 160.5 -62.5t54.5 -168.5q0 -208 -346 -500h354v-45h-440v31q55 47 96.5 84t100 97t96.5 110t66 109.5t28 109.5q0 88 -44 140t-128 52q-78 0 -126.5 -55.5t-53.5 -147.5h-43q0 106 62 176t163 70z" />
    <glyph glyph-name="threesuperior" unicode="&#xb3;" horiz-adv-x="751" 
d="M377 1454q97 0 163 -51t66 -141q0 -66 -50.5 -113.5t-131.5 -61.5q95 -12 150 -65t55 -139q0 -94 -72 -154.5t-178 -60.5q-108 0 -181 58.5t-73 162.5h43q0 -79 56.5 -128.5t152.5 -49.5q88 0 146.5 50.5t58.5 125.5q0 91 -72 134.5t-186 43.5v43q112 0 173.5 43.5
t61.5 114.5q0 61 -51.5 103t-130.5 42q-81 0 -135 -39t-54 -106h-45q0 89 69 138.5t165 49.5z" />
    <glyph glyph-name="acute" unicode="&#xb4;" horiz-adv-x="522" 
d="M123 1167l194 293h82l-233 -293h-43z" />
    <glyph glyph-name="paragraph" unicode="&#xb6;" horiz-adv-x="1292" 
d="M985 -471h-61v1845h-289v-1845h-62v1167q-203 0 -325.5 100.5t-122.5 258.5v10q0 166 123.5 267.5t324.5 101.5h594v-60h-182v-1845z" />
    <glyph glyph-name="periodcentered" unicode="&#xb7;" horiz-adv-x="370" 
d="M125 653q0 27 16 43.5t45 16.5q26 0 43 -17t17 -43q0 -29 -17 -47t-43 -18q-29 0 -45 17.5t-16 47.5z" />
    <glyph glyph-name="cedilla" unicode="&#xb8;" horiz-adv-x="571" 
d="M389 -279q0 65 -39 100.5t-106 35.5h-92v170h53v-115h39q94 0 148 -50t54 -141q0 -93 -54 -143.5t-148 -50.5h-119v57h119q67 0 106 35.5t39 101.5z" />
    <glyph glyph-name="onesuperior" unicode="&#xb9;" horiz-adv-x="471" 
d="M125 1280l174 174h49v-772h-53v709l-170 -164v53z" />
    <glyph glyph-name="ordmasculine" unicode="&#xba;" horiz-adv-x="843" 
d="M123 1069q0 169 84.5 279t214.5 110q131 0 215 -110t84 -279q0 -174 -80.5 -282.5t-218.5 -108.5q-131 0 -215 110t-84 281zM172 1069q0 -154 69 -251t181 -97q119 0 185.5 96t66.5 252q0 151 -72.5 248.5t-179.5 97.5q-106 0 -178 -98t-72 -248z" />
    <glyph glyph-name="guillemotright" unicode="&#xbb;" horiz-adv-x="1533" 
d="M1411 731l-717 -444v75l592 369l-592 367v76zM840 731l-717 -444v75l594 369l-594 367v76z" />
    <glyph glyph-name="onequarter" unicode="&#xbc;" horiz-adv-x="1232" 
d="M612 244v-6h342v485zM160 1235v51l174 174h49v-772h-53v709zM188 0h-65l887 1339h65zM954 188h-393v70l369 514h76v-534h102v-50h-102v-188h-52v188z" />
    <glyph glyph-name="onehalf" unicode="&#xbd;" horiz-adv-x="1327" 
d="M160 1286l174 174h49v-772h-53v709l-170 -162v51zM123 0l887 1339h65l-887 -1339h-65zM981 776q106 0 160.5 -62.5t54.5 -170.5q0 -51 -24 -109t-57.5 -107.5t-84.5 -106t-90.5 -94t-89.5 -81.5h354v-45h-440v31q53 45 95.5 83t100.5 97.5t96.5 110.5t66.5 110.5
t28 108.5q0 88 -44 140t-128 52q-78 0 -126.5 -55.5t-53.5 -147.5h-43q0 106 62 176t163 70z" />
    <glyph glyph-name="threequarters" unicode="&#xbe;" horiz-adv-x="1347" 
d="M375 1460q96 0 163.5 -51t67.5 -141q0 -67 -50.5 -113.5t-133.5 -60.5q95 -12 150 -65.5t55 -139.5q0 -94 -71.5 -154.5t-178.5 -60.5q-109 0 -180.5 58t-71.5 161h43q0 -79 56.5 -127.5t152.5 -48.5q88 0 146.5 50.5t58.5 125.5q0 89 -73.5 133.5t-184.5 44.5v43
q112 0 173.5 43.5t61.5 114.5q0 61 -51.5 103t-130.5 42q-82 0 -135.5 -39t-53.5 -106h-45q0 88 69 138t163 50zM238 0l886 1339h66l-887 -1339h-65zM676 188v70l368 514h76v-534h103v-50h-103v-188h-51v188h-393zM727 238h342v485l-342 -479v-6z" />
    <glyph glyph-name="questiondown" unicode="&#xbf;" horiz-adv-x="1251" 
d="M719 1145q0 -29 -16.5 -45.5t-45.5 -16.5q-27 0 -43 16.5t-16 45.5t16 46t43 17q29 0 45.5 -17t16.5 -46zM688 922v-318h-61q-200 0 -322.5 -104.5t-122.5 -272.5v-10q0 -108 61.5 -200t166 -144.5t225.5 -52.5q173 0 294.5 111t141.5 294h57q-12 -110 -58 -198
t-114 -143t-150 -84t-169 -29q-116 0 -213.5 36.5t-163 99t-101.5 145t-36 173.5q0 196 140.5 319.5t365.5 123.5v254h59z" />
    <glyph glyph-name="Agrave" unicode="&#xc0;" horiz-adv-x="1726" 
d="M1335 393l-471 936l-473 -936h944zM362 336l-167 -336h-72l741 1470l740 -1470h-72l-168 336h-1002zM688 1870l195 -293h-43l-234 293h82z" />
    <glyph glyph-name="Aacute" unicode="&#xc1;" horiz-adv-x="1726" 
d="M1335 393l-471 936l-473 -936h944zM362 336l-167 -336h-72l741 1470l740 -1470h-72l-168 336h-1002zM883 1577h-43l194 293h82z" />
    <glyph glyph-name="Acircumflex" unicode="&#xc2;" horiz-adv-x="1726" 
d="M1335 393l-471 936l-473 -936h944zM362 336l-167 -336h-72l741 1470l740 -1470h-72l-168 336h-1002zM668 1579l163 236h64l164 -236h-60l-135 199l-137 -199h-59z" />
    <glyph glyph-name="Atilde" unicode="&#xc3;" horiz-adv-x="1726" 
d="M569 1563h-59q27 155 199 155q42 0 82 -18t67.5 -39t67.5 -39t82 -18q59 0 102 34t49 84h58q-21 -83 -70 -125.5t-137 -42.5q-55 0 -101.5 18t-72.5 39.5t-60 39.5t-67 18q-61 0 -97.5 -28.5t-42.5 -77.5zM195 0h-72l741 1470l740 -1470h-72l-168 336h-1002zM864 1329
l-473 -936h944z" />
    <glyph glyph-name="Adieresis" unicode="&#xc4;" horiz-adv-x="1726" 
d="M606 1640q0 27 16.5 43.5t45.5 16.5q26 0 42.5 -17t16.5 -43q0 -29 -16 -46t-43 -17q-29 0 -45.5 17t-16.5 46zM999 1640q0 27 16.5 43.5t45.5 16.5q26 0 42.5 -17t16.5 -43q0 -29 -16 -46t-43 -17q-29 0 -45.5 17t-16.5 46zM195 0h-72l741 1470l740 -1470h-72l-168 336
h-1002zM864 1329l-473 -936h944z" />
    <glyph glyph-name="Aring" unicode="&#xc5;" horiz-adv-x="1726" 
d="M195 0h-72l721 1427q-70 6 -117 56q-55 55 -55 141q0 85 54 140t138 55q85 0 139 -55t54 -140t-53 -141q-50 -50 -119 -56l719 -1427h-72l-168 336h-1002zM717 1624q0 -65 41.5 -106t105.5 -41t106 41t42 106q0 63 -42.5 104t-105.5 41t-105 -41t-42 -104zM864 1329
l-473 -936h944z" />
    <glyph glyph-name="AE" unicode="&#xc6;" horiz-adv-x="2201" 
d="M903 1401l-510 -1008h701v1008h-191zM195 0h-72l741 1460h1192v-59h-901v-639h819v-64h-819v-639h922v-59h-983v336h-729z" />
    <glyph glyph-name="Ccedilla" unicode="&#xc7;" horiz-adv-x="1701" 
d="M1518 442h59q-35 -145 -139.5 -254.5t-244.5 -165.5t-296 -59v-51h39q95 0 150 -50t55 -141q0 -93 -55 -143.5t-150 -50.5h-119v57h119q67 0 106 35.5t39 101.5q0 65 -39 100.5t-106 35.5h-92v106q-158 6 -290.5 61.5t-228 152.5t-149 239t-53.5 315q0 235 98 411
t268.5 267.5t389.5 91.5q159 0 303.5 -54.5t252.5 -166t142 -260.5h-59q-39 132 -145 231t-234 146t-258 47q-149 0 -277.5 -50.5t-220.5 -142t-144.5 -225.5t-52.5 -295q0 -215 95 -377.5t251.5 -245.5t348.5 -83q97 0 195.5 27.5t187 78.5t156.5 132t98 179z" />
    <glyph glyph-name="Egrave" unicode="&#xc8;" horiz-adv-x="1230" 
d="M123 0v1460h962v-59h-901v-639h820v-64h-820v-639h922v-59h-983zM635 1577h-43l-234 293h82z" />
    <glyph glyph-name="Eacute" unicode="&#xc9;" horiz-adv-x="1230" 
d="M123 0v1460h962v-59h-901v-639h820v-64h-820v-639h922v-59h-983zM592 1577l194 293h82l-233 -293h-43z" />
    <glyph glyph-name="Ecircumflex" unicode="&#xca;" horiz-adv-x="1230" 
d="M123 0v1460h962v-59h-901v-639h820v-64h-820v-639h922v-59h-983zM584 1815h63l164 -236h-59l-136 199l-137 -199h-59z" />
    <glyph glyph-name="Edieresis" unicode="&#xcb;" horiz-adv-x="1230" 
d="M358 1640q0 27 16.5 43.5t45.5 16.5q26 0 42.5 -17t16.5 -43q0 -29 -16 -46t-43 -17q-29 0 -45.5 17t-16.5 46zM752 1640q0 27 16 43.5t45 16.5q26 0 42.5 -17t16.5 -43q0 -29 -16 -46t-43 -17q-29 0 -45 17t-16 46zM123 0v1460h962v-59h-901v-639h820v-64h-820v-639h922
v-59h-983z" />
    <glyph glyph-name="Igrave" unicode="&#xcc;" horiz-adv-x="311" 
d="M125 0v1460h61v-1460h-61zM174 1577h-43l-233 293h82z" />
    <glyph glyph-name="Iacute" unicode="&#xcd;" horiz-adv-x="311" 
d="M125 0v1460h61v-1460h-61zM133 1577l195 293h82l-234 -293h-43z" />
    <glyph glyph-name="Icircumflex" unicode="&#xce;" horiz-adv-x="311" 
d="M125 0v1460h61v-1460h-61zM123 1815h63l164 -236h-59l-135 199l-138 -199h-59z" />
    <glyph glyph-name="Idieresis" unicode="&#xcf;" horiz-adv-x="311" 
d="M-102 1640q0 27 16 43.5t45 16.5q26 0 42.5 -17t16.5 -43q0 -29 -16 -46t-43 -17q-29 0 -45 17t-16 46zM291 1640q0 27 16 43.5t45 16.5q26 0 43 -17t17 -43q0 -29 -16.5 -46t-43.5 -17q-29 0 -45 17t-16 46zM125 0v1460h61v-1460h-61z" />
    <glyph glyph-name="Eth" unicode="&#xd0;" horiz-adv-x="1286" 
d="M289 -2v700h-209v62h209v698l149 2h25q209 0 368 -91t245.5 -256.5t86.5 -381.5q0 -161 -49.5 -294.5t-141.5 -229t-228.5 -149.5t-305.5 -58zM354 59h92q298 0 475 186.5t177 485.5q0 297 -177 483.5t-475 186.5h-92v-641h242v-62h-242v-639z" />
    <glyph glyph-name="Ntilde" unicode="&#xd1;" horiz-adv-x="1419" 
d="M416 1563h-60q27 155 199 155q42 0 82 -18t67.5 -39t67.5 -39t82 -18q59 0 102.5 34t49.5 84h57q-21 -83 -70 -125.5t-137 -42.5q-55 0 -101.5 18t-72.5 39.5t-60 39.5t-67 18q-61 0 -97 -28.5t-42 -77.5zM123 0v1468l1110 -1314v1306h61v-1468l-1110 1298v-1290h-61z
" />
    <glyph glyph-name="Ograve" unicode="&#xd2;" horiz-adv-x="1765" 
d="M903 1577h-43l-233 293h82zM123 729q0 227 100.5 403t273.5 270.5t386 94.5q214 0 386 -94t272.5 -269.5t100.5 -402.5q0 -228 -102 -404.5t-274 -270t-383 -93.5q-157 0 -296 55t-241.5 153t-162.5 243t-60 315zM883 23h2h4v0h2h2q95 0 189.5 25.5t184.5 82t159 137
t111 200.5t42 263q0 94 -24 190t-79 189.5t-133.5 166t-198 117t-263.5 44.5q-65 0 -132.5 -12.5t-136 -40.5t-130.5 -68t-116.5 -98t-94 -128.5t-62.5 -163t-23 -196.5q0 -143 42.5 -263t112.5 -200.5t161.5 -137t187.5 -82t193 -25.5z" />
    <glyph glyph-name="Oacute" unicode="&#xd3;" horiz-adv-x="1765" 
d="M860 1577l195 293h82l-234 -293h-43zM123 729q0 227 100.5 403t273.5 270.5t386 94.5q214 0 386 -94t272.5 -269.5t100.5 -402.5q0 -228 -102 -404.5t-274 -270t-383 -93.5q-157 0 -296 55t-241.5 153t-162.5 243t-60 315zM883 23h2h4v0h2h2q95 0 189.5 25.5t184.5 82
t159 137t111 200.5t42 263q0 94 -24 190t-79 189.5t-133.5 166t-198 117t-263.5 44.5q-65 0 -132.5 -12.5t-136 -40.5t-130.5 -68t-116.5 -98t-94 -128.5t-62.5 -163t-23 -196.5q0 -143 42.5 -263t112.5 -200.5t161.5 -137t187.5 -82t193 -25.5z" />
    <glyph glyph-name="Ocircumflex" unicode="&#xd4;" horiz-adv-x="1765" 
d="M852 1815h63l164 -236h-59l-135 199l-137 -199h-60zM123 729q0 227 100.5 403t273.5 270.5t386 94.5q214 0 386 -94t272.5 -269.5t100.5 -402.5q0 -228 -102 -404.5t-274 -270t-383 -93.5q-157 0 -296 55t-241.5 153t-162.5 243t-60 315zM883 23h2h4v0h2h2
q95 0 189.5 25.5t184.5 82t159 137t111 200.5t42 263q0 94 -24 190t-79 189.5t-133.5 166t-198 117t-263.5 44.5q-65 0 -132.5 -12.5t-136 -40.5t-130.5 -68t-116.5 -98t-94 -128.5t-62.5 -163t-23 -196.5q0 -143 42.5 -263t112.5 -200.5t161.5 -137t187.5 -82t193 -25.5z
" />
    <glyph glyph-name="Otilde" unicode="&#xd5;" horiz-adv-x="1765" 
d="M590 1563h-60q27 155 199 155q42 0 82 -18t67.5 -39t67.5 -39t82 -18q59 0 102.5 34t49.5 84h57q-21 -83 -70 -125.5t-137 -42.5q-55 0 -101.5 18t-72.5 39.5t-60 39.5t-67 18q-61 0 -97 -28.5t-42 -77.5zM123 729q0 227 100.5 403t273.5 270.5t386 94.5q214 0 386 -94
t272.5 -269.5t100.5 -402.5q0 -228 -102 -404.5t-274 -270t-383 -93.5q-157 0 -296 55t-241.5 153t-162.5 243t-60 315zM883 23h2h4v0h2h2q95 0 189.5 25.5t184.5 82t159 137t111 200.5t42 263q0 94 -24 190t-79 189.5t-133.5 166t-198 117t-263.5 44.5q-65 0 -132.5 -12.5
t-136 -40.5t-130.5 -68t-116.5 -98t-94 -128.5t-62.5 -163t-23 -196.5q0 -143 42.5 -263t112.5 -200.5t161.5 -137t187.5 -82t193 -25.5z" />
    <glyph glyph-name="Odieresis" unicode="&#xd6;" horiz-adv-x="1765" 
d="M627 1640q0 27 16 43.5t45 16.5q26 0 43 -17t17 -43q0 -29 -16.5 -46t-43.5 -17q-29 0 -45 17t-16 46zM1020 1640q0 27 16 43.5t45 16.5q26 0 43 -17t17 -43q0 -29 -16.5 -46t-43.5 -17q-29 0 -45 17t-16 46zM123 729q0 227 100.5 403t273.5 270.5t386 94.5
q214 0 386 -94t272.5 -269.5t100.5 -402.5q0 -228 -102 -404.5t-274 -270t-383 -93.5q-157 0 -296 55t-241.5 153t-162.5 243t-60 315zM883 23h2h4v0h2h2q95 0 189.5 25.5t184.5 82t159 137t111 200.5t42 263q0 94 -24 190t-79 189.5t-133.5 166t-198 117t-263.5 44.5
q-65 0 -132.5 -12.5t-136 -40.5t-130.5 -68t-116.5 -98t-94 -128.5t-62.5 -163t-23 -196.5q0 -143 42.5 -263t112.5 -200.5t161.5 -137t187.5 -82t193 -25.5z" />
    <glyph glyph-name="multiply" unicode="&#xd7;" horiz-adv-x="890" 
d="M170 420l-45 45l274 272l-274 275l47 49l274 -275l273 273l45 -45l-272 -273l274 -274l-47 -49l-275 274z" />
    <glyph glyph-name="Oslash" unicode="&#xd8;" horiz-adv-x="1765" 
d="M123 729q0 227 100.5 403t273.5 270.5t386 94.5q218 0 399 -102l70 131h65l-88 -162q149 -102 231 -264t82 -369q0 -228 -101.5 -404.5t-274 -270t-385.5 -93.5q-148 0 -279 49l-84 -155h-63l94 176q-196 89 -311 271t-115 425zM580 88l673 1253q-164 97 -372 97
q-65 0 -132.5 -12.5t-136 -40.5t-130.5 -68t-116.5 -98t-94 -128.5t-62.5 -163t-23 -196.5q0 -123 31 -228.5t86.5 -184t124.5 -135.5t152 -95zM883 23q98 0 195 25.5t188 82t160 137.5t111 200.5t42 262.5q0 101 -28 204t-93 205t-158 169l-669 -1241q115 -45 252 -45z" />
    <glyph glyph-name="Ugrave" unicode="&#xd9;" horiz-adv-x="1331" 
d="M686 1577h-43l-233 293h82zM123 1460h61v-874q0 -245 133.5 -403t348.5 -158q217 0 349 156t132 405v874h59v-872q0 -182 -67.5 -324t-190.5 -221.5t-282 -79.5q-239 0 -391 175t-152 450v872z" />
    <glyph glyph-name="Uacute" unicode="&#xda;" horiz-adv-x="1331" 
d="M643 1577l195 293h82l-234 -293h-43zM123 1460h61v-874q0 -245 133.5 -403t348.5 -158q217 0 349 156t132 405v874h59v-872q0 -182 -67.5 -324t-190.5 -221.5t-282 -79.5q-239 0 -391 175t-152 450v872z" />
    <glyph glyph-name="Ucircumflex" unicode="&#xdb;" horiz-adv-x="1331" 
d="M635 1815h63l164 -236h-59l-135 199l-138 -199h-59zM123 1460h61v-874q0 -245 133.5 -403t348.5 -158q217 0 349 156t132 405v874h59v-872q0 -182 -67.5 -324t-190.5 -221.5t-282 -79.5q-239 0 -391 175t-152 450v872z" />
    <glyph glyph-name="Udieresis" unicode="&#xdc;" horiz-adv-x="1331" 
d="M410 1640q0 27 16 43.5t45 16.5q26 0 42.5 -17t16.5 -43q0 -29 -16 -46t-43 -17q-29 0 -45 17t-16 46zM803 1640q0 27 16 43.5t45 16.5q26 0 43 -17t17 -43q0 -29 -16.5 -46t-43.5 -17q-29 0 -45 17t-16 46zM123 1460h61v-874q0 -245 133.5 -403t348.5 -158
q217 0 349 156t132 405v874h59v-872q0 -182 -67.5 -324t-190.5 -221.5t-282 -79.5q-239 0 -391 175t-152 450v872z" />
    <glyph glyph-name="Yacute" unicode="&#xdd;" horiz-adv-x="1460" 
d="M698 0v463l-573 997h72l530 -925l539 925h69l-575 -997v-463h-62zM592 1577l194 293h82l-233 -293h-43z" />
    <glyph glyph-name="Thorn" unicode="&#xde;" horiz-adv-x="1124" 
d="M123 -276v1566h61v-319h293q84 0 159.5 -15t144.5 -49t119.5 -84t80 -126.5t29.5 -170.5q0 -116 -42.5 -203.5t-119 -139.5t-173.5 -77.5t-214 -25.5h-277v-356h-61zM479 141q72 0 137 12t126.5 41t106.5 72t72 110t27 150t-27.5 149.5t-73 109.5t-107.5 71.5
t-126.5 40.5t-134.5 12h-295v-768h295z" />
    <glyph glyph-name="germandbls" unicode="&#xdf;" horiz-adv-x="1243" 
d="M186 0h-61v1057q0 442 401 442q76 0 141.5 -10t127 -35t105 -64t69.5 -101.5t26 -143.5q0 -114 -90 -205t-207 -117q86 -15 160 -48.5t133 -85t93 -125.5t34 -163q0 -181 -124.5 -291t-309.5 -110h-389v59h389q157 0 265 95t108 249q0 82 -39 149t-100 109.5t-140 71
t-155 40t-148 11.5h-72v64h80q55 0 113 10t117.5 33t105.5 56t75.5 84t29.5 112q0 295 -400 295q-181 0 -259.5 -98t-78.5 -285v-1055z" />
    <glyph glyph-name="agrave" unicode="&#xe0;" 
d="M676 1167h-43l-234 293h82zM655 1077q248 0 390.5 -152.5t142.5 -398.5l2 -526h-72v244q-61 -124 -177.5 -197.5t-262.5 -73.5q-245 0 -400 154t-155 399q0 242 149.5 396.5t382.5 154.5zM655 1018q-205 0 -338 -139t-133 -353q0 -215 132.5 -354t338.5 -139
q205 0 334 135t129 334v2v10v2v2v2v2v2v2v2v11v2v2v2v2v2v2q0 95 -30.5 179t-87.5 148.5t-146 102t-199 37.5z" />
    <glyph glyph-name="aacute" unicode="&#xe1;" 
d="M633 1167l194 293h82l-233 -293h-43zM655 1077q248 0 390.5 -152.5t142.5 -398.5l2 -526h-72v244q-61 -124 -177.5 -197.5t-262.5 -73.5q-245 0 -400 154t-155 399q0 242 149.5 396.5t382.5 154.5zM655 1018q-205 0 -338 -139t-133 -353q0 -215 132.5 -354t338.5 -139
q205 0 334 135t129 334v2v10v2v2v2v2v2v2v2v11v2v2v2v2v2v2q0 95 -30.5 179t-87.5 148.5t-146 102t-199 37.5z" />
    <glyph glyph-name="acircumflex" unicode="&#xe2;" 
d="M625 1405h63l164 -236h-59l-136 199l-137 -199h-59zM655 1077q248 0 390.5 -152.5t142.5 -398.5l2 -526h-72v244q-61 -124 -177.5 -197.5t-262.5 -73.5q-245 0 -400 154t-155 399q0 242 149.5 396.5t382.5 154.5zM655 1018q-205 0 -338 -139t-133 -353q0 -215 132.5 -354
t338.5 -139q205 0 334 135t129 334v2v10v2v2v2v2v2v2v2v11v2v2v2v2v2v2q0 95 -30.5 179t-87.5 148.5t-146 102t-199 37.5z" />
    <glyph glyph-name="atilde" unicode="&#xe3;" 
d="M362 1153h-59q27 156 199 156q42 0 82 -18t67.5 -39.5t67.5 -39.5t82 -18q59 0 102 34.5t49 84.5h58q-21 -83 -70 -125.5t-137 -42.5q-55 0 -101.5 18t-72.5 39.5t-60 39.5t-67 18q-61 0 -97.5 -29t-42.5 -78zM655 1077q248 0 390.5 -152.5t142.5 -398.5l2 -526h-72v244
q-61 -124 -177.5 -197.5t-262.5 -73.5q-245 0 -400 154t-155 399q0 242 149.5 396.5t382.5 154.5zM655 1018q-205 0 -338 -139t-133 -353q0 -215 132.5 -354t338.5 -139q205 0 334 135t129 334v2v10v2v2v2v2v2v2v2v11v2v2v2v2v2v2q0 95 -30.5 179t-87.5 148.5t-146 102
t-199 37.5z" />
    <glyph glyph-name="adieresis" unicode="&#xe4;" 
d="M399 1231q0 27 16.5 43t45.5 16q26 0 42.5 -16.5t16.5 -42.5q0 -29 -16.5 -46.5t-42.5 -17.5q-29 0 -45.5 17.5t-16.5 46.5zM793 1231q0 27 16 43t45 16q26 0 42.5 -16.5t16.5 -42.5q0 -29 -16.5 -46.5t-42.5 -17.5q-29 0 -45 17t-16 47zM655 1077q248 0 390.5 -152.5
t142.5 -398.5l2 -526h-72v244q-61 -124 -177.5 -197.5t-262.5 -73.5q-245 0 -400 154t-155 399q0 242 149.5 396.5t382.5 154.5zM655 1018q-205 0 -338 -139t-133 -353q0 -215 132.5 -354t338.5 -139q205 0 334 135t129 334v2v10v2v2v2v2v2v2v2v11v2v2v2v2v2v2
q0 95 -30.5 179t-87.5 148.5t-146 102t-199 37.5z" />
    <glyph glyph-name="aring" unicode="&#xe5;" 
d="M465 1227q0 85 53.5 139.5t138.5 54.5t139 -54.5t54 -139.5q0 -86 -53 -142q-3 -3 -23 -18q50 -8 107 -31q148 -61 227.5 -194t79.5 -316l2 -526h-72v244q-61 -124 -177.5 -197.5t-262.5 -73.5q-245 0 -400 154t-155 399q0 181 85 315t232 195q49 22 101 31q-3 3 -10.5 9
t-10.5 9q-55 55 -55 142zM510 1227q0 -65 41.5 -106.5t105.5 -41.5t106 41.5t42 106.5q0 63 -42.5 104t-105.5 41t-105 -41t-42 -104zM655 1018q-205 0 -338 -139t-133 -353q0 -215 132.5 -354t338.5 -139q205 0 334 135t129 334v2v10v2v2v2v2v2v2v2v11v2v2v2v2v2v2
q0 95 -30.5 179t-87.5 148.5t-146 102t-199 37.5z" />
    <glyph glyph-name="ae" unicode="&#xe6;" horiz-adv-x="2314" 
d="M655 1077q184 0 312.5 -87t185.5 -240q1 -3 2 -8.5t2 -8.5q1 3 4 10.5t4 10.5q61 151 190.5 237t301.5 86q236 0 385 -153.5t149 -388.5v-13v-2v-2v-2v-4v-23v-2v-2v-2v-2v-2h-1001q12 -188 155.5 -317t348.5 -129q133 0 232 58.5t151 154.5h71q-79 -140 -191 -206.5
t-267 -66.5q-250 0 -406 156q-53 51 -94 127v-256h-72v244q-61 -124 -177.5 -197.5t-262.5 -73.5q-246 0 -400.5 153.5t-154.5 399.5q0 242 149.5 396.5t382.5 154.5zM655 1018q-206 0 -338.5 -139t-132.5 -353q0 -216 132 -354.5t339 -138.5q205 0 334 135t129 334v24v25
q0 95 -30.5 179t-87.5 148.5t-146 102t-199 37.5zM1188 535h942q-5 207 -134 344t-339 137q-107 0 -196.5 -39.5t-148.5 -106.5t-91.5 -153.5t-32.5 -181.5z" />
    <glyph glyph-name="ccedilla" unicode="&#xe7;" horiz-adv-x="1267" 
d="M659 1077q105 0 201 -39t172 -116.5t111 -182.5h-76q-50 126 -165.5 201.5t-244.5 75.5q-138 0 -246 -68t-164.5 -179t-56.5 -243t56 -243t164.5 -179.5t248.5 -68.5q129 0 247.5 76.5t162.5 203.5l74 -2q-26 -98 -105 -176.5t-176 -119.5t-192 -44v-41h39
q94 0 148 -49.5t54 -140.5q0 -93 -54.5 -144t-147.5 -51h-119v58h119q67 0 106 35.5t39 101.5q0 65 -39 100t-106 35h-93v96q-220 17 -356.5 171.5t-136.5 381.5q0 156 67.5 281.5t190.5 197.5t278 72z" />
    <glyph glyph-name="egrave" unicode="&#xe8;" 
d="M676 1167h-43l-234 293h82zM1075 246h72q-79 -140 -191.5 -206.5t-267.5 -66.5q-250 0 -407.5 155.5t-157.5 403.5q0 239 151.5 392t380.5 153q236 0 385.5 -153.5t149.5 -388.5v-11v-2v0v-4v0v0v-2v-2v0v-2v-2v0v-23v0v-4v0v0v-2v0v0v-2h-1002q12 -188 155.5 -317
t348.5 -129q133 0 232 58.5t151 154.5zM186 535h942q-5 207 -134 344t-339 137q-107 0 -196.5 -39.5t-148.5 -106.5t-91.5 -153.5t-32.5 -181.5z" />
    <glyph glyph-name="eacute" unicode="&#xe9;" 
d="M633 1167l194 293h82l-233 -293h-43zM1075 246h72q-79 -140 -191.5 -206.5t-267.5 -66.5q-250 0 -407.5 155.5t-157.5 403.5q0 239 151.5 392t380.5 153q236 0 385.5 -153.5t149.5 -388.5v-11v-2v0v-4v0v0v-2v-2v0v-2v-2v0v-23v0v-4v0v0v-2v0v0v-2h-1002
q12 -188 155.5 -317t348.5 -129q133 0 232 58.5t151 154.5zM186 535h942q-5 207 -134 344t-339 137q-107 0 -196.5 -39.5t-148.5 -106.5t-91.5 -153.5t-32.5 -181.5z" />
    <glyph glyph-name="ecircumflex" unicode="&#xea;" 
d="M625 1405h63l164 -236h-59l-136 199l-137 -199h-59zM1075 246h72q-79 -140 -191.5 -206.5t-267.5 -66.5q-250 0 -407.5 155.5t-157.5 403.5q0 239 151.5 392t380.5 153q236 0 385.5 -153.5t149.5 -388.5v-11v-2v0v-4v0v0v-2v-2v0v-2v-2v0v-23v0v-4v0v0v-2v0v0v-2h-1002
q12 -188 155.5 -317t348.5 -129q133 0 232 58.5t151 154.5zM186 535h942q-5 207 -134 344t-339 137q-107 0 -196.5 -39.5t-148.5 -106.5t-91.5 -153.5t-32.5 -181.5z" />
    <glyph glyph-name="edieresis" unicode="&#xeb;" 
d="M399 1231q0 27 16.5 43t45.5 16q26 0 42.5 -16.5t16.5 -42.5q0 -29 -16.5 -46.5t-42.5 -17.5q-29 0 -45.5 17.5t-16.5 46.5zM793 1231q0 27 16 43t45 16q26 0 42.5 -16.5t16.5 -42.5q0 -29 -16.5 -46.5t-42.5 -17.5q-29 0 -45 17t-16 47zM1075 246h72
q-79 -140 -191.5 -206.5t-267.5 -66.5q-250 0 -407.5 155.5t-157.5 403.5q0 239 151.5 392t380.5 153q236 0 385.5 -153.5t149.5 -388.5v-11v-2v0v-4v0v0v-2v-2v0v-2v-2v0v-23v0v-4v0v0v-2v0v0v-2h-1002q12 -188 155.5 -317t348.5 -129q133 0 232 58.5t151 154.5zM186 535
h942q-5 207 -134 344t-339 137q-107 0 -196.5 -39.5t-148.5 -106.5t-91.5 -153.5t-32.5 -181.5z" />
    <glyph glyph-name="igrave" unicode="&#xec;" horiz-adv-x="368" 
d="M154 0v1051h61v-1051h-61zM203 1167h-43l-234 293h82z" />
    <glyph glyph-name="iacute" unicode="&#xed;" horiz-adv-x="368" 
d="M154 0v1051h61v-1051h-61zM162 1167l194 293h82l-233 -293h-43z" />
    <glyph glyph-name="icircumflex" unicode="&#xee;" horiz-adv-x="368" 
d="M154 0v1051h61v-1051h-61zM152 1405h63l164 -236h-60l-135 199l-137 -199h-59z" />
    <glyph glyph-name="idieresis" unicode="&#xef;" horiz-adv-x="368" 
d="M-74 1231q0 27 16.5 43t45.5 16q26 0 42.5 -16.5t16.5 -42.5q0 -29 -16.5 -46.5t-42.5 -17.5q-29 0 -45.5 17.5t-16.5 46.5zM319 1231q0 27 16.5 43t45.5 16q26 0 42.5 -16.5t16.5 -42.5q0 -29 -16.5 -46.5t-42.5 -17.5q-29 0 -45.5 17.5t-16.5 46.5zM154 0v1051h61
v-1051h-61z" />
    <glyph glyph-name="eth" unicode="&#xf0;" horiz-adv-x="1140" 
d="M397 1507l27 43q153 -71 240 -147l223 137l26 -43l-213 -127q318 -318 318 -813q0 -89 -15 -170.5t-49.5 -156.5t-85.5 -130t-128.5 -87.5t-172.5 -32.5q-212 0 -328 131t-116 346q0 137 53 248.5t158 179t244 67.5q251 0 368 -157q-30 156 -105.5 301t-185.5 247
l-264 -159l-26 41l251 151q-97 81 -219 131zM578 901q-187 0 -293.5 -126t-106.5 -318q0 -191 100.5 -308.5t288.5 -117.5q76 0 138 22.5t104 63.5t73 93t48 116t25 127t8 131q0 66 -21 119.5t-57 89.5t-85.5 61t-105 36t-116.5 11z" />
    <glyph glyph-name="ntilde" unicode="&#xf1;" horiz-adv-x="1331" 
d="M373 1153h-60q27 156 199 156q42 0 82 -18t67.5 -39.5t67.5 -39.5t82 -18q59 0 102.5 34.5t49.5 84.5h57q-21 -83 -70 -125.5t-137 -42.5q-55 0 -101.5 18t-72.5 39.5t-60 39.5t-67 18q-61 0 -97 -29t-42 -78zM123 0v1051h61v-289q67 148 192.5 231.5t289.5 83.5
q241 0 390.5 -174t149.5 -450v-453h-59v455q0 249 -132 405t-349 156q-215 0 -348.5 -158t-133.5 -403v-455h-61z" />
    <glyph glyph-name="ograve" unicode="&#xf2;" 
d="M676 1167h-43l-234 293h82zM1188 526q0 -242 -150 -397.5t-383 -155.5q-232 0 -382 156t-150 397t150 396t382 155q233 0 383 -155t150 -396zM1126 526q0 214 -133 353t-338 139t-338 -139t-133 -353q0 -215 132.5 -354t338.5 -139t338.5 139t132.5 354z" />
    <glyph glyph-name="oacute" unicode="&#xf3;" 
d="M633 1167l194 293h82l-233 -293h-43zM1188 526q0 -242 -150 -397.5t-383 -155.5q-232 0 -382 156t-150 397t150 396t382 155q233 0 383 -155t150 -396zM1126 526q0 214 -133 353t-338 139t-338 -139t-133 -353q0 -215 132.5 -354t338.5 -139t338.5 139t132.5 354z" />
    <glyph glyph-name="ocircumflex" unicode="&#xf4;" 
d="M625 1405h63l164 -236h-59l-136 199l-137 -199h-59zM1188 526q0 -242 -150 -397.5t-383 -155.5q-232 0 -382 156t-150 397t150 396t382 155q233 0 383 -155t150 -396zM1126 526q0 214 -133 353t-338 139t-338 -139t-133 -353q0 -215 132.5 -354t338.5 -139t338.5 139
t132.5 354z" />
    <glyph glyph-name="otilde" unicode="&#xf5;" 
d="M362 1153h-59q27 156 199 156q42 0 82 -18t67.5 -39.5t67.5 -39.5t82 -18q59 0 102 34.5t49 84.5h58q-21 -83 -70 -125.5t-137 -42.5q-55 0 -101.5 18t-72.5 39.5t-60 39.5t-67 18q-61 0 -97.5 -29t-42.5 -78zM1188 526q0 -242 -150 -397.5t-383 -155.5q-232 0 -382 156
t-150 397t150 396t382 155q233 0 383 -155t150 -396zM1126 526q0 214 -133 353t-338 139t-338 -139t-133 -353q0 -215 132.5 -354t338.5 -139t338.5 139t132.5 354z" />
    <glyph glyph-name="odieresis" unicode="&#xf6;" 
d="M399 1231q0 27 16.5 43t45.5 16q26 0 42.5 -16.5t16.5 -42.5q0 -29 -16.5 -46.5t-42.5 -17.5q-29 0 -45.5 17.5t-16.5 46.5zM793 1231q0 27 16 43t45 16q26 0 42.5 -16.5t16.5 -42.5q0 -29 -16.5 -46.5t-42.5 -17.5q-29 0 -45 17t-16 47zM1188 526q0 -242 -150 -397.5
t-383 -155.5q-232 0 -382 156t-150 397t150 396t382 155q233 0 383 -155t150 -396zM1126 526q0 214 -133 353t-338 139t-338 -139t-133 -353q0 -215 132.5 -354t338.5 -139t338.5 139t132.5 354z" />
    <glyph glyph-name="divide" unicode="&#xf7;" horiz-adv-x="1169" 
d="M524 1130q0 27 16.5 43.5t45.5 16.5q26 0 43.5 -17t17.5 -43q0 -29 -17 -45t-44 -16q-29 0 -45.5 16t-16.5 45zM125 721v59h922v-59h-922zM524 330q0 29 16.5 45t45.5 16q27 0 44 -16t17 -45q0 -26 -17.5 -43t-43.5 -17q-29 0 -45.5 16.5t-16.5 43.5z" />
    <glyph glyph-name="oslash" unicode="&#xf8;" 
d="M1188 526q0 -242 -150 -397.5t-383 -155.5q-128 0 -227 45l-76 -145h-63l90 172q-120 70 -188 196t-68 285q0 241 150 396t382 155q127 0 226 -45l84 166h65l-98 -192q120 -70 188 -195.5t68 -284.5zM406 100l446 877q-90 41 -197 41q-205 0 -338 -139t-133 -353
q0 -139 59 -250.5t163 -175.5zM1126 526q0 140 -59 250t-164 174l-446 -876q97 -41 198 -41q206 0 338.5 139t132.5 354z" />
    <glyph glyph-name="ugrave" unicode="&#xf9;" horiz-adv-x="1331" 
d="M686 1167h-43l-233 293h82zM1208 1051v-1051h-61v281q-67 -148 -192 -232t-289 -84q-239 0 -390 174.5t-151 450.5v461h59v-463q0 -249 133 -405t349 -156q215 0 348 158t133 403v463h61z" />
    <glyph glyph-name="uacute" unicode="&#xfa;" horiz-adv-x="1331" 
d="M643 1167l195 293h82l-234 -293h-43zM1208 1051v-1051h-61v281q-67 -148 -192 -232t-289 -84q-239 0 -390 174.5t-151 450.5v461h59v-463q0 -249 133 -405t349 -156q215 0 348 158t133 403v463h61z" />
    <glyph glyph-name="ucircumflex" unicode="&#xfb;" horiz-adv-x="1331" 
d="M635 1405h63l164 -236h-59l-135 199l-138 -199h-59zM1208 1051v-1051h-61v281q-67 -148 -192 -232t-289 -84q-239 0 -390 174.5t-151 450.5v461h59v-463q0 -249 133 -405t349 -156q215 0 348 158t133 403v463h61z" />
    <glyph glyph-name="udieresis" unicode="&#xfc;" horiz-adv-x="1331" 
d="M410 1231q0 27 16 43t45 16q26 0 42.5 -16.5t16.5 -42.5q0 -29 -16.5 -46.5t-42.5 -17.5q-29 0 -45 17t-16 47zM803 1231q0 27 16 43t45 16q26 0 43 -16.5t17 -42.5q0 -29 -16.5 -46.5t-43.5 -17.5q-29 0 -45 17t-16 47zM1208 1051v-1051h-61v281q-67 -148 -192 -232
t-289 -84q-239 0 -390 174.5t-151 450.5v461h59v-463q0 -249 133 -405t349 -156q215 0 348 158t133 403v463h61z" />
    <glyph glyph-name="yacute" unicode="&#xfd;" horiz-adv-x="1267" 
d="M496 1167l194 293h82l-233 -293h-43zM195 -391h131q32 0 60.5 12t55.5 40t48 57t48 82.5t46.5 95t50.5 114.5l-512 1041h72l479 -969l403 969h68l-438 -1051q-29 -74 -55.5 -131t-63.5 -120.5t-74 -104.5t-84.5 -68t-97.5 -27h-137v60z" />
    <glyph glyph-name="thorn" unicode="&#xfe;" 
d="M123 -260v1511h61v-444q67 129 189.5 201.5t281.5 72.5q231 0 382 -157.5t151 -397.5q0 -239 -155 -395t-394 -156q-144 0 -264 66t-191 188v-489h-61zM657 35q204 0 336.5 138.5t132.5 352.5t-133.5 354t-335.5 140q-130 0 -238 -57.5t-171.5 -162t-63.5 -233.5v-80
q0 -197 137 -324.5t336 -127.5z" />
    <glyph glyph-name="ydieresis" unicode="&#xff;" horiz-adv-x="1267" 
d="M377 1231q0 27 16 43t45 16q26 0 43 -16.5t17 -42.5q0 -29 -16.5 -46.5t-43.5 -17.5q-29 0 -45 17t-16 47zM770 1231q0 27 16 43t45 16q26 0 43 -16.5t17 -42.5q0 -29 -16.5 -46.5t-43.5 -17.5q-29 0 -45 17t-16 47zM195 -391h131q32 0 60.5 12t55.5 40t48 57t48 82.5
t46.5 95t50.5 114.5l-512 1041h72l479 -969l403 969h68l-438 -1051q-29 -74 -55.5 -131t-63.5 -120.5t-74 -104.5t-84.5 -68t-97.5 -27h-137v60z" />
    <glyph glyph-name="Dcroat" unicode="&#x110;" horiz-adv-x="1286" 
d="M289 -2v700h-209v62h209v698l149 2h2h2h9h4h2h2h2h2q209 0 368 -91t245.5 -256.5t86.5 -381.5q0 -161 -49.5 -294.5t-141.5 -229t-228.5 -149.5t-305.5 -58zM354 59h92q298 0 475 186.5t177 485.5q0 297 -177 483.5t-475 186.5h-92v-641h242v-62h-242v-639z" />
    <glyph glyph-name="dcroat" unicode="&#x111;" 
d="M1126 1460h62v-252h211v-61h-211v-623q0 -253 -148.5 -404t-384.5 -151q-230 0 -381 158t-151 397q0 242 146.5 396.5t383.5 154.5q153 0 275 -68.5t198 -193.5v334h-208v61h208v252zM184 524q5 -216 136 -354.5t335 -138.5q208 0 339.5 133.5t131.5 359.5v13
q0 203 -133.5 340t-337.5 137q-206 0 -338.5 -137.5t-132.5 -352.5z" />
    <glyph glyph-name="dotlessi" unicode="&#x131;" horiz-adv-x="368" 
d="M154 0v1051h61v-1051h-61z" />
    <glyph glyph-name="Lslash" unicode="&#x141;" horiz-adv-x="1337" 
d="M332 0v559l-213 -213l-49 47l262 262v805h61v-743l269 268l49 -47l-318 -317v-562h821v-59h-882z" />
    <glyph glyph-name="lslash" unicode="&#x142;" horiz-adv-x="665" 
d="M584 0h-49q-103 0 -163.5 66.5t-60.5 179.5v317l-168 -168l-45 45l213 213v807h62v-745l188 188l45 -45l-233 -233v-400q0 -70 46 -118t118 -48h47v-59z" />
    <glyph glyph-name="OE" unicode="&#x152;" horiz-adv-x="2689" 
d="M123 729q0 227 100.5 403t273.5 270.5t386 94.5q159 0 297.5 -54t242.5 -155q99 -96 158 -235v407h963v-59h-902v-639h820v-64h-820v-639h922v-59h-983v410q-88 -208 -273 -327.5t-425 -119.5q-157 0 -296 55t-241.5 153t-162.5 243t-60 315zM883 23h2h4v0h2h2
q95 0 189.5 25.5t184.5 82t159 137t111 200.5t42 263q0 94 -24 190t-79 189.5t-133.5 166t-198 117t-263.5 44.5q-65 0 -132.5 -12.5t-136 -40.5t-130.5 -68t-116.5 -98t-94 -128.5t-62.5 -163t-23 -196.5q0 -143 42.5 -263t112.5 -200.5t161.5 -137t187.5 -82t193 -25.5z
" />
    <glyph glyph-name="oe" unicode="&#x153;" horiz-adv-x="2316" 
d="M2079 246h71q-79 -140 -191 -206.5t-267 -66.5q-185 0 -323 89t-200 243q-8 15 -10 27q-2 -12 -10 -27q-59 -153 -190.5 -242.5t-303.5 -89.5q-232 0 -382 156t-150 397t150 396t382 155q172 0 303.5 -88t190.5 -239q1 -5 4.5 -13.5t3.5 -9.5q1 5 10 27q61 151 190.5 237
t301.5 86q236 0 385 -153.5t149 -388.5v-11v-2v0v-4v0v0v-2v-2v0v-2v-2v0v-23v0v-4v0v0v-2v0v0v-2h-1001q12 -188 155.5 -317t348.5 -129q133 0 232 58.5t151 154.5zM1126 526q0 214 -133 353t-338 139t-338 -139t-133 -353q0 -215 132.5 -354t338.5 -139t338.5 139
t132.5 354zM1190 535h942q-5 207 -134 344t-339 137q-107 0 -196.5 -39.5t-148.5 -106.5t-91.5 -153.5t-32.5 -181.5z" />
    <glyph glyph-name="Scaron" unicode="&#x160;" horiz-adv-x="1269" 
d="M831 1815l-163 -236h-64l-164 236h60l137 -199l135 199h59zM123 346h63q8 -86 75 -161.5t169.5 -120t210.5 -44.5q88 0 163 18t138.5 56.5t100 107t36.5 160.5q0 80 -32.5 139t-87.5 94t-126.5 59t-150.5 41.5t-158 35.5t-150.5 46.5t-126.5 68t-87.5 107t-32.5 157.5
q0 124 69.5 214t183 133.5t255.5 43.5q200 0 347.5 -117.5t164.5 -285.5h-60q-17 144 -146 246t-300 102q-89 0 -170.5 -22t-144.5 -62.5t-100.5 -104.5t-37.5 -141q0 -83 32.5 -143.5t88 -96.5t126.5 -61.5t150 -42.5t158.5 -35t150.5 -45t126.5 -65t88 -102.5t32.5 -151.5
q0 -109 -38 -190.5t-106.5 -130t-155.5 -72t-192 -23.5q-128 0 -237 43t-187 132.5t-102 213.5z" />
    <glyph glyph-name="scaron" unicode="&#x161;" horiz-adv-x="1003" 
d="M698 1405l-163 -236h-64l-164 236h60l137 -199l135 199h59zM104 315l64 -2q17 -120 111 -198.5t223 -83.5h2v0h6h2h2h4h2q139 0 225 59q95 62 95 176v8v2v3v2v2q-2 35 -16.5 64t-44.5 51.5t-59 38.5t-78 31.5t-82.5 24t-90.5 21.5q-75 17 -133 38.5t-109.5 53.5t-79.5 79
t-28 106v2v6v0v2v2v2q2 60 26.5 108t61.5 78t86 50t96.5 28t95.5 8h9h4h4q92 -3 167.5 -27.5t136.5 -83t81 -147.5h-64q-61 187 -321 199q-10 2 -29 2q-41 0 -87.5 -11t-94.5 -34t-80.5 -68.5t-34.5 -105.5v-2v-2v0v-2q0 -41 20 -74.5t49.5 -56t80.5 -43.5t93.5 -33.5
t108.5 -28.5q62 -15 107.5 -29t97.5 -37t85 -50t56 -67t25 -89v-11v-2v-2v-2v-2q0 -141 -108 -221q-100 -74 -277 -74h-2h-6h-2h-2h-2h-2h-2q-72 4 -137 26.5t-120 63t-91 105.5t-44 147z" />
    <glyph glyph-name="Ydieresis" unicode="&#x178;" horiz-adv-x="1460" 
d="M473 1640q0 27 16.5 43.5t45.5 16.5q26 0 42.5 -17t16.5 -43q0 -29 -16 -46t-43 -17q-29 0 -45.5 17t-16.5 46zM866 1640q0 27 16.5 43.5t45.5 16.5q26 0 42.5 -17t16.5 -43q0 -29 -16 -46t-43 -17q-29 0 -45.5 17t-16.5 46zM698 0v463l-573 997h72l530 -925l539 925h69
l-575 -997v-463h-62z" />
    <glyph glyph-name="Zcaron" unicode="&#x17d;" horiz-adv-x="1372" 
d="M123 0l1007 1401h-968v59h1087l-997 -1401h917v-59h-1046zM883 1815l-164 -236h-64l-163 236h59l137 -199l135 199h60z" />
    <glyph glyph-name="zcaron" unicode="&#x17e;" horiz-adv-x="1148" 
d="M145 1051h859v-39l-771 -944h791v-68h-899v41l768 942h-748v68zM770 1405l-164 -236h-63l-164 236h59l137 -199l136 199h59z" />
    <glyph glyph-name="florin" unicode="&#x192;" horiz-adv-x="1073" 
d="M205 -141h-82l18 55h76q51 0 86 13t56.5 42t34 63.5t22.5 88.5l135 780h-197l15 55h188l45 254q20 118 85 184t179 66h82l-16 -51h-76q-91 0 -131 -49.5t-59 -151.5l-45 -252h237l-14 -55h-228l-141 -784q-11 -62 -28 -105.5t-47 -80t-78.5 -54.5t-116.5 -18z" />
    <glyph glyph-name="circumflex" unicode="&#x2c6;" horiz-adv-x="628" 
d="M283 1405h63l164 -236h-59l-136 199l-137 -199h-59z" />
    <glyph glyph-name="caron" unicode="&#x2c7;" horiz-adv-x="628" 
d="M510 1405l-164 -236h-63l-164 236h59l137 -199l136 199h59z" />
    <glyph glyph-name="breve" unicode="&#x2d8;" horiz-adv-x="741" 
d="M123 1397h72q13 -82 60 -123t116 -41q66 0 112.5 41t63.5 123h71q-20 -109 -88 -169.5t-159 -60.5t-161 61t-87 169z" />
    <glyph glyph-name="dotaccent" unicode="&#x2d9;" horiz-adv-x="368" 
d="M123 1225q0 27 16 43t45 16t45.5 -16t16.5 -43q0 -31 -16.5 -47.5t-45.5 -16.5q-61 0 -61 64z" />
    <glyph glyph-name="ring" unicode="&#x2da;" horiz-adv-x="630" 
d="M123 1227q0 85 53.5 139.5t138.5 54.5t139 -54.5t54 -139.5q0 -86 -54 -141.5t-139 -55.5t-138.5 55.5t-53.5 141.5zM168 1227q0 -65 41.5 -106.5t105.5 -41.5t106 41.5t42 106.5q0 63 -42.5 104t-105.5 41t-105 -41t-42 -104z" />
    <glyph glyph-name="ogonek" unicode="&#x2db;" horiz-adv-x="624" 
d="M440 31v-31q-119 -28 -188.5 -85t-69.5 -144q0 -91 81.5 -134.5t236.5 -56.5v-51q-377 0 -377 225q0 112 81.5 181t213.5 96h22z" />
    <glyph glyph-name="tilde" unicode="&#x2dc;" horiz-adv-x="1075" 
d="M244 1153h-60q27 156 199 156q42 0 82 -18t67.5 -39.5t67.5 -39.5t82 -18q59 0 102.5 34.5t49.5 84.5h57q-21 -83 -70 -125.5t-137 -42.5q-55 0 -101.5 18t-72.5 39.5t-60 39.5t-67 18q-61 0 -97 -29t-42 -78z" />
    <glyph glyph-name="hungarumlaut" unicode="&#x2dd;" horiz-adv-x="714" 
d="M123 1167l194 293h82l-233 -293h-43zM315 1167l195 293h82l-234 -293h-43z" />
    <glyph glyph-name="uni03BC" unicode="&#x3bc;" horiz-adv-x="1128" 
d="M557 4q-119 0 -219.5 58t-153.5 149v-487h-61v1327h61v-598q0 -172 106 -281t273 -109t273 116t106 296v576h62v-578q0 -212 -120 -340.5t-327 -128.5z" />
    <glyph glyph-name="endash" unicode="&#x2013;" horiz-adv-x="1415" 
d="M125 676h1167v-68h-1167v68z" />
    <glyph glyph-name="emdash" unicode="&#x2014;" horiz-adv-x="1824" 
d="M125 608v68h1577v-68h-1577z" />
    <glyph glyph-name="quoteleft" unicode="&#x2018;" horiz-adv-x="382" 
d="M258 999q0 -27 -16.5 -43t-46.5 -16q-31 0 -50.5 22t-19.5 58q0 138 96 215l19 -23q-56 -56 -56 -135v-16q6 2 15 2q24 0 41.5 -18t17.5 -46z" />
    <glyph glyph-name="quoteright" unicode="&#x2019;" horiz-adv-x="382" 
d="M125 1174q0 61 61 61q32 0 52 -22.5t20 -57.5q0 -144 -96 -215l-19 21q56 56 56 141v10q-6 -2 -15 -2q-24 0 -41.5 18t-17.5 46z" />
    <glyph glyph-name="quotesinglbase" unicode="&#x201a;" horiz-adv-x="382" 
d="M125 -66q0 27 16.5 44.5t44.5 17.5q32 0 52 -22.5t20 -57.5q0 -144 -96 -215l-19 20q56 56 56 142v10q-6 -2 -15 -2q-24 0 -41.5 17.5t-17.5 45.5z" />
    <glyph glyph-name="quotedblleft" unicode="&#x201c;" horiz-adv-x="634" 
d="M510 999q0 -27 -17 -43t-47 -16q-31 0 -51 22t-20 58q0 136 96 215l21 -23q-56 -53 -56 -133v-18q6 2 15 2q24 0 41.5 -18t17.5 -46zM258 999q0 -27 -16.5 -43t-46.5 -16q-31 0 -50.5 22t-19.5 58q0 138 96 215l19 -23q-56 -56 -56 -135v-16q6 2 15 2q24 0 41.5 -18
t17.5 -46z" />
    <glyph glyph-name="quotedblright" unicode="&#x201d;" horiz-adv-x="634" 
d="M125 1174q0 61 61 61q32 0 52 -22.5t20 -57.5q0 -144 -96 -215l-19 21q56 56 56 141v10q-6 -2 -15 -2q-24 0 -41.5 18t-17.5 46zM375 1174q0 29 17 45t46 16q32 0 52 -22.5t20 -57.5q0 -145 -96 -215l-19 21q56 56 56 141v10q-6 -2 -15 -2q-26 0 -43.5 18t-17.5 46z" />
    <glyph glyph-name="quotedblbase" unicode="&#x201e;" horiz-adv-x="634" 
d="M125 -61q0 27 16 44t45 17q32 0 52 -22.5t20 -57.5q0 -144 -96 -215l-19 21q56 56 56 141v10q-6 -2 -15 -2q-24 0 -41.5 18t-17.5 46zM375 -61q0 27 17 44t46 17q32 0 52 -22.5t20 -57.5q0 -145 -96 -215l-19 21q56 56 56 141v10q-6 -2 -15 -2q-26 0 -43.5 17.5
t-17.5 46.5z" />
    <glyph glyph-name="dagger" unicode="&#x2020;" horiz-adv-x="1005" 
d="M125 752v65h344v400h70v-400h342v-65h-342v-1086h-70v1086h-344z" />
    <glyph glyph-name="daggerdbl" unicode="&#x2021;" horiz-adv-x="1005" 
d="M125 752v65h344v400h70v-400h342v-65h-342v-457h342v-64h-342v-399h-70v399h-344v64h344v457h-344z" />
    <glyph glyph-name="bullet" unicode="&#x2022;" horiz-adv-x="456" 
d="M123 635q0 47 28.5 75.5t75.5 28.5q48 0 77.5 -28.5t29.5 -75.5t-30 -76t-77 -29t-75.5 29t-28.5 76z" />
    <glyph glyph-name="ellipsis" unicode="&#x2026;" horiz-adv-x="1122" 
d="M123 43q0 61 61 61q29 0 45.5 -16t16.5 -45q0 -30 -16.5 -48t-45.5 -18t-45 18t-16 48zM500 43q0 61 61 61q29 0 45.5 -16t16.5 -45q0 -30 -16.5 -48t-45.5 -18t-45 18t-16 48zM877 43q0 61 61 61t61 -61q0 -30 -16 -48t-45 -18t-45 18t-16 48z" />
    <glyph glyph-name="perthousand" unicode="&#x2030;" horiz-adv-x="2783" 
d="M492 1419q166 0 267 -101t101 -265q0 -166 -101 -267.5t-267 -101.5q-164 0 -265.5 101.5t-101.5 267.5q0 164 101.5 265t265.5 101zM492 1360q-140 0 -225 -84t-85 -223q0 -141 85 -226.5t225 -85.5t224.5 85.5t84.5 226.5q0 139 -84.5 223t-224.5 84zM434 0l887 1339
h65l-884 -1339h-68zM1399 776q167 0 268.5 -100.5t101.5 -265.5q0 -166 -101.5 -267.5t-268.5 -101.5q-163 0 -264 102t-101 267q0 164 101 265t264 101zM2290 776q166 0 267 -101t101 -265q0 -166 -101 -267.5t-267 -101.5q-164 0 -264.5 101.5t-100.5 267.5
q0 164 100.5 265t264.5 101zM1399 719q-137 0 -222 -85t-85 -224t85 -224.5t222 -85.5q141 0 227 85t86 225q0 139 -86 224t-227 85zM2290 719q-137 0 -222.5 -85t-85.5 -224t85.5 -224.5t222.5 -85.5q141 0 226 85t85 225t-85 224.5t-226 84.5z" />
    <glyph glyph-name="guilsinglleft" unicode="&#x2039;" horiz-adv-x="964" 
d="M123 731l717 443v-76l-592 -367l592 -369v-75z" />
    <glyph glyph-name="guilsinglright" unicode="&#x203a;" horiz-adv-x="964" 
d="M840 731l-717 -444v75l594 369l-594 367v76z" />
    <glyph glyph-name="fraction" unicode="&#x2044;" horiz-adv-x="1259" 
d="M123 0l887 1339h65l-887 -1339h-65z" />
    <glyph glyph-name="uni2074" unicode="&#x2074;" horiz-adv-x="796" 
d="M176 926v-6h342v485zM518 870h-393v70l369 514h75v-534h103v-50h-103v-188h-51v188z" />
    <glyph glyph-name="Euro" unicode="&#x20ac;" horiz-adv-x="1943" 
d="M123 573v64h252q-6 47 -6 94q0 51 8 123h-254v64h264q54 273 252.5 428t486.5 155q256 0 446.5 -127t246.5 -354h-60q-37 133 -136 231t-227 145.5t-268 47.5q-259 0 -441 -141t-234 -385h745v-64h-758q-8 -72 -8 -125q0 -45 6 -92h760v-64h-752q49 -255 237 -401.5
t445 -146.5q220 0 392.5 113.5t238.5 303.5h60q-59 -208 -247.5 -343.5t-445.5 -135.5q-297 0 -498 162t-245 448h-260z" />
    <glyph glyph-name="trademark" unicode="&#x2122;" horiz-adv-x="1665" 
d="M346 672v690h-223v57h506v-57h-223v-690h-60zM762 672v753l389 -604l391 604v-753h-61v551l-328 -502l-328 502v-551h-63z" />
    <glyph glyph-name="minus" unicode="&#x2212;" horiz-adv-x="1087" 
d="M123 696v68h840v-68h-840z" />
    <glyph glyph-name="B.alt" horiz-adv-x="1361" 
d="M123 0v1460h665q177 0 293.5 -100.5t116.5 -255.5q0 -124 -72 -210.5t-198 -111.5q139 -34 225 -137t86 -260q0 -179 -113 -282t-358 -103h-645zM184 811h607q159 0 253.5 76.5t94.5 224.5q0 123 -98 206t-250 83h-607v-590zM184 59h588q408 0 408 320q0 167 -114.5 271
t-293.5 104h-588v-695z" />
    <glyph glyph-name="D.alt" horiz-adv-x="1120" 
d="M123 -303v2044h186q148 0 278 -83t219 -222t140 -323t51 -382q0 -285 -86.5 -520.5t-244.5 -374.5t-357 -139h-186zM188 -242h129q129 0 243.5 76.5t195.5 207t128.5 310.5t47.5 379q0 183 -47.5 356.5t-128 305t-196 211t-243.5 79.5h-129v-1925z" />
    <glyph glyph-name="N.alt" horiz-adv-x="1419" 
d="M123 -303v1771l1110 -1314v1587h61v-1749l-1110 1298v-1593h-61z" />
    <glyph glyph-name="A.alt" horiz-adv-x="1726" 
d="M864 1329l-473 -936h944zM47 -303h-72l889 1773l740 -1470h-72l-168 336h-1002z" />
    </font>
</defs>
</svg>
