<?xml version="1.0" standalone="no"?>
<!DOCTYPE svg PUBLIC "-//W3C//DTD SVG 1.1//EN" "http://www.w3.org/Graphics/SVG/1.1/DTD/svg11.dtd" >
<svg xmlns="http://www.w3.org/2000/svg" xmlns:xlink="http://www.w3.org/1999/xlink" version="1.1">
<metadata>
Created by FontForge 20201107 at Sun Sep  7 07:33:07 2025
 By 
Amenti (c) Igor Ovsyannykov 2023  All Rights Reserved
</metadata>
<defs>
<font id="Amenti-Medium" horiz-adv-x="1286" >
  <font-face 
    font-family="Amenti Med"
    font-weight="500"
    font-stretch="normal"
    units-per-em="2048"
    panose-1="0 0 0 0 0 0 0 0 0 0"
    ascent="1567"
    descent="-481"
    x-height="1051"
    cap-height="1460"
    bbox="-154 -512 2638 1909"
    underline-thickness="102"
    underline-position="-255"
    unicode-range="U+000D-FB02"
  />
<missing-glyph horiz-adv-x="512" 
 />
    <glyph glyph-name="fi" unicode="fi" horiz-adv-x="1136" 
d="M84 1219q0 144 78.5 230.5t206.5 86.5h313v-174h-256q-71 0 -109 -43t-38 -113v-155h747v-1051h-192v881h-555v-881h-195v1219zM805 1329q0 54 35 88.5t90 34.5t90 -34.5t35 -88.5t-34.5 -87.5t-90.5 -33.5t-90.5 33.5t-34.5 87.5z" />
    <glyph glyph-name="fl" unicode="fl" horiz-adv-x="1302" 
d="M84 1219q0 144 78.5 230.5t206.5 86.5h632v-1180q0 -83 41.5 -126.5t112.5 -43.5h86v-186h-141q-132 0 -212.5 86t-80.5 227v1049h-381q-71 0 -109 -43t-38 -113v-155h323v-170h-323v-881h-195v1219z" />
    <glyph glyph-name=".notdef" horiz-adv-x="512" 
 />
    <glyph glyph-name="uni0000" horiz-adv-x="0" 
 />
    <glyph glyph-name="uni0000" horiz-adv-x="0" 
 />
    <glyph glyph-name="uni000D" unicode="&#xd;" horiz-adv-x="512" 
 />
    <glyph glyph-name="space" unicode=" " horiz-adv-x="583" 
 />
    <glyph glyph-name="exclam" unicode="!" horiz-adv-x="415" 
d="M154 330l-50 1130h209l-51 -1130h-108zM84 70q0 54 34.5 87t90.5 33q55 0 89 -33t34 -87q0 -56 -34 -89.5t-89 -33.5q-56 0 -90.5 34t-34.5 89z" />
    <glyph glyph-name="quotedbl" unicode="&#x22;" horiz-adv-x="757" 
d="M84 702v734h195v-734h-195zM479 702v734h197v-734h-197z" />
    <glyph glyph-name="numbersign" unicode="#" horiz-adv-x="1556" 
d="M602 856l-70 -297h424l72 297h-426zM502 420l-101 -420h-161l98 420h-256l35 139h254l69 297h-258l35 139h256l100 439h164l-102 -439h424l104 439h162l-102 -439h252l-35 -139h-250l-70 -297h256l-35 -139h-254l-98 -420h-162l99 420h-424z" />
    <glyph glyph-name="dollar" unicode="$" horiz-adv-x="1310" 
d="M82 387h203q12 -117 124.5 -191.5t252.5 -74.5q68 0 130 13.5t117 43t88 84t33 127.5q0 59 -26.5 103t-71.5 69.5t-105.5 46.5t-128 32.5t-139.5 27.5t-139.5 32.5t-128 47t-105.5 70.5t-71.5 104t-26.5 147q0 98 38.5 179t105 134t153 84t186.5 37v205h174v-209
q187 -17 315.5 -135t153.5 -285h-202q-13 82 -67.5 143t-130.5 91t-163 30q-66 0 -129.5 -15.5t-117 -45.5t-86.5 -80t-33 -112q0 -66 32 -113.5t86.5 -74.5t125 -46t148.5 -33.5t156 -30.5t148.5 -44t125 -68t86.5 -107t32 -157q0 -107 -38.5 -194t-104.5 -143t-152 -87
t-185 -33v-235h-174v235q-201 7 -329.5 128t-159.5 300z" />
    <glyph glyph-name="percent" unicode="%" horiz-adv-x="1849" 
d="M455 1440q165 0 267.5 -103.5t102.5 -267.5q0 -167 -102 -270t-268 -103t-268.5 103t-102.5 270q0 163 103 267t268 104zM379 0l878 1341h138l-877 -1341h-139zM455 1305q-108 0 -174 -65t-66 -171q0 -109 65.5 -174.5t174.5 -65.5q106 0 170.5 65.5t64.5 174.5
q0 106 -64.5 171t-170.5 65zM1395 764q166 0 268 -102.5t102 -268.5t-102 -268t-268 -102t-267.5 102t-101.5 268t101.5 268.5t267.5 102.5zM1395 631q-106 0 -171 -66t-65 -172t65 -171.5t171 -65.5q108 0 173.5 65.5t65.5 171.5t-65.5 172t-173.5 66z" />
    <glyph glyph-name="ampersand" unicode="&#x26;" horiz-adv-x="1570" 
d="M1186 279l303 -279h-242l-180 158q-225 -209 -487 -209q-133 0 -245 49t-182.5 145.5t-70.5 223.5q0 81 24.5 148t70.5 116t98 83.5t120 63.5q-149 168 -149 328q0 167 124 273t320 106q191 0 309.5 -96.5t118.5 -249.5q0 -50 -14 -94.5t-35 -77.5t-58.5 -64t-70 -51.5
t-85.5 -44t-88.5 -37t-94.5 -33.5l393 -354q94 127 152 313h159q-38 -145 -83 -241.5t-107 -175.5zM424 1112q0 -128 141 -272q53 18 83 28.5t76 29.5t72 34t58 37.5t48.5 45t28 52.5t11.5 63q0 85 -72.5 144t-183.5 59q-113 0 -187.5 -60.5t-74.5 -160.5zM606 115
q187 0 344 147l-444 408q-108 -49 -169 -119.5t-61 -175.5q0 -117 99.5 -188.5t230.5 -71.5z" />
    <glyph glyph-name="quotesingle" unicode="'" horiz-adv-x="360" 
d="M84 702v734h195v-734h-195z" />
    <glyph glyph-name="parenleft" unicode="(" horiz-adv-x="622" 
d="M82 578q0 277 90 538.5t236 407.5l131 -92q-125 -150 -201 -383.5t-76 -470.5q0 -245 76 -479.5t201 -379.5l-131 -88q-146 146 -236 407t-90 540z" />
    <glyph glyph-name="parenright" unicode=")" horiz-adv-x="622" 
d="M539 578q0 -281 -88.5 -540.5t-235.5 -406.5l-133 88q126 142 202 378t76 481q0 237 -76.5 472.5t-201.5 381.5l133 92q147 -147 235.5 -406.5t88.5 -539.5z" />
    <glyph glyph-name="asterisk" unicode="*" horiz-adv-x="1015" 
d="M578 547h-140l4 340l-288 -176l-72 120l297 166l-297 164l72 121l288 -174l-4 340h140l-7 -340l291 174l72 -121l-297 -164l297 -166l-72 -120l-291 176z" />
    <glyph glyph-name="plus" unicode="+" horiz-adv-x="1005" 
d="M82 651v160h338v340h166v-340h336v-160h-336v-340h-166v340h-338z" />
    <glyph glyph-name="comma" unicode="," horiz-adv-x="423" 
d="M84 94q0 54 33.5 87.5t87.5 33.5q61 0 98 -45.5t37 -120.5q0 -103 -51.5 -189.5t-124.5 -131.5l-45 51q86 80 86 194h-10q-48 0 -79.5 34t-31.5 87z" />
    <glyph glyph-name="hyphen" unicode="-" horiz-adv-x="1005" 
d="M82 647v166h840v-166h-840z" />
    <glyph glyph-name="period" unicode="." horiz-adv-x="413" 
d="M82 96q0 54 34.5 87.5t90.5 33.5t90.5 -33.5t34.5 -87.5q0 -56 -35 -90.5t-90 -34.5t-90 34.5t-35 90.5z" />
    <glyph glyph-name="slash" unicode="/" horiz-adv-x="1155" 
d="M86 -186l840 1646h145l-840 -1646h-145z" />
    <glyph glyph-name="zero" unicode="0" horiz-adv-x="1411" 
d="M84 723q0 366 171 570t452 204q282 0 452 -203.5t170 -570.5q0 -358 -168.5 -566t-453.5 -208q-279 0 -451 209.5t-172 564.5zM293 723q0 -277 112.5 -433.5t301.5 -156.5q193 0 303 155t110 435q0 283 -115 438.5t-298 155.5q-184 0 -299 -155.5t-115 -438.5z" />
    <glyph glyph-name="one" unicode="1" horiz-adv-x="673" 
d="M82 1130l344 330h164v-1460h-193v1214l-315 -292v208z" />
    <glyph glyph-name="two" unicode="2" horiz-adv-x="1134" 
d="M571 1499q217 0 336 -131.5t119 -341.5q0 -364 -561 -852h588v-174h-951v111q97 72 187 146t193 174t177.5 193t124.5 197t50 191q0 140 -71.5 227.5t-207.5 87.5q-133 0 -205.5 -91.5t-77.5 -244.5h-188q0 229 129.5 368.5t357.5 139.5z" />
    <glyph glyph-name="three" unicode="3" horiz-adv-x="1226" 
d="M614 1497q134 0 243 -45.5t176 -137.5t67 -216q0 -122 -89 -212t-233 -120q170 -27 267.5 -130.5t97.5 -266.5q0 -182 -147 -301t-373 -119q-241 0 -390 125.5t-149 347.5h182q0 -132 95 -216.5t249 -84.5q142 0 236 81t94 204q0 78 -30.5 136t-86 91t-124 49t-152.5 16
v142q180 0 273 67.5t93 186.5q0 97 -85.5 165t-215.5 68q-133 0 -222 -64t-89 -176h-186q0 128 67 222.5t179 141t253 46.5z" />
    <glyph glyph-name="four" unicode="4" horiz-adv-x="1271" 
d="M281 510v-14h528v761zM809 319h-723v218l662 923h258v-964h182v-177h-182v-319h-197v319z" />
    <glyph glyph-name="five" unicode="5" horiz-adv-x="1247" 
d="M301 612h-182l86 848h856v-162h-696l-56 -462q60 75 157.5 116t213.5 41q225 0 354 -141t129 -377q0 -231 -153.5 -370.5t-405.5 -139.5q-139 0 -259.5 61t-191.5 167t-71 231h184q12 -124 109 -210.5t229 -86.5q105 0 188.5 38t135 117t51.5 189q0 177 -95.5 274
t-254.5 97q-127 0 -218.5 -67.5t-109.5 -162.5z" />
    <glyph glyph-name="six" unicode="6" horiz-adv-x="1239" 
d="M721 1460h233l-399 -526q70 24 164 24q192 0 315 -138t123 -345q0 -225 -149.5 -370.5t-386.5 -145.5q-234 0 -386.5 141t-152.5 355q0 84 30 174.5t78 152.5zM627 799q-141 0 -236.5 -95.5t-95.5 -236.5q0 -148 95 -244t237 -96q139 0 228 95.5t89 244.5
q0 142 -89.5 237t-227.5 95z" />
    <glyph glyph-name="seven" unicode="7" horiz-adv-x="1083" 
d="M772 1298h-686v162h913v-125l-553 -1335h-219z" />
    <glyph glyph-name="eight" unicode="8" horiz-adv-x="1239" 
d="M618 1501q209 0 343.5 -108t134.5 -271v-8q0 -121 -69.5 -214.5t-176.5 -123.5q133 -29 217.5 -138.5t89.5 -250.5q0 -188 -146 -308t-393 -120t-391.5 120.5t-144.5 307.5q0 141 86.5 250.5t218.5 138.5q-106 28 -177 122.5t-71 211.5q0 172 134.5 281.5t344.5 109.5z
M618 1331q-129 0 -212.5 -70t-83.5 -176q0 -104 83.5 -172.5t212.5 -68.5q130 0 213.5 68t83.5 173q-5 108 -86 177t-211 69zM618 688q-148 0 -241.5 -77t-93.5 -199q0 -121 94 -200t241 -79q148 0 243 79t95 200q0 122 -94.5 199t-243.5 77z" />
    <glyph glyph-name="nine" unicode="9" horiz-adv-x="1239" 
d="M528 0h-252l416 537q-59 -23 -162 -23q-195 0 -321.5 132.5t-126.5 336.5q0 224 152 370t384 146q235 0 387 -140t152 -355q0 -83 -29.5 -175.5t-78.5 -152.5zM612 662q145 0 238.5 93t93.5 236q0 150 -93.5 246t-238.5 96q-138 0 -226.5 -95.5t-88.5 -246.5
q0 -143 88.5 -236t226.5 -93z" />
    <glyph glyph-name="colon" unicode=":" horiz-adv-x="413" 
d="M82 713q0 54 34.5 87.5t90.5 33.5t90.5 -33.5t34.5 -87.5q0 -55 -34.5 -89t-90.5 -34t-90.5 34t-34.5 89zM82 96q0 54 34.5 87.5t90.5 33.5t90.5 -33.5t34.5 -87.5q0 -56 -35 -90.5t-90 -34.5t-90 34.5t-35 90.5z" />
    <glyph glyph-name="semicolon" unicode=";" horiz-adv-x="423" 
d="M88 713q0 54 34.5 87.5t90.5 33.5q55 0 89 -33.5t34 -87.5q0 -55 -34 -89t-89 -34q-56 0 -90.5 34t-34.5 89zM86 94v6q0 49 34 82t85 33q61 0 98 -45.5t37 -120.5q0 -102 -51.5 -188.5t-122.5 -132.5l-45 51q84 84 84 184v10h-10q-48 0 -78.5 33.5t-30.5 87.5z" />
    <glyph glyph-name="less" unicode="&#x3c;" horiz-adv-x="978" 
d="M82 731l813 526v-174l-559 -352l559 -354v-172z" />
    <glyph glyph-name="equal" unicode="=" horiz-adv-x="1130" 
d="M86 379v149h963v-149h-963zM86 901v150h963v-150h-963z" />
    <glyph glyph-name="greater" unicode="&#x3e;" horiz-adv-x="978" 
d="M895 731l-813 -526v172l561 354l-561 352v174z" />
    <glyph glyph-name="question" unicode="?" horiz-adv-x="1241" 
d="M500 330v389h106q154 0 248 81.5t94 217.5q0 134 -100 222.5t-246 88.5q-135 0 -230 -87.5t-112 -229.5h-178q24 233 170.5 359t357.5 126q122 0 226 -37.5t174 -102.5t109.5 -152t39.5 -185q0 -197 -135 -319.5t-352 -122.5v-248h-172zM463 70q0 54 34.5 87t88.5 33
q56 0 90.5 -33t34.5 -87q0 -55 -34.5 -89t-90.5 -34q-54 0 -88.5 34t-34.5 89z" />
    <glyph glyph-name="at" unicode="@" horiz-adv-x="2033" 
d="M276 532q0 -205 80.5 -367t229.5 -254.5t342 -92.5h610v-174h-610q-183 0 -340.5 67t-268.5 184t-174 282t-63 355q0 192 66 356.5t185 282.5t292.5 185t380.5 67q206 0 382.5 -67t299.5 -184.5t192.5 -283t69.5 -356.5q0 -155 -45.5 -279.5t-130.5 -196.5t-193 -72
q-127 0 -198.5 72.5t-79.5 203.5q-40 -76 -144 -126t-221 -50q-176 0 -288.5 127.5t-112.5 320.5q0 196 132.5 323.5t336.5 127.5t335.5 -121t131.5 -311v-219q0 -84 31.5 -127t84.5 -43q78 0 123 102t45 268q0 211 -93 376t-264.5 258.5t-393.5 93.5q-221 0 -387.5 -93.5
t-254.5 -258t-88 -376.5zM1006 803q-115 0 -189 -77t-74 -194t73.5 -190.5t189.5 -73.5t189 73.5t73 190.5q0 118 -73.5 194.5t-188.5 76.5z" />
    <glyph glyph-name="A" unicode="A" horiz-adv-x="1650" 
d="M825 1065l-325 -651h649zM297 0h-215l743 1479l744 -1479h-215l-131 262h-797z" />
    <glyph glyph-name="B" unicode="B" horiz-adv-x="1204" 
d="M82 0v1460h536q214 0 334.5 -101.5t120.5 -275.5q0 -104 -56 -182t-159 -113q262 -78 262 -376q0 -85 -31.5 -158.5t-93 -131t-162 -90t-229.5 -32.5h-522zM276 842h320q128 0 205.5 59.5t77.5 167.5q0 96 -78.5 156.5t-204.5 60.5h-320v-444zM276 176h316q323 0 323 246
q0 122 -85.5 197t-237.5 75h-316v-518z" />
    <glyph glyph-name="C" unicode="C" horiz-adv-x="1660" 
d="M1384 483h191q-52 -244 -250 -386t-469 -142q-226 0 -400 92t-273 269t-99 415q0 234 99 411t273.5 271t399.5 94q175 0 324.5 -62.5t254.5 -184.5t140 -285h-191q-54 161 -197.5 260.5t-324.5 99.5q-261 0 -422 -168t-161 -436q0 -136 44 -249t121.5 -189.5t185 -119
t232.5 -42.5q182 0 323 94.5t199 257.5z" />
    <glyph glyph-name="D" unicode="D" horiz-adv-x="1161" 
d="M82 -2v1462h258h12q220 0 385.5 -91t253.5 -256t88 -382q0 -330 -197 -528.5t-542 -202.5zM279 176h77q245 0 390 151.5t145 403.5t-145 403.5t-390 151.5h-77v-1110z" />
    <glyph glyph-name="E" unicode="E" horiz-adv-x="1169" 
d="M82 0v1460h983v-174h-789v-477h707v-166h-707v-467h809v-176h-1003z" />
    <glyph glyph-name="F" unicode="F" horiz-adv-x="1015" 
d="M84 8v1452h850v-174h-655v-467h532v-176h-532v-635h-195z" />
    <glyph glyph-name="G" unicode="G" horiz-adv-x="1681" 
d="M852 635v160h745v-39q0 -230 -88 -410.5t-259 -285.5t-398 -105q-222 0 -398 99.5t-274 276t-98 398.5q0 224 98.5 401t275 276t400.5 99q268 0 461 -136t260 -394h-197q-34 120 -117 202.5t-187 118t-224 35.5q-169 0 -302 -77t-205.5 -213t-72.5 -308q0 -173 72.5 -310
t207 -215.5t308.5 -78.5q233 0 381.5 141.5t169.5 364.5h-559z" />
    <glyph glyph-name="H" unicode="H" horiz-adv-x="1318" 
d="M84 0v1460h192v-651h766v651h195v-1460h-195v643h-766v-643h-192z" />
    <glyph glyph-name="I" unicode="I" horiz-adv-x="362" 
d="M84 0v1460h195v-1460h-195z" />
    <glyph glyph-name="J" unicode="J" horiz-adv-x="868" 
d="M84 0v176h225q129 0 206 91.5t77 260.5v932h192v-975q0 -225 -126 -355t-320 -130h-254z" />
    <glyph glyph-name="K" unicode="K" horiz-adv-x="1042" 
d="M82 0v1460h194v-657l484 657h231l-549 -739l549 -721h-231l-484 631v-631h-194z" />
    <glyph glyph-name="L" unicode="L" horiz-adv-x="1085" 
d="M82 0v1460h194v-1274h728v-186h-922z" />
    <glyph glyph-name="M" unicode="M" horiz-adv-x="1710" 
d="M84 0v1470l768 -1114l774 1114v-1470h-194v911l-578 -841l-575 841v-911h-195z" />
    <glyph glyph-name="N" unicode="N" horiz-adv-x="1431" 
d="M82 0v1477l1073 -1082v1065h193v-1476l-1065 1063l-7 -1047h-194z" />
    <glyph glyph-name="O" unicode="O" horiz-adv-x="1708" 
d="M84 729q0 171 58 316t159.5 246t244 157.5t308.5 56.5q167 0 310 -56.5t244.5 -157t159.5 -245.5t58 -315q0 -171 -58.5 -316.5t-161.5 -246t-245.5 -157t-306.5 -56.5t-306.5 56.5t-244.5 156.5t-160.5 245t-58.5 316zM854 129h10q87 0 169.5 25t154.5 76t126.5 122
t86 169t31.5 210q0 88 -22 173.5t-69 163.5t-114 136.5t-163.5 93.5t-209.5 35q-89 0 -173 -25t-157 -76t-127.5 -122t-86 -169t-31.5 -210q0 -140 48 -256t128.5 -190.5t183.5 -115t215 -40.5z" />
    <glyph glyph-name="P" unicode="P" horiz-adv-x="1249" 
d="M82 0v1460h528q243 0 399 -141.5t156 -360.5q0 -224 -152 -361.5t-405 -137.5h-313v-459h-213zM295 645h299q168 0 266 85t98 214v10q0 138 -101.5 228t-262.5 90h-299v-627z" />
    <glyph glyph-name="Q" unicode="Q" horiz-adv-x="1708" 
d="M84 729q0 171 58 316t159.5 246t244 157.5t308.5 56.5q167 0 310 -56.5t244.5 -157t159.5 -245.5t58 -315q0 -189 -68.5 -341t-193.5 -257l166 -199l-144 -120l-180 219q-159 -78 -352 -78q-165 0 -307.5 56.5t-244.5 156.5t-160 245t-58 316zM854 129h16q107 0 215 51
l-174 207l146 117l184 -221q191 166 191 448q0 90 -23 176.5t-71 163.5t-115.5 135.5t-162.5 92.5t-206 34q-109 0 -210.5 -39.5t-183.5 -113t-131.5 -190.5t-49.5 -261q0 -142 49 -258t130.5 -189.5t183.5 -113t212 -39.5z" />
    <glyph glyph-name="R" unicode="R" horiz-adv-x="1255" 
d="M82 0v1460h545q242 0 384 -117t142 -331q0 -152 -93.5 -271t-244.5 -159l356 -582h-239l-328 547h-321v-547h-201zM283 725h348q141 0 231 80.5t90 200.5q0 130 -85 205t-236 75h-348v-561z" />
    <glyph glyph-name="S" unicode="S" horiz-adv-x="1310" 
d="M82 387h203q12 -117 124.5 -191.5t252.5 -74.5q54 0 104 8t98.5 27.5t84 49.5t57.5 77t22 106t-26.5 103t-71.5 69.5t-105 46.5t-128 32.5t-139 27.5t-139 32.5t-128 47t-105 70.5t-71.5 104t-26.5 147q0 86 30 158.5t82.5 123.5t123 86.5t151.5 52.5t168 17
q235 0 388 -118t183 -310h-202q-13 82 -67.5 143t-130.5 91t-163 30q-66 0 -129.5 -15.5t-117 -45.5t-86.5 -80t-33 -112q0 -66 32 -113.5t86.5 -74.5t125 -46t148.5 -33.5t156 -30.5t148.5 -44t125 -68t86.5 -107t32 -157q0 -118 -46 -209t-125 -145.5t-177 -81.5t-211 -27
q-245 0 -399.5 119t-184.5 315z" />
    <glyph glyph-name="T" unicode="T" horiz-adv-x="1239" 
d="M524 0v1286h-442v174h1075v-174h-440v-1286h-193z" />
    <glyph glyph-name="U" unicode="U" horiz-adv-x="1370" 
d="M82 1460h194v-870q0 -201 114 -330t294 -129t295 124.5t115 334.5v870h192v-862q0 -139 -44.5 -258.5t-123.5 -204t-191 -132.5t-243 -48t-243 48t-191 132.5t-123.5 204t-44.5 258.5v862z" />
    <glyph glyph-name="V" unicode="V" horiz-adv-x="1667" 
d="M834 -23l-750 1483h221l529 -1048l526 1048h221z" />
    <glyph glyph-name="W" unicode="W" horiz-adv-x="2217" 
d="M748 -18l-664 1478h211l453 -1063l362 787l363 -787l452 1063h211l-663 -1478l-363 784z" />
    <glyph glyph-name="X" unicode="X" horiz-adv-x="1544" 
d="M84 0l567 731l-567 729h242l446 -567l449 567h239l-567 -729l567 -731h-241l-447 569l-446 -569h-242z" />
    <glyph glyph-name="Y" unicode="Y" horiz-adv-x="1533" 
d="M670 0v444l-586 1016h213l473 -831l469 831h211l-586 -1016v-444h-194z" />
    <glyph glyph-name="Z" unicode="Z" horiz-adv-x="1351" 
d="M82 0l872 1286h-823v174h1137l-858 -1284h786v-176h-1114z" />
    <glyph glyph-name="bracketleft" unicode="[" horiz-adv-x="839" 
d="M758 -369h-676v1893h676v-144h-488v-1609h488v-140z" />
    <glyph glyph-name="backslash" unicode="\" horiz-adv-x="1155" 
d="M1071 -186h-145l-840 1646h145z" />
    <glyph glyph-name="bracketright" unicode="]" horiz-adv-x="839" 
d="M758 -369h-676v140h489v1609h-489v144h676v-1893z" />
    <glyph glyph-name="asciicircum" unicode="^" horiz-adv-x="972" 
d="M84 975l403 485l400 -485h-189l-211 272l-213 -272h-190z" />
    <glyph glyph-name="underscore" unicode="_" horiz-adv-x="1187" 
d="M82 -152v152h1024v-152h-1024z" />
    <glyph glyph-name="grave" unicode="`" horiz-adv-x="505" 
d="M426 1167h-82l-264 332h153z" />
    <glyph glyph-name="a" unicode="a" horiz-adv-x="1284" 
d="M641 1085q251 0 405 -156.5t154 -402.5l2 -526h-186v166q-63 -97 -166 -149t-232 -52q-237 0 -386.5 156t-149.5 405q0 243 157.5 401t401.5 158zM641 911q-159 0 -262 -108.5t-103 -276.5q0 -169 102.5 -278t262.5 -109q159 0 261 107.5t102 267.5v12v13q0 160 -99 266
t-264 106z" />
    <glyph glyph-name="b" unicode="b" horiz-adv-x="1277" 
d="M82 1460h194v-542q64 76 163.5 120.5t213.5 44.5q234 0 387.5 -157.5t153.5 -401.5q0 -240 -159 -400.5t-402 -160.5q-242 0 -396.5 149t-154.5 394v954zM999 524q0 169 -102 277t-262 108t-262.5 -108t-102.5 -277q0 -178 101 -281.5t264 -103.5q158 0 261 109t103 276z
" />
    <glyph glyph-name="c" unicode="c" horiz-adv-x="1234" 
d="M641 1085q183 0 319.5 -100.5t190.5 -279.5h-186q-37 102 -126 158.5t-198 56.5q-164 0 -269.5 -112.5t-105.5 -275.5q0 -107 44.5 -198t131.5 -147t199 -56q107 0 200 59t124 160h186q-26 -121 -103 -210t-183 -132t-228 -43q-244 0 -399.5 158t-155.5 403
q0 244 157 401.5t402 157.5z" />
    <glyph glyph-name="d" unicode="d" horiz-adv-x="1277" 
d="M999 1460h195v-954q0 -242 -154 -392.5t-397 -150.5q-242 0 -401.5 160.5t-159.5 400.5q0 245 148.5 402t383.5 157q121 0 219.5 -49t165.5 -139v565zM276 524q0 -167 103.5 -276t261.5 -109q161 0 264 104.5t103 280.5q0 168 -103.5 276.5t-263.5 108.5t-262.5 -108
t-102.5 -277z" />
    <glyph glyph-name="e" unicode="e" horiz-adv-x="1265" 
d="M965 281h182q-147 -316 -496 -316q-170 0 -300 74t-198.5 200.5t-68.5 286.5q0 246 152 402.5t397 156.5t397 -153.5t152 -396.5q0 -43 -6 -91h-916q18 -140 126.5 -230.5t270.5 -90.5q95 0 177.5 41t130.5 117zM262 573h758q-13 150 -113.5 251.5t-267.5 101.5
q-73 0 -135.5 -21t-106 -56.5t-75 -81.5t-46 -95t-14.5 -99z" />
    <glyph glyph-name="f" unicode="f" horiz-adv-x="722" 
d="M84 1219q0 144 78.5 230.5t206.5 86.5h313v-174h-256q-71 0 -109 -43t-38 -113v-155h323v-172h-323v-879h-195v1219z" />
    <glyph glyph-name="g" unicode="g" horiz-adv-x="1277" 
d="M207 -463v168h442q159 0 255.5 85t96.5 249v127q-58 -90 -155.5 -141.5t-227.5 -51.5q-157 0 -279.5 72t-189.5 197.5t-67 281.5q0 241 158.5 399t400.5 158q241 0 397 -157.5t156 -399.5v-491q0 -234 -142 -365t-378 -131h-467zM643 139q161 0 262 107.5t101 275.5
t-102 276.5t-263 108.5q-159 0 -262 -108.5t-103 -276.5q0 -166 104.5 -274.5t262.5 -108.5z" />
    <glyph glyph-name="h" unicode="h" horiz-adv-x="1284" 
d="M84 0v1460h192v-577q134 200 394 200q250 0 389 -166.5t139 -447.5v-469h-188v465q0 201 -91.5 320.5t-259.5 119.5q-179 0 -281 -127.5t-102 -339.5v-438h-192z" />
    <glyph glyph-name="i" unicode="i" horiz-adv-x="413" 
d="M82 1329q0 54 35 88.5t90 34.5t90 -34.5t35 -88.5t-34.5 -87.5t-90.5 -33.5t-90.5 33.5t-34.5 87.5zM111 0v1051h192v-1051h-192z" />
    <glyph glyph-name="j" unicode="j" horiz-adv-x="415" 
d="M84 1329q0 54 34.5 88.5t88.5 34.5q55 0 90 -34.5t35 -88.5q0 -55 -34.5 -88t-90.5 -33q-55 0 -89 33t-34 88zM111 1051h194v-1203q0 -138 -79 -224.5t-214 -86.5h-166v174h109q73 0 114.5 43.5t41.5 118.5v1178z" />
    <glyph glyph-name="k" unicode="k" horiz-adv-x="874" 
d="M82 0v1460h194v-831l338 422h211l-417 -525l423 -526h-221l-334 422v-422h-194z" />
    <glyph glyph-name="l" unicode="l" horiz-adv-x="579" 
d="M518 0h-141q-132 0 -212.5 86t-80.5 227v1147h195v-1104q0 -83 41 -126.5t112 -43.5h86v-186z" />
    <glyph glyph-name="m" unicode="m" horiz-adv-x="1873" 
d="M82 0v1051h194v-111q49 65 128.5 104t173.5 39q255 0 360 -200q151 200 399 200q115 0 203 -39.5t142 -111.5t81 -167t27 -212v-553h-191v557q0 183 -77.5 268.5t-196.5 85.5q-133 0 -213 -94t-80 -250v-567h-190v567q0 168 -78.5 256t-194.5 88q-136 0 -214.5 -92.5
t-78.5 -251.5v-567h-194z" />
    <glyph glyph-name="n" unicode="n" horiz-adv-x="1284" 
d="M84 0v1051h192v-179q62 98 168 155.5t228 57.5q123 0 224.5 -49.5t167 -134.5t101 -196.5t35.5 -237.5v-467h-190v457q0 208 -100.5 326t-250.5 118q-171 0 -277 -126.5t-106 -352.5v-422h-192z" />
    <glyph glyph-name="o" unicode="o" horiz-adv-x="1284" 
d="M1200 526q0 -246 -156.5 -403.5t-402.5 -157.5q-245 0 -402 157.5t-157 403.5q0 247 157 403t402 156q246 0 402.5 -156t156.5 -403zM1020 526q0 174 -107 287t-272 113q-166 0 -271.5 -112.5t-105.5 -287.5t105.5 -287t271.5 -112q165 0 272 112.5t107 286.5z" />
    <glyph glyph-name="p" unicode="p" horiz-adv-x="1277" 
d="M82 -463v1000q0 236 156.5 393t394.5 157q244 0 402.5 -159t158.5 -402q0 -241 -154 -400t-387 -159q-116 0 -215.5 46.5t-161.5 127.5v-604h-194zM635 141q159 0 261.5 108.5t102.5 276.5q0 167 -103 277t-261 110q-159 0 -262 -109.5t-103 -277.5t103 -276.5
t262 -108.5z" />
    <glyph glyph-name="q" unicode="q" horiz-adv-x="1277" 
d="M1196 -461h-195v625q-137 -197 -376 -197q-233 0 -387 159t-154 400q0 243 159 402t402 159q241 0 396 -153t155 -387v-1008zM279 526q0 -168 102.5 -276.5t261.5 -108.5q160 0 263.5 109t103.5 276t-104.5 277t-262.5 110t-261 -110t-103 -277z" />
    <glyph glyph-name="r" unicode="r" horiz-adv-x="790" 
d="M82 0v1051h190v-144q40 72 120 108t183 36h154v-177h-211q-110 0 -176 -74t-66 -231v-569h-194z" />
    <glyph glyph-name="s" unicode="s" horiz-adv-x="1028" 
d="M63 322l185 -3q8 -66 49 -114t98.5 -71t122.5 -23h17q61 0 116.5 17.5t96 59t40.5 99.5v8q-1 39 -24.5 67.5t-84 49t-94 28.5t-125.5 25l-30 6q-74 14 -131.5 34t-109.5 53t-80.5 85.5t-28.5 120.5v8q2 82 42 145t104 98t136.5 52.5t149.5 17.5q180 -5 296 -81.5
t150 -212.5h-184q-38 135 -260 149h-14q-34 0 -72 -8t-77 -25.5t-65 -51t-28 -77.5q0 -49 38.5 -81.5t100.5 -49.5t136.5 -31.5t150 -34.5t138 -50t102 -86.5t41.5 -135.5v-8q0 -84 -37 -149.5t-100.5 -105.5t-143 -60.5t-170.5 -20.5q-188 5 -311 101t-140 256z" />
    <glyph glyph-name="t" unicode="t" horiz-adv-x="665" 
d="M84 317v1143h195v-409h325v-172h-325v-547q0 -71 38 -113.5t109 -42.5h178v-176h-235q-128 0 -206.5 87.5t-78.5 229.5z" />
    <glyph glyph-name="u" unicode="u" horiz-adv-x="1284" 
d="M1202 1051v-1051h-194v174q-62 -98 -167.5 -155.5t-228.5 -57.5q-164 0 -285 82.5t-181 221.5t-60 315v471h193v-461q0 -220 92 -343.5t254 -123.5q177 0 280 135.5t103 366.5v426h194z" />
    <glyph glyph-name="v" unicode="v" horiz-adv-x="1304" 
d="M651 -18l-567 1069h215l352 -697l355 697h215z" />
    <glyph glyph-name="w" unicode="w" horiz-adv-x="1896" 
d="M649 -18l-565 1069h213l356 -711l293 516l297 -516l359 711h213l-568 -1069l-299 538z" />
    <glyph glyph-name="x" unicode="x" horiz-adv-x="1245" 
d="M84 0l418 524l-418 527h240l299 -367l297 367h241l-418 -527l418 -524h-243l-295 365l-295 -365h-244z" />
    <glyph glyph-name="y" unicode="y" horiz-adv-x="1282" 
d="M190 -289h132q87 0 148 68.5t128 218.5l-516 1053h211l389 -811l317 811h201l-424 -1071q-165 -443 -407 -443h-179v174z" />
    <glyph glyph-name="z" unicode="z" horiz-adv-x="1107" 
d="M104 1051h900v-125l-629 -758h649v-168h-940v127l643 758h-623v166z" />
    <glyph glyph-name="braceleft" unicode="{" horiz-adv-x="770" 
d="M686 -373h-219q-106 0 -171 65t-65 171v497q0 58 -35 93.5t-94 35.5h-20v187h20q59 0 94 35.5t35 93.5v479q0 105 65.5 170.5t170.5 65.5h219v-144h-123q-66 0 -104.5 -38.5t-38.5 -104.5v-447q0 -86 -52.5 -140.5t-138.5 -59.5l-20 -2l20 -2q86 -4 138.5 -59.5
t52.5 -141.5v-471q0 -66 38.5 -104.5t104.5 -38.5h123v-140z" />
    <glyph glyph-name="bar" unicode="|" horiz-adv-x="337" 
d="M82 -373v1893h174v-1893h-174z" />
    <glyph glyph-name="braceright" unicode="}" horiz-adv-x="770" 
d="M301 -373h-219v140h123q66 0 104.5 38.5t38.5 104.5v471q0 86 52.5 141.5t138.5 59.5l20 2l-20 2q-86 5 -138.5 59.5t-52.5 140.5v447q0 66 -38.5 104.5t-104.5 38.5h-123v144h219q105 0 170.5 -65.5t65.5 -170.5v-479q0 -58 35 -93.5t94 -35.5h20v-187h-20
q-59 0 -94 -35.5t-35 -93.5v-497q0 -106 -65 -171t-171 -65z" />
    <glyph glyph-name="asciitilde" unicode="~" horiz-adv-x="1441" 
d="M442 809q53 0 115 -21.5t118.5 -52.5t111 -61.5t110 -52t98.5 -21.5q68 0 130.5 43t97.5 115h135q-51 -172 -144.5 -249t-228.5 -77q-53 0 -114.5 21.5t-117.5 52t-111 61.5t-111.5 52.5t-102.5 21.5q-69 0 -121 -35t-88 -121h-135q31 151 131.5 237.5t226.5 86.5z" />
    <glyph glyph-name="exclamdown" unicode="&#xa1;" horiz-adv-x="415" 
d="M332 1120q0 -55 -33.5 -88t-89.5 -33t-90.5 33t-34.5 88q0 54 34.5 87.5t90.5 33.5q55 0 89 -33.5t34 -87.5zM266 860l47 -1132h-209l52 1132h110z" />
    <glyph glyph-name="cent" unicode="&#xa2;" horiz-adv-x="1234" 
d="M537 -236v211q-202 29 -327.5 181.5t-125.5 369.5q0 218 124.5 367.5t328.5 181.5v189h174v-185q158 -18 277.5 -116t162.5 -258h-186q-37 101 -125.5 158t-196.5 57q-167 0 -271 -112t-104 -276q0 -80 26 -152.5t73.5 -128t118.5 -88t155 -32.5q107 0 199 58.5
t127 160.5h184q-35 -162 -157.5 -260.5t-282.5 -120.5v-205h-174z" />
    <glyph glyph-name="sterling" unicode="&#xa3;" horiz-adv-x="1224" 
d="M737 1331q-102 0 -165.5 -74.5t-63.5 -193.5v-268h500v-125h-508q-21 -415 -226 -508h869v-162h-1061v203q100 16 157 123.5t64 343.5h-201v125h205v274q0 190 115.5 310t298.5 120q193 0 307.5 -118t114.5 -308h-172q0 114 -65.5 186t-168.5 72z" />
    <glyph glyph-name="currency" unicode="&#xa4;" horiz-adv-x="1009" 
d="M86 322l150 151q-48 79 -48 172q0 91 48 170l-150 154l100 82l144 -144q80 51 174 51q100 0 174 -51l145 144l103 -82l-152 -154q49 -76 49 -168t-49 -174l152 -151l-103 -82l-145 143q-79 -51 -172 -51q-96 0 -176 51l-144 -143zM504 850q-88 0 -134 -60t-46 -145
q0 -84 46.5 -144.5t135.5 -60.5q87 0 134.5 60t47.5 145t-48 145t-136 60z" />
    <glyph glyph-name="yen" unicode="&#xa5;" horiz-adv-x="1536" 
d="M672 0v164h-383v147h383v119h-383v148h313l-516 882h213l473 -813l467 813h213l-520 -882h317v-148h-385v-119h385v-147h-385v-164h-192z" />
    <glyph glyph-name="brokenbar" unicode="&#xa6;" horiz-adv-x="362" 
d="M84 889v715h192v-715h-192zM84 -143v714h192v-714h-192z" />
    <glyph glyph-name="section" unicode="&#xa7;" horiz-adv-x="1173" 
d="M582 1444q73 0 143 -20.5t130 -59.5t100.5 -101.5t48.5 -140.5h-156q-5 76 -81 133.5t-185 57.5q-123 0 -190.5 -54t-67.5 -147q0 -65 42.5 -107.5t110 -63t149.5 -35t164 -32t149.5 -45t110 -84t42.5 -139.5q0 -100 -68.5 -170t-171.5 -102q83 -30 135.5 -99.5
t52.5 -173.5q0 -170 -127.5 -274t-332.5 -104q-113 0 -209.5 38.5t-159.5 118.5t-66 187h158q0 -87 81 -148t206 -61q117 0 191.5 59.5t74.5 147.5v8q0 56 -26.5 95.5t-71 61.5t-102 36t-121.5 23t-128 19.5t-121.5 30t-102 48.5t-71 79.5t-26.5 120.5v6q0 97 67 169t173 99
q-81 34 -131 104t-50 165q0 156 119.5 255t317.5 99zM508 768q-119 -6 -184.5 -55.5t-65.5 -124.5q1 -32 13 -58t28.5 -44t45.5 -33t53.5 -23.5t63.5 -16.5t63.5 -11t66.5 -8.5t61 -8.5q116 8 186 59t70 127q0 31 -11.5 56.5t-29 43t-46.5 31.5t-55.5 22.5t-65 16t-66 11
t-67.5 8.5t-60 8z" />
    <glyph glyph-name="dieresis" unicode="&#xa8;" horiz-adv-x="821" 
d="M84 1284q0 51 32.5 83t86.5 32q51 0 83.5 -32t32.5 -83t-32.5 -83t-83.5 -32q-54 0 -86.5 32t-32.5 83zM504 1284q0 52 32 83.5t85 31.5q51 0 83.5 -32t32.5 -83t-32.5 -83t-83.5 -32q-53 0 -85 31.5t-32 83.5z" />
    <glyph glyph-name="copyright" unicode="&#xa9;" horiz-adv-x="1875" 
d="M82 506q0 180 63.5 336t176 267t272.5 174t346 63t345 -62t271 -171.5t175 -266t63 -340.5q0 -183 -63.5 -340t-175 -267.5t-270.5 -173.5t-345 -63t-346 63t-272.5 173.5t-176 267.5t-63.5 340zM223 506q0 -206 91.5 -370t255.5 -255.5t370 -91.5q155 0 288 53.5
t226.5 148t146 227.5t52.5 288q0 204 -90 366.5t-253 254.5t-370 92q-206 0 -370 -92t-255.5 -254.5t-91.5 -366.5zM1303 322h163q-39 -183 -185.5 -285.5t-346.5 -102.5q-244 0 -404.5 161.5t-160.5 406.5q0 244 160.5 404.5t404.5 160.5q199 0 345.5 -103t186.5 -284h-163
q-31 114 -134 179t-229 65q-179 0 -292 -118t-113 -304q0 -184 113 -301t292 -117q127 0 229.5 62.5t133.5 175.5z" />
    <glyph glyph-name="ordfeminine" unicode="&#xaa;" horiz-adv-x="960" 
d="M479 1458q176 0 287 -111.5t111 -281.5v-369h-148v103q-98 -127 -272 -127q-165 0 -269 109.5t-104 283.5q0 170 111.5 281.5t283.5 111.5zM479 1317q-104 0 -170.5 -71t-66.5 -181q0 -111 66.5 -182.5t170.5 -71.5q106 0 172 70.5t66 183.5q0 111 -65 181.5t-173 70.5z
" />
    <glyph glyph-name="guillemotleft" unicode="&#xab;" horiz-adv-x="1540" 
d="M82 731l739 477v-172l-485 -305l485 -305v-174zM719 731l737 477v-172l-485 -305l485 -305v-174z" />
    <glyph glyph-name="logicalnot" unicode="&#xac;" horiz-adv-x="1263" 
d="M82 737h1098v-594h-148l2 432h-952v162z" />
    <glyph glyph-name="registered" unicode="&#xae;" horiz-adv-x="1867" 
d="M934 1360q250 0 444 -106t301 -297t107 -435q0 -184 -62.5 -341t-173.5 -268t-270 -174t-346 -63q-186 0 -344.5 63t-270 174t-174.5 268t-63 341q0 240 107.5 431t302.5 299t442 108zM936 1233q-207 0 -370 -92.5t-253 -254.5t-90 -364q0 -156 52.5 -289.5t146 -228
t226.5 -148t288 -53.5t288 53.5t225.5 148t145 228t52.5 289.5q0 202 -89.5 364t-252 254.5t-369.5 92.5zM596 14v1010h383q168 0 262 -78t94 -231q0 -109 -63.5 -188.5t-173.5 -110.5l248 -402h-154l-236 379h-225v-379h-135zM731 514h250q102 0 163.5 54.5t61.5 140.5
q0 93 -59.5 144.5t-165.5 51.5h-250v-391z" />
    <glyph glyph-name="macron" unicode="&#xaf;" horiz-adv-x="813" 
d="M84 1389h647v-127h-647v127z" />
    <glyph glyph-name="degree" unicode="&#xb0;" horiz-adv-x="950" 
d="M866 1065q0 -173 -109.5 -282t-281.5 -109q-174 0 -282.5 108.5t-108.5 282.5q0 172 108.5 281.5t282.5 109.5q172 0 281.5 -109.5t109.5 -281.5zM739 1065q0 123 -74 200.5t-190 77.5q-117 0 -190.5 -77.5t-73.5 -200.5q0 -122 74 -201.5t190 -79.5q115 0 189.5 79.5
t74.5 201.5z" />
    <glyph glyph-name="plusminus" unicode="&#xb1;" horiz-adv-x="1005" 
d="M82 735v160h338v340h166v-340h336v-160h-336v-340h-166v340h-338zM82 197v141h840v-141h-840z" />
    <glyph glyph-name="twosuperior" unicode="&#xb2;" horiz-adv-x="661" 
d="M332 1430q112 0 171.5 -66.5t59.5 -173.5q0 -189 -256 -408h271v-100h-482v63q355 269 355 435q0 69 -31.5 110t-95.5 41q-63 0 -96 -44.5t-33 -117.5h-109q0 120 64.5 190.5t181.5 70.5z" />
    <glyph glyph-name="threesuperior" unicode="&#xb3;" horiz-adv-x="708" 
d="M354 1432q108 0 179 -53.5t71 -147.5q0 -60 -43 -104t-112 -58q83 -14 130.5 -65t47.5 -130q0 -91 -75.5 -147.5t-191.5 -56.5q-125 0 -200.5 62t-75.5 175h106q0 -62 44.5 -102t117.5 -41q67 0 111.5 38t44.5 95q0 70 -50.5 102.5t-129.5 32.5v78q84 0 126 30.5t42 86.5
q0 45 -40.5 76.5t-101.5 31.5q-63 0 -105 -29.5t-42 -82.5h-109q0 97 71.5 153t184.5 56z" />
    <glyph glyph-name="acute" unicode="&#xb4;" horiz-adv-x="505" 
d="M80 1167l192 332h154l-264 -332h-82z" />
    <glyph glyph-name="paragraph" unicode="&#xb6;" horiz-adv-x="1378" 
d="M1104 -455h-158v1766h-248v-1766h-159v1117q-205 0 -330 108t-125 285q0 174 126.5 282.5t328.5 108.5h755v-135h-190v-1766z" />
    <glyph glyph-name="periodcentered" unicode="&#xb7;" horiz-adv-x="415" 
d="M84 705q0 55 34.5 87.5t90.5 32.5t89.5 -32.5t33.5 -87.5q0 -54 -34 -88.5t-89 -34.5t-90 34.5t-35 88.5z" />
    <glyph glyph-name="cedilla" unicode="&#xb8;" horiz-adv-x="561" 
d="M371 -297q0 50 -34 77t-95 27h-131v218h100v-115h37q113 0 171 -54.5t58 -150.5t-58 -151.5t-171 -55.5h-164v101h158q61 0 95 27t34 77z" />
    <glyph glyph-name="onesuperior" unicode="&#xb9;" horiz-adv-x="438" 
d="M86 1247l178 176h92v-741h-114v590l-156 -146v121z" />
    <glyph glyph-name="ordmasculine" unicode="&#xba;" horiz-adv-x="796" 
d="M84 1053q0 168 88 276.5t227 108.5q140 0 228 -108.5t88 -276.5q0 -170 -87 -277.5t-229 -107.5q-139 0 -227 108t-88 277zM207 1053q0 -123 52.5 -202t139.5 -79q89 0 141 78.5t52 202.5q0 121 -55 200.5t-138 79.5t-137.5 -79.5t-54.5 -200.5z" />
    <glyph glyph-name="guillemotright" unicode="&#xbb;" horiz-adv-x="1540" 
d="M1456 731l-737 -479v174l485 305l-485 305v172zM821 731l-739 -479v174l487 305l-487 305v172z" />
    <glyph glyph-name="onequarter" unicode="&#xbc;" horiz-adv-x="1204" 
d="M674 266v-6h239v352zM106 1137v118l179 177h92v-740h-115v590zM221 0h-139l879 1341h137zM913 156h-356v125l322 458h149v-479h90v-104h-90v-156h-115v156z" />
    <glyph glyph-name="onehalf" unicode="&#xbd;" horiz-adv-x="1316" 
d="M102 1255l179 177h92v-740h-115v590l-156 -145v118zM84 0l879 1341h137l-877 -1341h-139zM989 748q109 0 169.5 -67t60.5 -175q0 -55 -22 -112t-64 -111.5t-79 -94t-89 -88.5h270v-100h-483v63q356 269 356 435q0 69 -32.5 110t-96.5 41q-63 0 -96 -44.5t-33 -117.5h-109
q0 121 64.5 191t183.5 70z" />
    <glyph glyph-name="threequarters" unicode="&#xbe;" horiz-adv-x="1327" 
d="M354 1450q108 0 179 -52.5t71 -146.5q0 -61 -42.5 -104t-112.5 -57q85 -13 130.5 -64t45.5 -131q0 -91 -74 -149t-191 -58q-125 0 -199.5 62.5t-74.5 175.5h104q0 -62 44.5 -102t117.5 -40q67 0 111.5 37.5t44.5 93.5q0 72 -50 105t-130 33v75q84 0 126 31.5t42 87.5
q0 45 -40.5 76t-101.5 31q-63 0 -105 -29t-42 -82h-109q0 98 72 152.5t184 54.5zM205 0l878 1341h138l-877 -1341h-139zM680 156v125l321 458h150v-479h90v-104h-90v-156h-115v156h-356zM797 260h239v352l-239 -346v-6z" />
    <glyph glyph-name="questiondown" unicode="&#xbf;" horiz-adv-x="1241" 
d="M780 1102q0 -54 -34.5 -87.5t-90.5 -33.5q-55 0 -89 33.5t-34 87.5q0 56 34 89.5t89 33.5q56 0 90.5 -34t34.5 -89zM741 844v-389h-106q-154 0 -247 -82t-93 -217v-11q0 -127 100.5 -216t245.5 -89q134 0 229.5 88t112.5 232h176q-24 -233 -170 -359.5t-356 -126.5
q-123 0 -227.5 38t-174.5 103t-109.5 152t-39.5 185q0 196 136 320t351 124v248h172z" />
    <glyph glyph-name="Agrave" unicode="&#xc0;" horiz-adv-x="1652" 
d="M1151 414l-324 651l-325 -651h649zM428 262l-129 -262h-215l743 1479l744 -1479h-215l-131 262h-797zM676 1909l192 -332h-82l-264 332h154z" />
    <glyph glyph-name="Aacute" unicode="&#xc1;" horiz-adv-x="1652" 
d="M1151 414l-324 651l-325 -651h649zM428 262l-129 -262h-215l743 1479l744 -1479h-215l-131 262h-797zM864 1577h-82l193 332h153z" />
    <glyph glyph-name="Acircumflex" unicode="&#xc2;" horiz-adv-x="1652" 
d="M1151 414l-324 651l-325 -651h649zM428 262l-129 -262h-215l743 1479l744 -1479h-215l-131 262h-797zM895 1579h-137l12 256h113z" />
    <glyph glyph-name="Atilde" unicode="&#xc3;" horiz-adv-x="1652" 
d="M553 1561h-129q13 95 71.5 154t168.5 59q47 0 90 -15t70 -33.5t65.5 -33.5t77.5 -15q47 0 84.5 28t44.5 71h135q-40 -220 -250 -220q-56 0 -104 15t-75.5 33.5t-63 33.5t-70.5 15q-49 0 -79 -25t-36 -67zM299 0h-215l743 1479l744 -1479h-215l-131 262h-797zM827 1065
l-325 -651h649z" />
    <glyph glyph-name="Adieresis" unicode="&#xc4;" horiz-adv-x="1652" 
d="M500 1694q0 51 32 82.5t86 31.5q51 0 84 -31.5t33 -82.5t-33 -83t-84 -32q-54 0 -86 32t-32 83zM920 1694q0 52 31 83t85 31q51 0 84 -31.5t33 -82.5t-33 -83t-84 -32q-53 0 -84.5 31.5t-31.5 83.5zM299 0h-215l743 1479l744 -1479h-215l-131 262h-797zM827 1065
l-325 -651h649z" />
    <glyph glyph-name="Aring" unicode="&#xc5;" horiz-adv-x="1652" 
d="M299 0h-215l704 1403q-70 9 -120 59q-62 62 -62 158q0 97 61.5 158t159.5 61t159 -61t61 -158q0 -95 -60 -158q-50 -50 -123 -59l707 -1403h-215l-131 262h-797zM698 1620q0 -57 36.5 -94t92.5 -37q55 0 91 37t36 94t-35.5 93t-91.5 36t-92.5 -36t-36.5 -93zM827 1065
l-325 -651h649z" />
    <glyph glyph-name="AE" unicode="&#xc6;" horiz-adv-x="2177" 
d="M938 1286l-432 -868h586v868h-154zM299 0h-215l743 1460h1246v-174h-789v-477h707v-166h-707v-467h809v-176h-1001v262h-664z" />
    <glyph glyph-name="Ccedilla" unicode="&#xc7;" horiz-adv-x="1660" 
d="M1384 483h191q-48 -224 -226.5 -363.5t-418.5 -160.5v-47h37q114 0 171.5 -54t57.5 -151t-57.5 -152t-171.5 -55h-162v101h156q62 0 95.5 26.5t33.5 77.5t-33.5 78t-95.5 27h-132v145q-164 4 -301 59.5t-235.5 154t-153.5 243t-55 319.5q0 234 99 411t273.5 271t399.5 94
q175 0 324.5 -62.5t254.5 -184.5t140 -285h-191q-54 161 -197.5 260.5t-324.5 99.5q-261 0 -422 -168t-161 -436q0 -136 44 -249t121.5 -189.5t185 -119t232.5 -42.5q179 0 326 98.5t196 253.5z" />
    <glyph glyph-name="Egrave" unicode="&#xc8;" horiz-adv-x="1171" 
d="M84 0v1460h983v-174h-788v-477h706v-166h-706v-467h808v-176h-1003zM627 1577h-82l-264 332h153z" />
    <glyph glyph-name="Eacute" unicode="&#xc9;" horiz-adv-x="1171" 
d="M84 0v1460h983v-174h-788v-477h706v-166h-706v-467h808v-176h-1003zM541 1577l192 332h154l-264 -332h-82z" />
    <glyph glyph-name="Ecircumflex" unicode="&#xca;" horiz-adv-x="1171" 
d="M84 0v1460h983v-174h-788v-477h706v-166h-706v-467h808v-176h-1003zM518 1579l12 256h113l12 -256h-137z" />
    <glyph glyph-name="Edieresis" unicode="&#xcb;" horiz-adv-x="1171" 
d="M258 1694q0 51 32.5 82.5t86.5 31.5q51 0 84 -31.5t33 -82.5t-33 -83t-84 -32q-54 0 -86.5 32t-32.5 83zM678 1694q0 51 31.5 82.5t85.5 31.5q51 0 83.5 -31.5t32.5 -82.5t-32.5 -83t-83.5 -32q-53 0 -85 31.5t-32 83.5zM84 0v1460h983v-174h-788v-477h706v-166h-706
v-467h808v-176h-1003z" />
    <glyph glyph-name="Igrave" unicode="&#xcc;" horiz-adv-x="362" 
d="M84 0v1460h195v-1460h-195zM221 1577h-82l-264 332h154z" />
    <glyph glyph-name="Iacute" unicode="&#xcd;" horiz-adv-x="362" 
d="M84 0v1460h195v-1460h-195zM137 1577l193 332h153l-264 -332h-82z" />
    <glyph glyph-name="Icircumflex" unicode="&#xce;" horiz-adv-x="362" 
d="M84 0v1460h195v-1460h-195zM111 1579l12 256h113l12 -256h-137z" />
    <glyph glyph-name="Idieresis" unicode="&#xcf;" horiz-adv-x="360" 
d="M-147 1694q0 51 32 82.5t86 31.5q51 0 84 -31.5t33 -82.5t-33 -83t-84 -32q-54 0 -86 32t-32 83zM272 1694q0 51 31.5 82.5t85.5 31.5q51 0 84 -31.5t33 -82.5t-33 -83t-84 -32q-53 0 -85 31.5t-32 83.5zM82 0v1460h194v-1460h-194z" />
    <glyph glyph-name="Eth" unicode="&#xd0;" horiz-adv-x="1368" 
d="M289 -2v645h-209v164h209v653h258h12q220 0 385.5 -91t253.5 -256t88 -382q0 -330 -197 -528.5t-542 -202.5zM485 176h78q245 0 390 151.5t145 403.5t-145 403.5t-390 151.5h-78v-479h240v-164h-240v-467z" />
    <glyph glyph-name="Ntilde" unicode="&#xd1;" horiz-adv-x="1431" 
d="M444 1561h-129q13 95 71.5 154t168.5 59q47 0 90 -15t70 -33.5t65.5 -33.5t77.5 -15q47 0 84.5 28t44.5 71h135q-40 -220 -250 -220q-56 0 -104 15t-75.5 33.5t-63 33.5t-70.5 15q-49 0 -79 -25t-36 -67zM82 0v1477l1073 -1082v1065h193v-1476l-1065 1063l-7 -1047h-194z
" />
    <glyph glyph-name="Ograve" unicode="&#xd2;" horiz-adv-x="1710" 
d="M897 1577h-82l-264 332h154zM86 729q0 171 58 316t159.5 246t244 157.5t308.5 56.5q167 0 310 -56.5t244.5 -157t159.5 -245.5t58 -315q0 -171 -58.5 -316.5t-161.5 -246t-245.5 -157t-306.5 -56.5t-306.5 56.5t-244.5 156.5t-160.5 245t-58.5 316zM856 129h2h4v0h2h2
q87 0 169.5 25t154.5 76t126.5 122t86 169t31.5 210q0 88 -22 173.5t-69 163.5t-114 136.5t-163.5 93.5t-209.5 35q-89 0 -173 -25t-157 -76t-127.5 -122t-86 -169t-31.5 -210q0 -140 48 -256t128.5 -190.5t183.5 -115t215 -40.5z" />
    <glyph glyph-name="Oacute" unicode="&#xd3;" horiz-adv-x="1710" 
d="M811 1577l193 332h153l-264 -332h-82zM86 729q0 171 58 316t159.5 246t244 157.5t308.5 56.5q167 0 310 -56.5t244.5 -157t159.5 -245.5t58 -315q0 -171 -58.5 -316.5t-161.5 -246t-245.5 -157t-306.5 -56.5t-306.5 56.5t-244.5 156.5t-160.5 245t-58.5 316zM856 129h2h4
v0h2h2q87 0 169.5 25t154.5 76t126.5 122t86 169t31.5 210q0 88 -22 173.5t-69 163.5t-114 136.5t-163.5 93.5t-209.5 35q-89 0 -173 -25t-157 -76t-127.5 -122t-86 -169t-31.5 -210q0 -140 48 -256t128.5 -190.5t183.5 -115t215 -40.5z" />
    <glyph glyph-name="Ocircumflex" unicode="&#xd4;" horiz-adv-x="1710" 
d="M788 1579l13 256h112l13 -256h-138zM86 729q0 171 58 316t159.5 246t244 157.5t308.5 56.5q167 0 310 -56.5t244.5 -157t159.5 -245.5t58 -315q0 -171 -58.5 -316.5t-161.5 -246t-245.5 -157t-306.5 -56.5t-306.5 56.5t-244.5 156.5t-160.5 245t-58.5 316zM856 129h2h4v0
h2h2q87 0 169.5 25t154.5 76t126.5 122t86 169t31.5 210q0 88 -22 173.5t-69 163.5t-114 136.5t-163.5 93.5t-209.5 35q-89 0 -173 -25t-157 -76t-127.5 -122t-86 -169t-31.5 -210q0 -140 48 -256t128.5 -190.5t183.5 -115t215 -40.5z" />
    <glyph glyph-name="Otilde" unicode="&#xd5;" horiz-adv-x="1710" 
d="M582 1561h-129q13 95 71 154t168 59q47 0 90 -15t70 -33.5t65.5 -33.5t77.5 -15q47 0 84.5 28t44.5 71h136q-40 -220 -250 -220q-56 0 -104 15t-75.5 33.5t-63.5 33.5t-71 15q-48 0 -78 -25t-36 -67zM86 729q0 171 58 316t159.5 246t244 157.5t308.5 56.5
q167 0 310 -56.5t244.5 -157t159.5 -245.5t58 -315q0 -171 -58.5 -316.5t-161.5 -246t-245.5 -157t-306.5 -56.5t-306.5 56.5t-244.5 156.5t-160.5 245t-58.5 316zM856 129h2h4v0h2h2q87 0 169.5 25t154.5 76t126.5 122t86 169t31.5 210q0 88 -22 173.5t-69 163.5
t-114 136.5t-163.5 93.5t-209.5 35q-89 0 -173 -25t-157 -76t-127.5 -122t-86 -169t-31.5 -210q0 -140 48 -256t128.5 -190.5t183.5 -115t215 -40.5z" />
    <glyph glyph-name="Odieresis" unicode="&#xd6;" horiz-adv-x="1710" 
d="M528 1694q0 51 32.5 82.5t86.5 31.5q51 0 84 -31.5t33 -82.5t-33 -83t-84 -32q-54 0 -86.5 32t-32.5 83zM948 1694q0 51 31.5 82.5t85.5 31.5q51 0 84 -31.5t33 -82.5t-33 -83t-84 -32q-53 0 -85 31.5t-32 83.5zM86 729q0 171 58 316t159.5 246t244 157.5t308.5 56.5
q167 0 310 -56.5t244.5 -157t159.5 -245.5t58 -315q0 -171 -58.5 -316.5t-161.5 -246t-245.5 -157t-306.5 -56.5t-306.5 56.5t-244.5 156.5t-160.5 245t-58.5 316zM856 129h2h4v0h2h2q87 0 169.5 25t154.5 76t126.5 122t86 169t31.5 210q0 88 -22 173.5t-69 163.5
t-114 136.5t-163.5 93.5t-209.5 35q-89 0 -173 -25t-157 -76t-127.5 -122t-86 -169t-31.5 -210q0 -140 48 -256t128.5 -190.5t183.5 -115t215 -40.5z" />
    <glyph glyph-name="multiply" unicode="&#xd7;" horiz-adv-x="880" 
d="M199 377l-113 112l240 238l-242 242l119 116l239 -239l238 237l113 -112l-238 -238l242 -241l-119 -117l-240 239z" />
    <glyph glyph-name="Oslash" unicode="&#xd8;" horiz-adv-x="1708" 
d="M84 729q0 171 58 316t159.5 246t244 157.5t308.5 56.5q203 0 369 -84l57 111h147l-96 -176q142 -104 218.5 -264t76.5 -361q0 -171 -58.5 -316.5t-161.5 -246t-245.5 -157t-306.5 -56.5q-134 0 -250 39l-69 -131h-146l94 178q-186 94 -292.5 273.5t-106.5 414.5zM569 203
l570 1061q-128 69 -285 69q-89 0 -173 -25t-157 -76t-127.5 -122t-86 -169t-31.5 -210q0 -184 78.5 -320t211.5 -208zM854 129q114 0 217.5 40.5t184 115t128.5 190.5t48 256q0 125 -48.5 248t-142.5 205l-553 -1030q79 -25 166 -25z" />
    <glyph glyph-name="Ugrave" unicode="&#xd9;" horiz-adv-x="1372" 
d="M729 1577h-82l-264 332h154zM84 1460h195v-870q0 -201 113.5 -330t293.5 -129t295 124.5t115 334.5v870h192v-862q0 -139 -44.5 -258.5t-123.5 -204t-191 -132.5t-243 -48t-243 48t-191 132.5t-123.5 204t-44.5 258.5v862z" />
    <glyph glyph-name="Uacute" unicode="&#xda;" horiz-adv-x="1372" 
d="M643 1577l193 332h153l-264 -332h-82zM84 1460h195v-870q0 -201 113.5 -330t293.5 -129t295 124.5t115 334.5v870h192v-862q0 -139 -44.5 -258.5t-123.5 -204t-191 -132.5t-243 -48t-243 48t-191 132.5t-123.5 204t-44.5 258.5v862z" />
    <glyph glyph-name="Ucircumflex" unicode="&#xdb;" horiz-adv-x="1372" 
d="M618 1579l13 256h112l13 -256h-138zM84 1460h195v-870q0 -201 113.5 -330t293.5 -129t295 124.5t115 334.5v870h192v-862q0 -139 -44.5 -258.5t-123.5 -204t-191 -132.5t-243 -48t-243 48t-191 132.5t-123.5 204t-44.5 258.5v862z" />
    <glyph glyph-name="Udieresis" unicode="&#xdc;" horiz-adv-x="1372" 
d="M360 1694q0 51 32.5 82.5t86.5 31.5q51 0 84 -31.5t33 -82.5t-33 -83t-84 -32q-54 0 -86.5 32t-32.5 83zM780 1694q0 51 31.5 82.5t85.5 31.5q51 0 84 -31.5t33 -82.5t-33 -83t-84 -32q-53 0 -85 31.5t-32 83.5zM84 1460h195v-870q0 -201 113.5 -330t293.5 -129
t295 124.5t115 334.5v870h192v-862q0 -139 -44.5 -258.5t-123.5 -204t-191 -132.5t-243 -48t-243 48t-191 132.5t-123.5 204t-44.5 258.5v862z" />
    <glyph glyph-name="Yacute" unicode="&#xdd;" horiz-adv-x="1533" 
d="M670 0v444l-586 1016h213l473 -831l469 831h211l-586 -1016v-444h-194zM662 1577l192 332h154l-265 -332h-81z" />
    <glyph glyph-name="Thorn" unicode="&#xde;" horiz-adv-x="1173" 
d="M82 -276v1566h194v-299h267q110 0 205.5 -27t172 -81t120.5 -145t44 -210q0 -150 -69.5 -256.5t-186 -157.5t-266.5 -51h-287v-339h-194zM547 238q55 0 105 8.5t98 30t83 53.5t56.5 82.5t21.5 113.5q0 78 -32 136.5t-85.5 91t-115.5 48t-131 15.5h-271v-579h271z" />
    <glyph glyph-name="germandbls" unicode="&#xdf;" horiz-adv-x="1343" 
d="M279 0h-195v979q0 549 516 549q79 0 149.5 -10.5t138.5 -37.5t116.5 -68.5t78 -108.5t29.5 -152q0 -116 -84 -208.5t-201 -117.5q86 -13 162 -44.5t137.5 -81t97.5 -123.5t36 -162q0 -126 -61.5 -221.5t-164 -144t-229.5 -48.5h-393v158h344q126 0 207 77.5t81 200.5
q0 70 -31 125.5t-79 89.5t-112.5 56.5t-126 31.5t-124.5 9h-84v139h88q59 0 114.5 11.5t108 36.5t84 73t31.5 114q0 68 -25 117.5t-70.5 76.5t-100 39.5t-121.5 12.5q-89 0 -152 -28t-98.5 -81t-51 -119.5t-15.5 -154.5v-985z" />
    <glyph glyph-name="agrave" unicode="&#xe0;" 
d="M684 1167h-82l-264 332h154zM643 1085q251 0 405 -156.5t154 -402.5l2 -526h-186v166q-63 -97 -165.5 -149t-231.5 -52q-237 0 -387 156.5t-150 404.5q0 243 157.5 401t401.5 158zM643 911q-159 0 -261.5 -108.5t-102.5 -276.5q0 -169 102 -278t262 -109q159 0 261 107.5
t102 267.5v6v2v2v2v6v3v2v2q0 160 -99 266t-264 106z" />
    <glyph glyph-name="aacute" unicode="&#xe1;" 
d="M598 1167l193 332h153l-264 -332h-82zM643 1085q251 0 405 -156.5t154 -402.5l2 -526h-186v166q-63 -97 -165.5 -149t-231.5 -52q-237 0 -387 156.5t-150 404.5q0 243 157.5 401t401.5 158zM643 911q-159 0 -261.5 -108.5t-102.5 -276.5q0 -169 102 -278t262 -109
q159 0 261 107.5t102 267.5v6v2v2v2v6v3v2v2q0 160 -99 266t-264 106z" />
    <glyph glyph-name="acircumflex" unicode="&#xe2;" 
d="M575 1169l13 256h112l13 -256h-138zM643 1085q251 0 405 -156.5t154 -402.5l2 -526h-186v166q-63 -97 -165.5 -149t-231.5 -52q-237 0 -387 156.5t-150 404.5q0 243 157.5 401t401.5 158zM643 911q-159 0 -261.5 -108.5t-102.5 -276.5q0 -169 102 -278t262 -109
q159 0 261 107.5t102 267.5v6v2v2v2v6v3v2v2q0 160 -99 266t-264 106z" />
    <glyph glyph-name="atilde" unicode="&#xe3;" 
d="M371 1151h-129q13 95 71 154t168 59q47 0 90 -15t70 -33t65.5 -33t77.5 -15q48 0 85 28t44 70h136q-40 -219 -250 -219q-56 0 -104 15t-75.5 33t-63.5 33t-71 15q-48 0 -78 -25t-36 -67zM643 1085q251 0 405 -156.5t154 -402.5l2 -526h-186v166q-63 -97 -165.5 -149
t-231.5 -52q-237 0 -387 156.5t-150 404.5q0 243 157.5 401t401.5 158zM643 911q-159 0 -261.5 -108.5t-102.5 -276.5q0 -169 102 -278t262 -109q159 0 261 107.5t102 267.5v6v2v2v2v6v3v2v2q0 160 -99 266t-264 106z" />
    <glyph glyph-name="adieresis" unicode="&#xe4;" 
d="M315 1284q0 51 32.5 83t86.5 32q51 0 84 -32t33 -83t-33 -83t-84 -32q-54 0 -86.5 32t-32.5 83zM735 1284q0 52 31.5 83.5t85.5 31.5q51 0 84 -32t33 -83t-33 -83t-84 -32q-54 0 -85.5 31.5t-31.5 83.5zM643 1085q251 0 405 -156.5t154 -402.5l2 -526h-186v166
q-63 -97 -165.5 -149t-231.5 -52q-237 0 -387 156.5t-150 404.5q0 243 157.5 401t401.5 158zM643 911q-159 0 -261.5 -108.5t-102.5 -276.5q0 -169 102 -278t262 -109q159 0 261 107.5t102 267.5v6v2v2v2v6v3v2v2q0 160 -99 266t-264 106z" />
    <glyph glyph-name="aring" unicode="&#xe5;" 
d="M424 1239q0 97 61.5 158t159.5 61t158.5 -61t60.5 -158q0 -96 -59 -158q-6 -4 -14 -12q35 -7 83 -25q154 -64 241 -199.5t87 -318.5l2 -526h-186v166q-63 -97 -165.5 -149t-231.5 -52q-237 0 -387 156.5t-150 404.5q0 181 90 317.5t244 200.5q49 18 80 25l-13 12
q-61 61 -61 158zM516 1239q0 -57 36.5 -94t92.5 -37q55 0 91 37t36 94t-35.5 93t-91.5 36t-92.5 -36t-36.5 -93zM643 911q-159 0 -261.5 -108.5t-102.5 -276.5q0 -169 102 -278t262 -109q159 0 261 107.5t102 267.5v6v2v2v2v6v3v2v2q0 160 -99 266t-264 106z" />
    <glyph glyph-name="ae" unicode="&#xe6;" horiz-adv-x="2189" 
d="M641 1085q245 0 399 -157q32 -32 58 -76q30 45 61 76q154 157 397 157q245 0 397 -153.5t152 -396.5q0 -58 -8 -82h-911q12 -133 124 -231.5t271 -98.5q95 0 177 41t130 117h183q-147 -316 -496 -316q-132 0 -236 43q-87 37 -155 96l2 -104h-170v166q-63 -97 -166 -149
t-232 -52q-237 0 -386.5 156t-149.5 405q0 243 157.5 401t401.5 158zM1186 573h758q-13 150 -113.5 251.5t-267.5 101.5q-73 0 -135.5 -21t-106 -56.5t-75 -81.5t-46 -95t-14.5 -99zM641 911q-159 0 -262 -108.5t-103 -276.5q0 -169 102.5 -278t262.5 -109q161 0 262 107
t101 268v12v13q0 160 -99 266t-264 106z" />
    <glyph glyph-name="ccedilla" unicode="&#xe7;" horiz-adv-x="1234" 
d="M641 1085q183 0 319.5 -100.5t190.5 -279.5h-186q-37 102 -126 158.5t-198 56.5q-164 0 -269.5 -112.5t-105.5 -275.5q0 -107 44.5 -198t131.5 -147t199 -56q107 0 200 59t124 160h186q-40 -174 -173 -274.5t-306 -108.5v-35h35q113 0 171 -54t58 -150q0 -97 -57.5 -152
t-171.5 -55h-162v100h153q61 0 95 27.5t34 77.5t-34 77t-95 27h-127v139q-217 20 -353 175t-136 382q0 244 157 401.5t402 157.5z" />
    <glyph glyph-name="egrave" unicode="&#xe8;" horiz-adv-x="1267" 
d="M676 1167h-82l-264 332h153zM967 281h182q-147 -316 -496 -316q-170 0 -300 74t-198.5 200.5t-68.5 286.5q0 246 152 402.5t397 156.5t397 -153.5t152 -396.5q0 -43 -6 -91h-916q18 -140 126.5 -230.5t270.5 -90.5q95 0 177.5 41t130.5 117zM264 573h758
q-13 150 -113.5 251.5t-267.5 101.5q-73 0 -135.5 -21t-106 -56.5t-75 -81.5t-46 -95t-14.5 -99z" />
    <glyph glyph-name="eacute" unicode="&#xe9;" horiz-adv-x="1267" 
d="M590 1167l192 332h154l-264 -332h-82zM967 281h182q-147 -316 -496 -316q-170 0 -300 74t-198.5 200.5t-68.5 286.5q0 246 152 402.5t397 156.5t397 -153.5t152 -396.5q0 -43 -6 -91h-916q18 -140 126.5 -230.5t270.5 -90.5q95 0 177.5 41t130.5 117zM264 573h758
q-13 150 -113.5 251.5t-267.5 101.5q-73 0 -135.5 -21t-106 -56.5t-75 -81.5t-46 -95t-14.5 -99z" />
    <glyph glyph-name="ecircumflex" unicode="&#xea;" horiz-adv-x="1267" 
d="M565 1169l13 256h112l12 -256h-137zM967 281h182q-147 -316 -496 -316q-170 0 -300 74t-198.5 200.5t-68.5 286.5q0 246 152 402.5t397 156.5t397 -153.5t152 -396.5q0 -43 -6 -91h-916q18 -140 126.5 -230.5t270.5 -90.5q95 0 177.5 41t130.5 117zM264 573h758
q-13 150 -113.5 251.5t-267.5 101.5q-73 0 -135.5 -21t-106 -56.5t-75 -81.5t-46 -95t-14.5 -99z" />
    <glyph glyph-name="edieresis" unicode="&#xeb;" horiz-adv-x="1267" 
d="M307 1284q0 51 32.5 83t86.5 32q51 0 84 -32t33 -83t-33 -83t-84 -32q-54 0 -86.5 32t-32.5 83zM727 1284q0 52 31.5 83.5t85.5 31.5q51 0 84 -32t33 -83t-33 -83t-84 -32q-54 0 -85.5 31.5t-31.5 83.5zM967 281h182q-147 -316 -496 -316q-170 0 -300 74t-198.5 200.5
t-68.5 286.5q0 246 152 402.5t397 156.5t397 -153.5t152 -396.5q0 -43 -6 -91h-916q18 -140 126.5 -230.5t270.5 -90.5q95 0 177.5 41t130.5 117zM264 573h758q-13 150 -113.5 251.5t-267.5 101.5q-73 0 -135.5 -21t-106 -56.5t-75 -81.5t-46 -95t-14.5 -99z" />
    <glyph glyph-name="igrave" unicode="&#xec;" horiz-adv-x="413" 
d="M111 0v1051h192v-1051h-192zM246 1167h-82l-264 332h153z" />
    <glyph glyph-name="iacute" unicode="&#xed;" horiz-adv-x="413" 
d="M111 0v1051h192v-1051h-192zM164 1167l192 332h154l-264 -332h-82z" />
    <glyph glyph-name="icircumflex" unicode="&#xee;" horiz-adv-x="413" 
d="M111 0v1051h192v-1051h-192zM137 1169l13 256h112l12 -256h-137z" />
    <glyph glyph-name="idieresis" unicode="&#xef;" horiz-adv-x="411" 
d="M-123 1284q0 51 32.5 83t86.5 32q51 0 84 -32t33 -83t-33 -83t-84 -32q-54 0 -86.5 32t-32.5 83zM297 1284q0 52 31.5 83.5t85.5 31.5q51 0 83.5 -32t32.5 -83t-32.5 -83t-83.5 -32q-54 0 -85.5 31.5t-31.5 83.5zM109 0v1051h192v-1051h-192z" />
    <glyph glyph-name="eth" unicode="&#xf0;" horiz-adv-x="1144" 
d="M360 1466l58 93q152 -67 248 -144l219 137l57 -92l-188 -117q309 -303 309 -778q0 -94 -18 -179t-57.5 -159.5t-96.5 -129t-139.5 -86t-182.5 -31.5q-226 0 -355.5 132t-129.5 359q0 220 124 362t339 142q222 0 325 -129q-66 266 -237 426l-234 -146l-59 93l213 131
q-69 55 -195 116zM578 842q-157 0 -235.5 -103.5t-78.5 -265.5q0 -159 76.5 -259.5t230.5 -100.5q74 0 130.5 28.5t90 72.5t55 106.5t29 122t7.5 126.5q0 130 -86 201.5t-219 71.5z" />
    <glyph glyph-name="ntilde" unicode="&#xf1;" 
d="M371 1151h-129q13 95 71 154t168 59q47 0 90 -15t70 -33t65.5 -33t77.5 -15q48 0 85 28t44 70h136q-40 -219 -250 -219q-56 0 -104 15t-75.5 33t-63.5 33t-71 15q-48 0 -78 -25t-36 -67zM86 0v1051h193v-179q62 98 167.5 155.5t227.5 57.5q123 0 224.5 -49.5t167 -134.5
t101 -196.5t35.5 -237.5v-467h-190v457q0 105 -28 190.5t-76 140.5t-111 84t-135 29q-171 0 -277 -126.5t-106 -352.5v-422h-193z" />
    <glyph glyph-name="ograve" unicode="&#xf2;" 
d="M686 1167h-82l-264 332h154zM1202 526q0 -246 -156.5 -403.5t-402.5 -157.5q-245 0 -402 157.5t-157 403.5q0 247 157 403t402 156q246 0 402.5 -156t156.5 -403zM1022 526q0 174 -107 287t-272 113q-166 0 -271.5 -112.5t-105.5 -287.5t105.5 -287t271.5 -112
q165 0 272 112.5t107 286.5z" />
    <glyph glyph-name="oacute" unicode="&#xf3;" 
d="M600 1167l193 332h153l-264 -332h-82zM1202 526q0 -246 -156.5 -403.5t-402.5 -157.5q-245 0 -402 157.5t-157 403.5q0 247 157 403t402 156q246 0 402.5 -156t156.5 -403zM1022 526q0 174 -107 287t-272 113q-166 0 -271.5 -112.5t-105.5 -287.5t105.5 -287t271.5 -112
q165 0 272 112.5t107 286.5z" />
    <glyph glyph-name="ocircumflex" unicode="&#xf4;" 
d="M575 1169l13 256h112l13 -256h-138zM1202 526q0 -246 -156.5 -403.5t-402.5 -157.5q-245 0 -402 157.5t-157 403.5q0 247 157 403t402 156q246 0 402.5 -156t156.5 -403zM1022 526q0 174 -107 287t-272 113q-166 0 -271.5 -112.5t-105.5 -287.5t105.5 -287t271.5 -112
q165 0 272 112.5t107 286.5z" />
    <glyph glyph-name="otilde" unicode="&#xf5;" 
d="M371 1151h-129q13 95 71 154t168 59q47 0 90 -15t70 -33t65.5 -33t77.5 -15q48 0 85 28t44 70h136q-40 -219 -250 -219q-56 0 -104 15t-75.5 33t-63.5 33t-71 15q-48 0 -78 -25t-36 -67zM1202 526q0 -246 -156.5 -403.5t-402.5 -157.5q-245 0 -402 157.5t-157 403.5
q0 247 157 403t402 156q246 0 402.5 -156t156.5 -403zM1022 526q0 174 -107 287t-272 113q-166 0 -271.5 -112.5t-105.5 -287.5t105.5 -287t271.5 -112q165 0 272 112.5t107 286.5z" />
    <glyph glyph-name="odieresis" unicode="&#xf6;" 
d="M317 1284q0 51 32.5 83t86.5 32q51 0 84 -32t33 -83t-33 -83t-84 -32q-54 0 -86.5 32t-32.5 83zM737 1284q0 52 31.5 83.5t85.5 31.5q51 0 84 -32t33 -83t-33 -83t-84 -32q-54 0 -85.5 31.5t-31.5 83.5zM1202 526q0 -246 -156.5 -403.5t-402.5 -157.5q-245 0 -402 157.5
t-157 403.5q0 247 157 403t402 156q246 0 402.5 -156t156.5 -403zM1022 526q0 174 -107 287t-272 113q-166 0 -271.5 -112.5t-105.5 -287.5t105.5 -287t271.5 -112q165 0 272 112.5t107 286.5z" />
    <glyph glyph-name="divide" unicode="&#xf7;" horiz-adv-x="1087" 
d="M434 1141q0 47 31 76.5t80 29.5t79.5 -29.5t30.5 -76.5q0 -49 -30 -79t-80 -30t-80.5 30t-30.5 79zM84 672v145h922v-145h-922zM434 322q0 47 31 76.5t80 29.5t79.5 -29.5t30.5 -76.5q0 -49 -30 -78t-80 -29t-80.5 29t-30.5 78z" />
    <glyph glyph-name="oslash" unicode="&#xf8;" horiz-adv-x="1284" 
d="M1200 526q0 -246 -156.5 -403.5t-402.5 -157.5q-112 0 -197 33l-63 -125h-125l88 170q-124 70 -193 195t-69 288q0 247 157 403t402 156q122 0 215 -38l78 151h125l-103 -199q117 -73 180.5 -194.5t63.5 -278.5zM422 195l358 704q-73 27 -139 27q-166 0 -271.5 -112.5
t-105.5 -287.5q0 -107 41.5 -191.5t116.5 -139.5zM1020 526q0 101 -38.5 181.5t-107.5 132.5l-352 -693q70 -20 119 -20q165 0 272 112.5t107 286.5z" />
    <glyph glyph-name="ugrave" unicode="&#xf9;" horiz-adv-x="1284" 
d="M684 1167h-82l-264 332h154zM1202 1051v-1051h-194v174q-62 -98 -167.5 -155.5t-228.5 -57.5q-164 0 -285 82.5t-181 221.5t-60 315v471h193v-461q0 -220 92 -343.5t254 -123.5q177 0 280 135.5t103 366.5v426h194z" />
    <glyph glyph-name="uacute" unicode="&#xfa;" horiz-adv-x="1284" 
d="M598 1167l193 332h153l-264 -332h-82zM1202 1051v-1051h-194v174q-62 -98 -167.5 -155.5t-228.5 -57.5q-164 0 -285 82.5t-181 221.5t-60 315v471h193v-461q0 -220 92 -343.5t254 -123.5q177 0 280 135.5t103 366.5v426h194z" />
    <glyph glyph-name="ucircumflex" unicode="&#xfb;" horiz-adv-x="1284" 
d="M575 1169l13 256h112l13 -256h-138zM1202 1051v-1051h-194v174q-62 -98 -167.5 -155.5t-228.5 -57.5q-164 0 -285 82.5t-181 221.5t-60 315v471h193v-461q0 -220 92 -343.5t254 -123.5q177 0 280 135.5t103 366.5v426h194z" />
    <glyph glyph-name="udieresis" unicode="&#xfc;" horiz-adv-x="1284" 
d="M315 1284q0 51 32.5 83t86.5 32q51 0 84 -32t33 -83t-33 -83t-84 -32q-54 0 -86.5 32t-32.5 83zM735 1284q0 52 31.5 83.5t85.5 31.5q51 0 84 -32t33 -83t-33 -83t-84 -32q-54 0 -85.5 31.5t-31.5 83.5zM1202 1051v-1051h-194v174q-62 -98 -167.5 -155.5t-228.5 -57.5
q-164 0 -285 82.5t-181 221.5t-60 315v471h193v-461q0 -220 92 -343.5t254 -123.5q177 0 280 135.5t103 366.5v426h194z" />
    <glyph glyph-name="yacute" unicode="&#xfd;" horiz-adv-x="1282" 
d="M555 1167l193 332h153l-264 -332h-82zM190 -289h132q87 0 148 68.5t128 218.5l-516 1053h211l389 -811l317 811h201l-424 -1071q-165 -443 -407 -443h-179v174z" />
    <glyph glyph-name="thorn" unicode="&#xfe;" horiz-adv-x="1277" 
d="M82 -279v1577h194v-372q62 76 153 118.5t204 42.5q244 0 402.5 -159t158.5 -402q0 -241 -154 -400t-387 -159q-119 0 -217 44.5t-160 129.5v-420h-194zM635 141q159 0 261.5 108.5t102.5 276.5q0 167 -103 277t-261 110q-157 0 -261 -96.5t-104 -261.5v-49v-12
q0 -159 103.5 -256t261.5 -97z" />
    <glyph glyph-name="ydieresis" unicode="&#xff;" horiz-adv-x="1282" 
d="M313 1284q0 51 32.5 83t86.5 32q51 0 84 -32t33 -83t-33 -83t-84 -32q-54 0 -86.5 32t-32.5 83zM733 1284q0 52 31.5 83.5t85.5 31.5q51 0 84 -32t33 -83t-33 -83t-84 -32q-54 0 -85.5 31.5t-31.5 83.5zM190 -289h132q87 0 148 68.5t128 218.5l-516 1053h211l389 -811
l317 811h201l-424 -1071q-165 -443 -407 -443h-179v174z" />
    <glyph glyph-name="Dcroat" unicode="&#x110;" horiz-adv-x="1370" 
d="M291 -2v645h-209v164h209v653h260h4h2h2h2q220 0 385.5 -91t253.5 -256t88 -382q0 -330 -197 -528.5t-542 -202.5zM487 176h78q245 0 390 151.5t145 403.5t-145 403.5t-390 151.5h-78v-479h240v-164h-240v-467z" />
    <glyph glyph-name="dcroat" unicode="&#x111;" horiz-adv-x="1277" 
d="M999 1460h195v-194h180v-127h-180v-633q0 -242 -154 -392.5t-397 -150.5q-242 0 -401.5 160.5t-159.5 400.5q0 245 148.5 402t383.5 157q121 0 219.5 -49t165.5 -139v244h-178v127h178v194zM276 524q0 -167 103.5 -276t261.5 -109q161 0 264 104.5t103 280.5
q0 168 -103.5 276.5t-263.5 108.5t-262.5 -108t-102.5 -277z" />
    <glyph glyph-name="dotlessi" unicode="&#x131;" horiz-adv-x="413" 
d="M111 0v1051h192v-1051h-192z" />
    <glyph glyph-name="Lslash" unicode="&#x141;" horiz-adv-x="1351" 
d="M348 0v422l-180 -180l-117 118l297 297v803h195v-608l217 217l117 -119l-334 -334v-430h727v-186h-922z" />
    <glyph glyph-name="lslash" unicode="&#x142;" horiz-adv-x="784" 
d="M723 0h-141q-131 0 -211 86t-80 227v197l-117 -117l-117 115l234 233v719h192v-526l131 131l117 -115l-248 -248v-346q0 -82 42.5 -126t113.5 -44h84v-186z" />
    <glyph glyph-name="OE" unicode="&#x152;" horiz-adv-x="2521" 
d="M86 729q0 171 58 316t159.5 246t244 157.5t308.5 56.5q164 0 306.5 -55.5t248.5 -157.5q3 -4 23 -24v194h983v-174h-789v-477h707v-166h-707v-467h809v-176h-1003v193l-25 -25q-105 -104 -247 -159.5t-306 -55.5t-306.5 56.5t-244.5 156.5t-160.5 245t-58.5 316zM856 129
h2h4v0h2h2q87 0 169.5 25t154.5 76t126.5 122t86 169t31.5 210q0 88 -22 173.5t-69 163.5t-114 136.5t-163.5 93.5t-209.5 35q-89 0 -173 -25t-157 -76t-127.5 -122t-86 -169t-31.5 -210q0 -140 48 -256t128.5 -190.5t183.5 -115t215 -40.5z" />
    <glyph glyph-name="oe" unicode="&#x153;" horiz-adv-x="2205" 
d="M1905 281h182q-147 -316 -496 -316q-254 0 -413 162q-43 43 -66 80q-22 -38 -68 -84q-161 -158 -403 -158q-245 0 -402 157.5t-157 403.5q0 247 157 403t402 156t403 -155q46 -49 68 -84q25 43 64 82q154 157 397 157q245 0 397 -153.5t152 -396.5q0 -43 -6 -91h-916
q18 -140 126.5 -230.5t270.5 -90.5q95 0 177.5 41t130.5 117zM1020 526q0 174 -107 287t-272 113q-166 0 -271.5 -112.5t-105.5 -287.5t105.5 -287t271.5 -112q165 0 272 112.5t107 286.5zM1202 573h758q-13 150 -113.5 251.5t-267.5 101.5q-73 0 -135.5 -21t-106 -56.5
t-75 -81.5t-46 -95t-14.5 -99z" />
    <glyph glyph-name="Scaron" unicode="&#x160;" horiz-adv-x="1310" 
d="M713 1579h-113l-12 256h137zM82 387h203q12 -117 124.5 -191.5t252.5 -74.5q54 0 104 8t98.5 27.5t84 49.5t57.5 77t22 106t-26.5 103t-71.5 69.5t-105 46.5t-128 32.5t-139 27.5t-139 32.5t-128 47t-105 70.5t-71.5 104t-26.5 147q0 86 30 158.5t82.5 123.5t123 86.5
t151.5 52.5t168 17q235 0 388 -118t183 -310h-202q-13 82 -67.5 143t-130.5 91t-163 30q-66 0 -129.5 -15.5t-117 -45.5t-86.5 -80t-33 -112q0 -66 32 -113.5t86.5 -74.5t125 -46t148.5 -33.5t156 -30.5t148.5 -44t125 -68t86.5 -107t32 -157q0 -118 -46 -209t-125 -145.5
t-177 -81.5t-211 -27q-245 0 -399.5 119t-184.5 315z" />
    <glyph glyph-name="scaron" unicode="&#x161;" horiz-adv-x="1026" 
d="M571 1169h-112l-13 256h138zM61 322l185 -3q8 -66 49 -114t98.5 -71t122.5 -23h8h2h2h2h2q61 0 116.5 17.5t96.5 59t41 99.5v4v0v2v2q-1 39 -24.5 67.5t-84 49t-94 28.5t-125.5 25l-30 6q-74 14 -131.5 34t-109.5 53t-80.5 85.5t-28.5 120.5v4v2v2q2 82 42 145t104 98
t136.5 52.5t149.5 17.5q180 -5 296 -81.5t150 -212.5h-184q-38 135 -260 149h-4h-4h-2h-2h-2q-34 0 -72 -8t-77 -25.5t-65 -51t-28 -77.5q0 -49 38.5 -81.5t100.5 -49.5t136.5 -31.5t150 -34.5t138 -50t102 -86.5t41.5 -135.5v-2v-2v-2v0v-2q0 -84 -37 -149.5t-100.5 -105.5
t-143 -60.5t-170.5 -20.5q-188 5 -311 101t-140 256z" />
    <glyph glyph-name="Ydieresis" unicode="&#x178;" horiz-adv-x="1533" 
d="M440 1694q0 51 32.5 82.5t86.5 31.5q51 0 84 -31.5t33 -82.5t-33 -83t-84 -32q-54 0 -86.5 32t-32.5 83zM860 1694q0 51 31.5 82.5t85.5 31.5q51 0 84 -31.5t33 -82.5t-33 -83t-84 -32q-53 0 -85 31.5t-32 83.5zM670 0v444l-586 1016h213l473 -831l469 831h211
l-586 -1016v-444h-194z" />
    <glyph glyph-name="Zcaron" unicode="&#x17d;" horiz-adv-x="1353" 
d="M84 0l872 1286h-823v174h1137l-858 -1284h786v-176h-1114zM735 1579h-112l-13 256h138z" />
    <glyph glyph-name="zcaron" unicode="&#x17e;" horiz-adv-x="1107" 
d="M104 1051h900v-125l-629 -758h649v-168h-940v127l643 758h-623v166zM612 1169h-112l-13 256h138z" />
    <glyph glyph-name="florin" unicode="&#x192;" horiz-adv-x="1064" 
d="M223 -242h-141l53 162h90q59 0 85.5 33.5t39.5 103.5l133 766h-188l22 133h187l45 238q25 130 89.5 198t186.5 68h156l-51 -153h-88q-109 0 -133 -138l-41 -213h225l-23 -133h-223l-139 -794q-22 -131 -88 -201t-197 -70z" />
    <glyph glyph-name="circumflex" unicode="&#x2c6;" horiz-adv-x="690" 
d="M276 1169l13 256h112l13 -256h-138z" />
    <glyph glyph-name="caron" unicode="&#x2c7;" horiz-adv-x="690" 
d="M401 1169h-112l-13 256h138z" />
    <glyph glyph-name="breve" unicode="&#x2d8;" horiz-adv-x="710" 
d="M82 1430h119q12 -73 52.5 -111.5t102.5 -38.5q58 0 100.5 39t55.5 111h117q-18 -122 -88.5 -192.5t-184.5 -70.5q-116 0 -186 70.5t-88 192.5z" />
    <glyph glyph-name="dotaccent" unicode="&#x2d9;" horiz-adv-x="401" 
d="M82 1282q0 50 32.5 81.5t86.5 31.5q53 0 84.5 -31.5t31.5 -81.5q0 -54 -31 -85.5t-85 -31.5t-86.5 31.5t-32.5 85.5z" />
    <glyph glyph-name="ring" unicode="&#x2da;" horiz-adv-x="608" 
d="M84 1235q0 97 61.5 158t159.5 61t158.5 -61t60.5 -158t-60.5 -158t-158.5 -61t-159.5 61t-61.5 158zM176 1235q0 -57 36.5 -94t92.5 -37q55 0 91 37t36 94t-35.5 93t-91.5 36t-92.5 -36t-36.5 -93z" />
    <glyph glyph-name="ogonek" unicode="&#x2db;" horiz-adv-x="595" 
d="M442 29v-29q-114 -31 -175.5 -84.5t-61.5 -126.5q0 -85 82.5 -138t224.5 -73v-90q-430 0 -430 258q0 112 79.5 184.5t213.5 98.5h67z" />
    <glyph glyph-name="tilde" unicode="&#x2dc;" horiz-adv-x="1034" 
d="M244 1151h-129q13 95 71 154t168 59q47 0 90 -15t70 -33t65.5 -33t77.5 -15q48 0 85 28t44 70h136q-40 -219 -250 -219q-56 0 -104 15t-75.5 33t-63.5 33t-71 15q-48 0 -78 -25t-36 -67z" />
    <glyph glyph-name="hungarumlaut" unicode="&#x2dd;" horiz-adv-x="751" 
d="M82 1167l192 332h150l-264 -332h-78zM328 1167l192 332h150l-264 -332h-78z" />
    <glyph glyph-name="uni03BC" unicode="&#x3bc;" horiz-adv-x="1130" 
d="M625 -4q-107 0 -196.5 49t-145.5 131v-452h-193v1327h193v-578q0 -132 80 -217.5t206 -85.5t206.5 89t80.5 228v564h193v-611q0 -197 -116 -320.5t-308 -123.5z" />
    <glyph glyph-name="endash" unicode="&#x2013;" horiz-adv-x="1333" 
d="M84 723h1167v-166h-1167v166z" />
    <glyph glyph-name="emdash" unicode="&#x2014;" horiz-adv-x="1742" 
d="M84 557v166h1577v-166h-1577z" />
    <glyph glyph-name="quoteleft" unicode="&#x2018;" horiz-adv-x="423" 
d="M340 981q0 -54 -34 -87.5t-89 -33.5q-60 0 -96.5 46.5t-36.5 121.5q0 100 52.5 187t123.5 133l45 -52q-86 -80 -86 -184v-10h6q50 0 82.5 -33t32.5 -88z" />
    <glyph glyph-name="quoteright" unicode="&#x2019;" horiz-adv-x="423" 
d="M84 1227q0 54 33.5 87.5t87.5 33.5q61 0 98 -45.5t37 -120.5q0 -102 -52 -189.5t-124 -132.5l-45 51q86 80 86 195h-6q-50 0 -82.5 33.5t-32.5 87.5z" />
    <glyph glyph-name="quotesinglbase" unicode="&#x201a;" horiz-adv-x="423" 
d="M84 -12q0 54 33.5 87.5t87.5 33.5q62 0 98.5 -45t36.5 -123q0 -100 -52.5 -187t-123.5 -133l-45 51q86 80 86 195h-10q-48 0 -79.5 33t-31.5 88z" />
    <glyph glyph-name="quotedblleft" unicode="&#x201c;" horiz-adv-x="786" 
d="M702 981q0 -54 -33.5 -87.5t-88.5 -33.5q-60 0 -97 46.5t-37 121.5q0 100 53 187.5t122 132.5l47 -52q-86 -80 -86 -184v-10h6q51 0 82.5 -33t31.5 -88zM340 981q0 -54 -34 -87.5t-89 -33.5q-60 0 -96.5 46.5t-36.5 121.5q0 100 52.5 187t123.5 133l45 -52
q-86 -80 -86 -184v-10h6q50 0 82.5 -33t32.5 -88z" />
    <glyph glyph-name="quotedblright" unicode="&#x201d;" horiz-adv-x="786" 
d="M84 1227q0 54 33.5 87.5t87.5 33.5q61 0 98 -45.5t37 -120.5q0 -102 -52 -189.5t-124 -132.5l-45 51q86 80 86 195h-6q-50 0 -82.5 33.5t-32.5 87.5zM446 1227q0 53 34.5 87t86.5 34q61 0 98 -45.5t37 -120.5q0 -102 -52.5 -190t-123.5 -132l-45 51q86 80 86 195h-6
q-50 0 -82.5 33.5t-32.5 87.5z" />
    <glyph glyph-name="quotedblbase" unicode="&#x201e;" horiz-adv-x="786" 
d="M84 -8q0 54 33.5 87.5t87.5 33.5q61 0 98 -46.5t37 -121.5q0 -100 -52.5 -187t-123.5 -133l-45 51q86 80 86 195h-10q-48 0 -79.5 33t-31.5 88zM446 -8q0 53 34.5 87t86.5 34q61 0 98 -46.5t37 -121.5q0 -100 -53 -188t-123 -132l-45 51q86 80 86 195h-10q-48 0 -79.5 33
t-31.5 88z" />
    <glyph glyph-name="dagger" unicode="&#x2020;" horiz-adv-x="987" 
d="M86 684v164h309v369h199v-369h309v-164h-309v-1018h-199v1018h-309z" />
    <glyph glyph-name="daggerdbl" unicode="&#x2021;" horiz-adv-x="987" 
d="M86 684v164h309v369h199v-369h309v-164h-309v-311h309v-162h-309v-371h-199v371h-309v162h309v311h-309z" />
    <glyph glyph-name="bullet" unicode="&#x2022;" horiz-adv-x="509" 
d="M82 635q0 75 48.5 122.5t123.5 47.5q78 0 126 -47.5t48 -122.5q0 -74 -48 -121t-126 -47q-75 0 -123.5 47.5t-48.5 120.5z" />
    <glyph glyph-name="ellipsis" unicode="&#x2026;" horiz-adv-x="1320" 
d="M84 96q0 54 34.5 87.5t90.5 33.5t90.5 -33.5t34.5 -87.5q0 -56 -35 -90.5t-90 -34.5t-90 34.5t-35 90.5zM537 96q0 54 34.5 87.5t90.5 33.5q55 0 89.5 -33.5t34.5 -87.5q0 -56 -34.5 -90.5t-89.5 -34.5q-56 0 -90.5 34.5t-34.5 90.5zM987 96q0 54 34.5 87.5t90.5 33.5
t90.5 -33.5t34.5 -87.5q0 -56 -34.5 -90.5t-90.5 -34.5t-90.5 34.5t-34.5 90.5z" />
    <glyph glyph-name="perthousand" unicode="&#x2030;" horiz-adv-x="2723" 
d="M457 1440q165 0 267.5 -103.5t102.5 -267.5q0 -167 -102 -270t-268 -103t-268.5 103t-102.5 270q0 163 103 267t268 104zM379 0l876 1341h140l-877 -1341h-139zM457 1305q-106 0 -172 -65t-66 -171q0 -108 66 -174t172 -66t171.5 66t65.5 174q0 106 -65.5 171t-171.5 65z
M1397 764q165 0 268.5 -103t103.5 -268t-103.5 -267.5t-268.5 -102.5q-164 0 -267.5 102.5t-103.5 267.5t104 268t267 103zM2267 764q166 0 268.5 -102.5t102.5 -268.5t-102.5 -268t-268.5 -102t-267.5 102t-101.5 268t101.5 268.5t267.5 102.5zM1397 631q-106 0 -172 -66
t-66 -172t66 -171.5t172 -65.5t172.5 65.5t66.5 171.5t-66.5 172t-172.5 66zM2267 631q-106 0 -171.5 -66t-65.5 -172t65.5 -171.5t171.5 -65.5t172 65.5t66 171.5t-66 172t-172 66z" />
    <glyph glyph-name="guilsinglleft" unicode="&#x2039;" horiz-adv-x="905" 
d="M82 731l739 477v-172l-485 -305l485 -305v-174z" />
    <glyph glyph-name="guilsinglright" unicode="&#x203a;" horiz-adv-x="905" 
d="M821 731l-739 -479v174l487 305l-487 305v172z" />
    <glyph glyph-name="fraction" unicode="&#x2044;" horiz-adv-x="1259" 
d="M82 0l879 1341h137l-877 -1341h-139z" />
    <glyph glyph-name="uni2074" unicode="&#x2074;" horiz-adv-x="647" 
d="M152 948v-6h239v352zM391 840h-356v123l321 460h150v-481h90v-102h-90v-158h-115v158z" />
    <glyph glyph-name="Euro" unicode="&#x20ac;" horiz-adv-x="1882" 
d="M82 512v121h237q-9 98 0 192h-229v123h252q61 257 260 408t475 151q177 0 324 -60.5t251 -181.5t144 -290h-182q-50 161 -191.5 260.5t-326.5 99.5q-201 0 -348 -103.5t-199 -283.5h649v-123h-682q-12 -96 0 -192h682v-121h-649q54 -179 196.5 -280t337.5 -101
q190 0 332.5 99t198.5 253h182q-62 -238 -256.5 -383t-462.5 -145q-285 0 -481.5 147.5t-253.5 409.5h-260z" />
    <glyph glyph-name="trademark" unicode="&#x2122;" horiz-adv-x="1658" 
d="M311 672v624h-229v123h596v-123h-229v-624h-138zM776 672v753l400 -536l401 536v-753h-137v395l-262 -350l-265 350v-395h-137z" />
    <glyph glyph-name="minus" unicode="&#x2212;" horiz-adv-x="1005" 
d="M82 647v166h840v-166h-840z" />
    <glyph glyph-name="B.alt" horiz-adv-x="1398" 
d="M82 0v1460h731q214 0 334.5 -101.5t120.5 -275.5q0 -104 -55 -182t-158 -113q262 -82 262 -376q0 -85 -31.5 -158.5t-93.5 -131t-162.5 -90t-230.5 -32.5h-717zM276 842h517q126 0 203 59.5t77 167.5q0 96 -78 156.5t-202 60.5h-517v-444zM276 176h512q322 0 322 246
q0 121 -85.5 196.5t-236.5 75.5h-512v-518z" />
    <glyph glyph-name="D.alt" horiz-adv-x="1161" 
d="M82 -303v2044h276q160 0 296 -80.5t228.5 -217.5t144.5 -321.5t52 -390.5q0 -295 -88.5 -529.5t-253.5 -369.5t-379 -135h-276zM279 -129h96q148 0 266.5 112t184 308.5t65.5 439.5q0 225 -65.5 415.5t-184.5 305.5t-266 115h-96v-1696z" />
    <glyph glyph-name="N.alt" horiz-adv-x="1431" 
d="M82 -303v1780l1073 -1078v1342h193v-1757l-1072 1058v-1345h-194z" />
    <glyph glyph-name="A.alt" horiz-adv-x="1650" 
d="M825 1065l-325 -651h649zM147 -303h-215l893 1782l744 -1479h-215l-131 262h-797z" />
    </font>
</defs>
</svg>
